SplineFontDB: 2.0
FontName: Sawasdee
FullName: Sawasdee
FamilyName: Sawasdee
Weight: Regular
Copyright: Created by Pol Udomwittayanukul,,, with FontForge 2.0 (http://fontforge.sf.net)
Version: 001.000
ItalicAngle: 0
UnderlinePosition: -75
UnderlineWidth: 50
Ascent: 750
Descent: 250
XUID: [1021 180 1442959360 14105409]
UniqueID: 4256560
FSType: 8
OS2Version: 0
OS2_WeightWidthSlopeOnly: 0
OS2_UseTypoMetrics: 1
CreationTime: 1178430034
ModificationTime: 1181212211
PfmFamily: 17
TTFWeight: 400
TTFWidth: 5
LineGap: 90
VLineGap: 0
OS2TypoAscent: 0
OS2TypoAOffset: 1
OS2TypoDescent: 0
OS2TypoDOffset: 1
OS2TypoLinegap: 90
OS2WinAscent: 0
OS2WinAOffset: 1
OS2WinDescent: 0
OS2WinDOffset: 1
HheadAscent: 2
HheadAOffset: 1
HheadDescent: 40
HheadDOffset: 1
OS2Vendor: 'PfEd'
Lookup: 4 0 1 "'liga' Standard Ligatures in Latin lookup 0"  {"'liga' Standard Ligatures in Latin lookup 0"  } ['liga' ('latn' <'dflt' > ) ]
Lookup: 4 0 0 "'frac' Diagonal Fractions in Latin lookup 42"  {"'frac' Diagonal Fractions in Latin lookup 42"  } ['frac' ('latn' <'dflt' > ) ]
Lookup: 6 0 0 "'ccmp' Glyph Composition/Decomposition in Thai lookup 0"  {"'ccmp' Glyph Composition/Decomposition in Thai lookup 0"  } ['ccmp' ('thai' <'KUY ' 'PAL ' 'THA ' 'dflt' > ) ]
Lookup: 6 0 0 "'ccmp' Glyph Composition/Decomposition in Thai lookup 1"  {"'ccmp' Glyph Composition/Decomposition in Thai lookup 1"  } ['ccmp' ('thai' <'KUY ' 'PAL ' 'THA ' 'dflt' > ) ]
Lookup: 5 0 0 "Required Feature in Thai lookup 2"  {"Required Feature in Thai lookup 2"  } [' RQD' ('thai' <'PAL ' > ) ]
Lookup: 1 0 0 "Single Substitution lookup 3"  {"Single Substitution lookup 3"  } []
Lookup: 1 0 0 "Single Substitution lookup 4"  {"Single Substitution lookup 4"  } []
Lookup: 2 0 0 "Multiple Substitution lookup 5"  {"Multiple Substitution lookup 5"  } []
Lookup: 1 0 0 "Single Substitution lookup 6"  {"Single Substitution lookup 6"  } []
Lookup: 2 0 0 "Multiple Substitution lookup 7"  {"Multiple Substitution lookup 7"  } []

StartChar: exclam
Encoding: 1 33 1
Width: 223
VWidth: 1333
Flags: HW
HStem: -7 75<86 138> 647 20G<85 139>
VStem: 75 74<5 57> 85 54<549.786 667> 99 26<120 237.214>
Fore
125 120 m 1xc8
 99 120 l 1xc8
 85 667 l 1
 139 667 l 1xd0
 125 120 l 1xc8
75 31 m 0xe0
 75 51 92 68 112 68 c 0
 132 68 149 51 149 31 c 0
 149 11 132 -7 112 -7 c 0
 92 -7 75 11 75 31 c 0xe0
EndSplineSet
EndChar
StartChar: quotedbl
Encoding: 2 34 2
Width: 309
VWidth: 1333
Flags: HW
Fore
115 520 m 1
 88 520 l 1
 75 693 l 1
 128 693 l 1
 115 520 l 1
221 520 m 1
 195 520 l 1
 181 693 l 1
 235 693 l 1
 221 520 l 1
EndSplineSet
EndChar
StartChar: numbersign
Encoding: 3 35 3
Width: 477
VWidth: 1333
Flags: HW
HStem: 0 21G<47 88 233 273> 207 40<0 96 145 283 332 431> 420 40<45 147 197 332 384 477> 647 20G<205 247 392 433>
Fore
273 0 m 1
 233 0 l 1
 283 207 l 1
 137 207 l 1
 88 0 l 1
 47 0 l 1
 96 207 l 1
 0 207 l 1
 0 247 l 1
 105 247 l 1
 147 420 l 1
 45 420 l 1
 45 460 l 1
 156 460 l 1
 205 667 l 1
 247 667 l 1
 197 460 l 1
 343 460 l 1
 392 667 l 1
 433 667 l 1
 384 460 l 1
 477 460 l 1
 477 420 l 1
 373 420 l 1
 332 247 l 1
 431 247 l 1
 431 207 l 1
 323 207 l 1
 273 0 l 1
145 247 m 1
 291 247 l 1
 332 420 l 1
 187 420 l 1
 145 247 l 1
EndSplineSet
EndChar
StartChar: dollar
Encoding: 4 36 4
Width: 527
VWidth: 1333
Flags: HW
VStem: 55 40<45.4369 185.722> 107 40<440.2 588.4> 245 42<-67 -12 29 341 403 627 671 731> 432 41<72.3 301.1>
Fore
287 -67 m 1
 245 -67 l 1
 245 -12 l 1
 157 -5 72 56 55 185 c 1
 95 191 l 1
 109 84 175 36 245 29 c 1
 245 360 l 1
 173 392 107 429 107 516 c 0
 107 595 161 663 245 671 c 1
 245 731 l 1
 285 731 l 1
 285 671 l 1
 347 663 407 621 432 548 c 1
 395 535 l 1
 375 592 332 623 287 631 c 1
 287 388 l 1
 375 351 473 311 473 191 c 0
 473 80 387 4 287 -7 c 1
 287 -67 l 1
285 341 m 1
 285 29 l 1
 363 40 432 99 432 188 c 0
 432 275 361 309 285 341 c 1
245 403 m 1
 245 627 l 1
 185 619 147 571 147 513 c 0
 147 457 191 428 245 403 c 1
EndSplineSet
EndChar
StartChar: percent
Encoding: 5 37 5
Width: 701
VWidth: 1333
Flags: HW
HStem: -8 41<449.7 582.3> 212 41<449.7 582.3> 411 41<120 251.3> 631 41<120 251.3>
VStem: 55 40<477.3 606> 276 40<477.3 606> 385 40<58 186.7> 607 40<58 186.7>
Fore
516 253 m 0
 588 253 647 195 647 123 c 0
 647 51 588 -8 516 -8 c 0
 444 -8 385 51 385 123 c 0
 385 195 444 253 516 253 c 0
425 123 m 0
 425 73 465 33 516 33 c 0
 567 33 607 73 607 123 c 0
 607 172 567 212 516 212 c 0
 465 212 425 172 425 123 c 0
185 672 m 0
 257 672 316 613 316 541 c 0
 316 469 257 411 185 411 c 0
 113 411 55 469 55 541 c 0
 55 613 113 672 185 672 c 0
95 541 m 0
 95 492 135 452 185 452 c 0
 236 452 276 492 276 541 c 0
 276 591 236 631 185 631 c 0
 135 631 95 591 95 541 c 0
563 667 m 1
 612 667 l 1
 139 0 l 1
 89 0 l 1
 563 667 l 1
EndSplineSet
EndChar
StartChar: ampersand
Encoding: 6 38 6
Width: 605
VWidth: 1333
Flags: HW
HStem: -7 39<153.6 390.2> 636 40<249.9 386.4>
VStem: 55 40<90.8 353.4> 188 40<516.608 616.6> 424 40<532 630.8> 516 43<189.6 239>
Fore
516 239 m 1
 559 239 l 1
 559 188 543 141 516 103 c 1
 589 0 l 1
 540 0 l 1
 489 71 l 1
 444 23 379 -7 307 -7 c 0
 168 -7 55 104 55 240 c 0
 55 343 119 431 209 468 c 1
 195 496 188 524 188 549 c 0
 188 625 247 676 324 676 c 0
 396 676 464 629 464 532 c 1
 424 532 l 1
 424 608 372 636 324 636 c 0
 267 636 228 601 228 549 c 0
 228 525 236 497 257 465 c 2
 491 137 l 1
 508 168 516 201 516 239 c 1
467 103 m 1
 231 432 l 1
 151 403 95 327 95 239 c 0
 95 125 189 32 307 32 c 0
 371 32 428 60 467 103 c 1
EndSplineSet
EndChar
StartChar: quoteright
Encoding: 300 8217 7
Width: 234
VWidth: 1333
Flags: HW
HStem: 583 90<70.5 115.816>
VStem: 113 46<544.7 611>
Fore
103 673 m 0
 128 673 159 654 159 611 c 0
 159 560 129 512 90 481 c 1
 56 481 l 1
 88 507 113 553 113 584 c 1
 110 583 106 583 103 583 c 0
 78 583 57 603 57 628 c 0
 57 653 78 673 103 673 c 0
EndSplineSet
EndChar
StartChar: parenleft
Encoding: 8 40 8
Width: 218
VWidth: 1333
Flags: HW
VStem: 55 45<123 477.1>
Fore
157 703 m 1
 188 703 l 1
 129 571 100 436 100 299 c 0
 100 162 130 22 191 -120 c 1
 160 -120 l 1
 90 23 55 165 55 305 c 0
 55 440 88 573 157 703 c 1
EndSplineSet
EndChar
StartChar: parenright
Encoding: 9 41 9
Width: 205
VWidth: 1333
Flags: HW
VStem: 119 45<123 477.1>
Fore
31 703 m 1
 61 703 l 1
 130 573 164 440 164 305 c 0
 164 165 128 23 59 -120 c 1
 28 -120 l 1
 89 22 119 162 119 299 c 0
 119 436 89 571 31 703 c 1
EndSplineSet
EndChar
StartChar: asterisk
Encoding: 10 42 10
Width: 407
VWidth: 1333
Flags: HW
HStem: 547 242<183 264>
VStem: 183 42<696 789>
Fore
183 789 m 1
 225 789 l 1
 225 696 l 1
 324 720 l 1
 333 681 l 1
 237 659 l 1
 297 569 l 1
 264 547 l 1
 204 636 l 1
 144 547 l 1
 111 569 l 1
 171 659 l 1
 75 681 l 1
 84 720 l 1
 183 696 l 1
 183 789 l 1
EndSplineSet
EndChar
StartChar: plus
Encoding: 11 43 11
Width: 463
VWidth: 1333
Flags: HW
HStem: 313 40<55 212 252 409>
VStem: 212 40<156 313 353 511>
Fore
252 156 m 1
 212 156 l 1
 212 313 l 1
 55 313 l 1
 55 353 l 1
 212 353 l 1
 212 511 l 1
 252 511 l 1
 252 353 l 1
 409 353 l 1
 409 313 l 1
 252 313 l 1
 252 156 l 1
EndSplineSet
EndChar
StartChar: comma
Encoding: 12 44 12
Width: 234
VWidth: 1333
Flags: HW
HStem: -7 75<86 129.273>
VStem: 132 28<-42.9 13>
Fore
75 31 m 4
 75 51 92 68 112 68 c 4
 133 68 160 52 160 13 c 4
 160 -61 95 -108 95 -108 c 5
 75 -108 l 5
 101 -87 132 -33 132 0 c 5
 125 -5 120 -7 112 -7 c 4
 92 -7 75 11 75 31 c 4
EndSplineSet
EndChar
StartChar: hyphen
Encoding: 13 45 13
Width: 383
VWidth: 1333
Flags: HW
HStem: 247 40<55 329>
Fore
329 287 m 5
 329 247 l 5
 55 247 l 5
 55 287 l 5
 329 287 l 5
EndSplineSet
EndChar
StartChar: period
Encoding: 14 46 14
Width: 223
VWidth: 1333
Flags: HW
HStem: -7 75<86 138>
VStem: 75 74<5 57>
Fore
75 31 m 4
 75 51 92 68 112 68 c 4
 132 68 149 51 149 31 c 4
 149 11 132 -7 112 -7 c 4
 92 -7 75 11 75 31 c 4
EndSplineSet
EndChar
StartChar: slash
Encoding: 15 47 15
Width: 522
VWidth: 1333
Flags: HW
HStem: 0 21G<0 49> 647 20G<473 523>
Fore
473 667 m 1
 523 667 l 1
 49 0 l 1
 0 0 l 1
 473 667 l 1
EndSplineSet
EndChar
StartChar: zero
Encoding: 16 48 16
Width: 533
VWidth: 1333
Flags: HW
HStem: -7 40<147.4 386.6> 633 40<147.4 386.6>
VStem: 45 40<106.8 560.5> 448 40<106.8 560.5>
Fore
488 333 m 0
 488 155 397 -7 267 -7 c 0
 136 -7 45 155 45 333 c 0
 45 512 136 673 267 673 c 0
 397 673 488 512 488 333 c 0
85 333 m 0
 85 159 175 33 267 33 c 0
 359 33 448 159 448 333 c 0
 448 508 359 633 267 633 c 0
 175 633 85 508 85 333 c 0
EndSplineSet
EndChar
StartChar: one
Encoding: 17 49 17
Width: 533
VWidth: 1333
Flags: HW
HStem: 0 21G<247 287>
VStem: 247 40<0 595>
Fore
247 0 m 1
 245 595 l 1
 173 552 l 1
 153 587 l 1
 287 667 l 1
 287 0 l 1
 247 0 l 1
EndSplineSet
EndChar
StartChar: two
Encoding: 18 50 18
Width: 533
VWidth: 1333
Flags: HW
HStem: 0 40<85 480> 461 21G<73 113> 633 40<158.8 375.9>
VStem: 73 40<461 588.4> 421 39<227 588.4>
Fore
480 0 m 1
 45 0 l 1
 45 19 l 2
 45 247 421 281 421 461 c 0
 421 559 351 633 268 633 c 0
 184 633 113 559 113 461 c 1
 73 461 l 1
 73 577 159 673 267 673 c 0
 375 673 460 577 460 461 c 0
 460 259 109 221 85 40 c 1
 480 40 l 1
 480 0 l 1
EndSplineSet
EndChar
StartChar: three
Encoding: 19 51 19
Width: 533
VWidth: 1333
Flags: HW
HStem: -7 40<149.7 386.3> 364 40<268 352.5> 633 40<180.9 355.1>
VStem: 61 42<80.7 199> 108 40<515 599.5> 388 40<439.6 599.5> 433 39<80.7 305.6>
Fore
61 199 m 1
 103 199 l 1
 103 108 177 33 268 33 c 0
 359 33 433 108 433 199 c 0
 433 289 359 364 268 364 c 1
 268 404 l 1
 333 404 388 448 388 515 c 0
 388 580 335 633 268 633 c 0
 201 633 148 580 148 515 c 1
 108 515 l 1
 108 603 180 673 268 673 c 0
 356 673 428 603 428 515 c 0
 428 457 397 411 352 385 c 1
 423 353 472 281 472 199 c 0
 472 85 380 -7 267 -7 c 0
 153 -7 61 85 61 199 c 1
EndSplineSet
EndChar
StartChar: four
Encoding: 20 52 20
Width: 533
VWidth: 1333
Flags: HW
HStem: 0 21G<377 417> 124 40<80 377 417 477>
VStem: 377 40<0 124 164 555>
Fore
377 164 m 1
 377 555 l 1
 80 164 l 1
 377 164 l 1
417 0 m 1
 377 0 l 1
 377 124 l 1
 0 124 l 1
 417 675 l 1
 417 164 l 1
 491 164 l 1
 477 124 l 1
 417 124 l 1
 417 0 l 1
EndSplineSet
EndChar
StartChar: five
Encoding: 21 53 21
Width: 533
VWidth: 1333
Flags: HW
HStem: -8 40<149.3 395> 437 38<185.7 395> 627 40<125 409>
VStem: 449 40<86.8 381.9>
Fore
409 627 m 1
 125 627 l 1
 107 404 l 1
 148 448 204 475 265 475 c 0
 391 475 489 365 489 233 c 0
 489 101 391 -8 265 -8 c 0
 152 -8 60 83 44 197 c 1
 84 197 l 1
 100 103 176 32 265 32 c 0
 365 32 449 121 449 235 c 0
 449 348 365 437 265 437 c 0
 197 437 136 395 104 333 c 1
 60 333 l 1
 88 667 l 1
 423 667 l 1
 409 627 l 1
EndSplineSet
EndChar
StartChar: six
Encoding: 22 54 22
Width: 533
VWidth: 1333
Flags: HW
HStem: 0 39<135 395> 444 39<221.918 395> 652 20G<277 325>
VStem: 41 40<94.1 389.2> 449 40<94.1 389.2>
Fore
449 241 m 0
 449 355 365 444 265 444 c 0
 165 444 81 355 81 241 c 0
 81 128 165 39 265 39 c 0
 365 39 449 128 449 241 c 0
277 672 m 1
 325 672 l 1
 188 468 l 1
 212 477 239 483 265 483 c 0
 391 483 489 373 489 241 c 0
 489 109 391 0 265 0 c 0
 140 0 41 109 41 241 c 0
 41 373 131 453 277 672 c 1
EndSplineSet
EndChar
StartChar: seven
Encoding: 23 55 23
Width: 533
VWidth: 1333
Flags: HW
HStem: 0 21G<177 221> 627 40<73 459>
VStem: 60 460<627 667>
Fore
73 667 m 1
 520 667 l 1
 221 0 l 1
 177 0 l 1
 459 627 l 1
 60 627 l 1
 73 667 l 1
EndSplineSet
EndChar
StartChar: eight
Encoding: 24 56 24
Width: 533
VWidth: 1333
Flags: HW
HStem: -7 40<148.7 384> 364 40<181.2 351.5> 633 40<181.2 351.5>
VStem: 61 40<80.7 308.2> 108 40<446.2 599.6> 385 40<446.2 599.6> 432 40<80.7 308.2>
Fore
267 673 m 0
 353 673 425 604 425 519 c 0
 425 463 395 413 349 387 c 1
 421 355 472 283 472 199 c 0
 472 85 380 -7 267 -7 c 0
 153 -7 61 85 61 199 c 0
 61 283 112 355 184 387 c 1
 139 413 108 463 108 519 c 0
 108 604 180 673 267 673 c 0
101 199 m 0
 101 108 176 33 267 33 c 0
 357 33 432 108 432 199 c 0
 432 289 357 364 267 364 c 0
 176 364 101 289 101 199 c 0
267 404 m 0
 332 404 385 456 385 519 c 0
 385 581 332 633 267 633 c 0
 201 633 148 581 148 519 c 0
 148 456 201 404 267 404 c 0
EndSplineSet
EndChar
StartChar: nine
Encoding: 25 57 25
Width: 533
VWidth: 1333
Flags: HW
HStem: 0 21G<205 253> 189 39<135 309.131> 633 39<135 395>
VStem: 41 40<282.8 577.9> 449 40<282.8 577.9>
Fore
81 431 m 0
 81 317 165 228 265 228 c 0
 365 228 449 317 449 431 c 0
 449 544 365 633 265 633 c 0
 165 633 81 544 81 431 c 0
253 0 m 1
 205 0 l 1
 343 204 l 1
 319 195 292 189 265 189 c 0
 140 189 41 299 41 431 c 0
 41 563 140 672 265 672 c 0
 391 672 489 563 489 431 c 0
 489 299 400 219 253 0 c 1
EndSplineSet
EndChar
StartChar: colon
Encoding: 26 58 26
Width: 223
VWidth: 1333
Flags: HW
HStem: -7 75<86 138> 387 74<86 138>
VStem: 75 74<5 57 398 450>
Fore
75 31 m 0
 75 51 92 68 112 68 c 0
 132 68 149 51 149 31 c 0
 149 11 132 -7 112 -7 c 0
 92 -7 75 11 75 31 c 0
75 424 m 0
 75 444 92 461 112 461 c 0
 132 461 149 444 149 424 c 0
 149 404 132 387 112 387 c 0
 92 387 75 404 75 424 c 0
EndSplineSet
EndChar
StartChar: semicolon
Encoding: 27 59 27
Width: 223
VWidth: 1333
Flags: HW
HStem: -7 75<86 129.273> 387 74<86 138>
VStem: 75 74<398 450> 132 28<-42.9 13>
Fore
75 31 m 0xe0
 75 51 92 68 112 68 c 0
 133 68 160 52 160 13 c 0xd0
 160 -61 95 -108 95 -108 c 1
 75 -108 l 1xe0
 101 -87 132 -33 132 0 c 1xd0
 125 -5 120 -7 112 -7 c 0
 92 -7 75 11 75 31 c 0xe0
75 424 m 0xe0
 75 444 92 461 112 461 c 0
 132 461 149 444 149 424 c 0
 149 404 132 387 112 387 c 0
 92 387 75 404 75 424 c 0xe0
EndSplineSet
EndChar
StartChar: less
Encoding: 28 60 28
Width: 529
VWidth: 1333
Flags: HW
HStem: 0 21G<425 503> 433 20G<425 503>
VStem: 55 448<0 227>
Fore
503 0 m 1
 425 0 l 1
 55 227 l 1
 425 453 l 1
 503 453 l 1
 132 227 l 1
 503 0 l 1
EndSplineSet
EndChar
StartChar: equal
Encoding: 29 61 29
Width: 463
VWidth: 1333
Flags: HW
HStem: 193 40<55 409> 300 40<55 409>
Fore
409 340 m 1
 409 300 l 1
 55 300 l 1
 55 340 l 1
 409 340 l 1
409 233 m 1
 409 193 l 1
 55 193 l 1
 55 233 l 1
 409 233 l 1
EndSplineSet
EndChar
StartChar: greater
Encoding: 30 62 30
Width: 538
VWidth: 1333
Flags: HW
HStem: 0 21G<55 132> 433 20G<55 132>
VStem: 55 448<0 227>
Fore
132 0 m 1
 55 0 l 1
 425 227 l 1
 55 453 l 1
 132 453 l 1
 503 227 l 1
 132 0 l 1
EndSplineSet
EndChar
StartChar: question
Encoding: 31 63 31
Width: 463
VWidth: 1333
Flags: HW
HStem: -7 75<193 245> 633 40<130.5 334.6>
VStem: 55 40<505 585.6> 181 75<5 57> 369 40<388 603.8>
Fore
181 31 m 0
 181 51 199 68 219 68 c 0
 239 68 256 51 256 31 c 0
 256 11 239 -7 219 -7 c 0
 199 -7 181 11 181 31 c 0
240 137 m 1
 200 137 l 1
 200 204 l 2
 200 360 369 415 369 505 c 0
 369 581 313 633 241 633 c 0
 156 633 95 567 95 505 c 1
 55 505 l 1
 55 593 137 673 241 673 c 0
 337 673 409 603 409 505 c 0
 409 389 240 341 240 204 c 2
 240 137 l 1
EndSplineSet
EndChar
StartChar: at
Encoding: 32 64 32
Width: 907
VWidth: 1333
Flags: HW
HStem: -221 38<200.2 535.6> -9 41<274.1 477.2 661 765> 419 40<338.4 569.4> 631 41<200.2 705.9>
VStem: 55 41<-71.1 519.1> 208 43<65.2 329.1> 603 21<117.7 288> 813 40<33.5 522.3>
Fore
647 453 m 1
 689 453 l 1
 636 231 l 2
 633 221 624 192 624 160 c 0
 624 79 673 32 713 32 c 0
 753 32 813 80 813 235 c 0
 813 456 648 631 455 631 c 0
 259 631 96 451 96 224 c 0
 96 -3 259 -183 455 -183 c 0
 517 -183 576 -164 628 -132 c 1
 649 -165 l 1
 592 -201 525 -221 455 -221 c 0
 232 -221 55 -20 55 225 c 0
 55 471 232 672 455 672 c 0
 673 672 853 475 853 235 c 0
 853 48 771 -9 713 -9 c 0
 652 -9 600 47 587 123 c 1
 535 47 452 -8 368 -8 c 0
 272 -8 208 64 208 163 c 0
 208 313 348 459 481 459 c 0
 549 459 601 423 625 367 c 1
 647 453 l 1
484 419 m 0
 372 419 251 291 251 164 c 0
 251 88 296 33 369 33 c 0
 479 33 603 157 603 288 c 0
 603 364 557 419 484 419 c 0
EndSplineSet
EndChar
StartChar: A
Encoding: 33 65 33
Width: 591
VWidth: 1333
Flags: HW
HStem: 0 21G<16 59 533 576> 207 40<163 432>
Fore
163 247 m 1
 432 247 l 1
 297 571 l 1
 163 247 l 1
448 207 m 1
 144 207 l 1
 59 0 l 1
 16 0 l 1
 296 675 l 1
 576 0 l 1
 533 0 l 1
 448 207 l 1
EndSplineSet
EndChar
StartChar: B
Encoding: 34 66 34
Width: 578
VWidth: 1333
Flags: HW
HStem: 0 40<115 309> 351 40<115 398.897> 627 40<115 398.5>
VStem: 75 40<40 351 391 627> 433 42<434.2 589.9> 484 40<86.8 301.3>
Fore
115 40 m 1
 309 40 l 2
 408 40 484 112 484 196 c 0
 484 280 408 351 309 351 c 2
 115 351 l 1
 115 40 l 1
433 508 m 0
 433 571 376 627 301 627 c 2
 115 627 l 1
 115 391 l 1
 301 391 l 2
 376.306 391.282 433 443.89 433 508 c 0
75 667 m 1
 304 667 l 2
 397 667 475 595 475 507 c 0
 475 451 443 403 395 375 c 1
 471 345 524 277 524 196 c 0
 524 87 427 0 309 0 c 2
 75 0 l 1
 75 667 l 1
EndSplineSet
EndChar
StartChar: C
Encoding: 35 67 35
Width: 719
VWidth: 1333
Flags: HW
HStem: -5 38<178.5 521.7> 633 42<178.5 521.7>
VStem: 55 40<118.5 548.8>
Fore
633 155 m 1
 665 133 l 1
 604 49 505 -5 393 -5 c 0
 207 -5 55 147 55 335 c 0
 55 523 207 675 393 675 c 0
 505 675 604 620 665 536 c 1
 633 512 l 1
 579 585 492 633 393 633 c 0
 228 633 95 499 95 333 c 0
 95 168 228 33 393 33 c 0
 492 33 579 81 633 155 c 1
EndSplineSet
EndChar
StartChar: D
Encoding: 36 68 36
Width: 602
VWidth: 1333
Flags: HW
HStem: 0 40<115 209> 627 40<115 424.8>
VStem: 75 40<40 627> 508 40<118.5 548.8>
Fore
115 40 m 1
 209 40 l 2
 375 40 508 168 508 333 c 0
 508 499 375 627 209 627 c 2
 115 627 l 1
 115 40 l 1
75 0 m 1
 75 667 l 1
 209 667 l 2
 396 667 548 521 548 333 c 0
 548 145 396 0 209 0 c 2
 75 0 l 1
EndSplineSet
EndChar
StartChar: E
Encoding: 37 69 37
Width: 489
VWidth: 1333
Flags: HW
HStem: 0 40<115 461> 367 40<115 435> 627 40<115 463>
VStem: 75 40<40 367 407 627>
Fore
435 407 m 1
 435 367 l 1
 115 367 l 1
 115 40 l 1
 461 40 l 1
 461 0 l 1
 75 0 l 1
 75 667 l 1
 463 667 l 1
 463 627 l 1
 115 627 l 1
 115 407 l 1
 435 407 l 1
EndSplineSet
EndChar
StartChar: F
Encoding: 38 70 38
Width: 489
VWidth: 1333
Flags: HW
HStem: 0 21G<75 115> 367 40<115 435> 627 40<115 463>
VStem: 75 40<0 367 407 627>
Fore
435 407 m 1
 435 367 l 1
 115 367 l 1
 115 0 l 1
 75 0 l 1
 75 667 l 1
 463 667 l 1
 463 627 l 1
 115 627 l 1
 115 407 l 1
 435 407 l 1
EndSplineSet
EndChar
StartChar: G
Encoding: 39 71 39
Width: 786
VWidth: 1333
Flags: HW
HStem: -7 40<178.5 599.7> 313 40<393 691> 633 40<178.5 521.7>
VStem: 55 40<118.5 548.8>
CounterMasks: 1 00
Fore
665 536 m 1
 633 512 l 1
 579 585 492 633 393 633 c 0
 228 633 95 499 95 333 c 0
 95 168 228 33 393 33 c 0
 552 33 681 157 691 313 c 1
 393 313 l 1
 393 353 l 1
 732 353 l 1
 732 333 l 2
 732 145 580 -7 393 -7 c 0
 207 -7 55 145 55 333 c 0
 55 521 207 673 393 673 c 0
 504 673 604 619 665 536 c 1
EndSplineSet
EndChar
StartChar: H
Encoding: 40 72 40
Width: 623
VWidth: 1333
Flags: HW
HStem: 0 21G<75 115 509 549> 367 40<115 509> 647 20G<75 115 509 549>
VStem: 75 40<0 367 407 667> 509 40<0 367 407 667>
Fore
509 667 m 1
 549 667 l 1
 549 0 l 1
 509 0 l 1
 509 367 l 1
 115 367 l 1
 115 0 l 1
 75 0 l 1
 75 667 l 1
 115 667 l 1
 115 407 l 1
 509 407 l 1
 509 667 l 1
EndSplineSet
EndChar
StartChar: I
Encoding: 41 73 41
Width: 189
VWidth: 1333
Flags: HW
HStem: 0 21G<75 115> 647 20G<75 115>
VStem: 75 40<0 667>
Fore
115 0 m 1
 75 0 l 1
 75 667 l 1
 115 667 l 1
 115 0 l 1
EndSplineSet
EndChar
StartChar: J
Encoding: 42 74 42
Width: 457
VWidth: 1333
Flags: HW
HStem: -7 40<131.6 308.4> 647 20G<345 383>
VStem: 55 40<71.6 173> 345 38<95 667>
Fore
345 667 m 1
 383 667 l 1
 383 173 l 2
 383 75 311 -7 219 -7 c 0
 127 -7 55 75 55 173 c 1
 95 173 l 1
 95 95 152 33 220 33 c 0
 288 33 345 95 345 173 c 2
 345 667 l 1
EndSplineSet
EndChar
StartChar: K
Encoding: 43 75 43
Width: 514
VWidth: 1333
Flags: HW
HStem: 0 21G<75 115 457 509> 647 20G<75 115 425 485>
VStem: 75 40<0 329 384 667>
Fore
75 667 m 1
 115 667 l 1
 115 384 l 1
 425 667 l 1
 485 667 l 1
 215 421 l 1
 509 0 l 1
 457 0 l 1
 187 395 l 1
 115 329 l 1
 115 0 l 1
 75 0 l 1
 75 667 l 1
EndSplineSet
EndChar
StartChar: L
Encoding: 44 76 44
Width: 489
VWidth: 1333
Flags: HW
HStem: 0 40<115 463> 647 20G<75 115>
VStem: 75 40<40 667>
Fore
463 0 m 1
 75 0 l 1
 75 667 l 1
 115 667 l 1
 115 40 l 1
 463 40 l 1
 463 0 l 1
EndSplineSet
EndChar
StartChar: M
Encoding: 45 77 45
Width: 774
VWidth: 1333
Flags: HW
HStem: 0 21G<16 55 717 759>
Fore
55 0 m 1
 16 0 l 1
 144 675 l 1
 387 96 l 1
 635 675 l 1
 759 0 l 1
 717 0 l 1
 619 536 l 1
 385 -8 l 1
 157 536 l 1
 55 0 l 1
EndSplineSet
EndChar
StartChar: N
Encoding: 46 78 46
Width: 750
VWidth: 1333
Flags: HW
HStem: 0 21G<75 115> 647 20G<636 676>
VStem: 75 40<0 577> 636 40<89 667>
Fore
75 0 m 1
 75 676 l 1
 636 89 l 1
 636 667 l 1
 676 667 l 1
 676 -9 l 1
 115 577 l 1
 115 0 l 1
 75 0 l 1
EndSplineSet
EndChar
StartChar: O
Encoding: 47 79 47
Width: 786
VWidth: 1333
Flags: HW
HStem: -7 40<178.5 608.8> 633 40<178.5 608.8>
VStem: 55 40<118.5 548.8> 692 40<118.5 548.8>
Fore
393 673 m 0
 580 673 732 521 732 333 c 0
 732 145 580 -7 393 -7 c 0
 207 -7 55 145 55 333 c 0
 55 521 207 673 393 673 c 0
95 333 m 0
 95 168 228 33 393 33 c 0
 559 33 692 168 692 333 c 0
 692 499 559 633 393 633 c 0
 228 633 95 499 95 333 c 0
EndSplineSet
EndChar
StartChar: P
Encoding: 48 80 48
Width: 538
VWidth: 1333
Flags: HW
HStem: 0 21G<75 115> 313 42<115 405.3> 628 40<115 405.6>
VStem: 75 40<0 313 355 628> 443 41<392.2 589.8>
Fore
75 0 m 1
 75 668 l 1
 312 668 l 2
 408 668 484 588 484 491 c 0
 484 393 408 313 313 313 c 2
 115 313 l 1
 115 0 l 1
 75 0 l 1
115 355 m 1
 313 355 l 2
 384 355 443 415 443 491 c 0
 443 567 384 628 312 628 c 2
 115 628 l 1
 115 355 l 1
EndSplineSet
EndChar
StartChar: Q
Encoding: 49 81 49
Width: 786
VWidth: 1333
Flags: HW
HStem: -7 40<178.5 495.7> 633 40<178.5 608.8>
VStem: 55 40<118.5 548.8> 692 40<239.4 548.8>
Fore
501 227 m 1
 553 227 l 1
 624 143 l 1
 667 195 692 261 692 333 c 0
 692 499 559 633 393 633 c 0
 228 633 95 499 95 333 c 0
 95 168 228 33 393 33 c 0
 472 33 543 64 596 113 c 1
 501 227 l 1
743 0 m 1
 689 0 l 1
 621 81 l 1
 561 27 481 -7 393 -7 c 0
 207 -7 55 145 55 333 c 0
 55 521 207 673 393 673 c 0
 580 673 732 521 732 333 c 0
 732 248 701 171 649 111 c 1
 743 0 l 1
EndSplineSet
EndChar
StartChar: R
Encoding: 50 82 50
Width: 538
VWidth: 1333
Flags: HW
HStem: 0 21G<75 115 475 520> 313 40<115 303> 627 40<115 405.6>
VStem: 75 40<0 313 353 627> 443 41<390.2 587.8>
Fore
75 0 m 1
 75 667 l 1
 312 667 l 2
 408 667 484 587 484 489 c 0
 484 404 425 332 347 316 c 1
 520 0 l 1
 475 0 l 1
 303 313 l 1
 115 313 l 1
 115 0 l 1
 75 0 l 1
115 353 m 1
 313 353 l 2
 384 353 443 413 443 489 c 0
 443 565 384 627 312 627 c 2
 115 627 l 1
 115 353 l 1
EndSplineSet
EndChar
StartChar: S
Encoding: 51 83 51
Width: 526
VWidth: 1333
Flags: HW
HStem: -9 41<162.2 374.1> 633 42<172 331.9>
VStem: 55 40<38.1 188> 107 40<317.5 599.6> 432 40<63.3 435.1>
Fore
431 549 m 1
 393 536 l 1
 371 603 316 633 263 633 c 0
 193 633 147 581 147 519 c 0
 147 364 472 409 472 191 c 0
 472 71 371 -9 261 -9 c 0
 168 -9 73 51 55 188 c 1
 95 193 l 1
 111 79 185 32 261 32 c 0
 348 32 432 93 432 192 c 0
 432 379 107 328 107 520 c 0
 107 603 169 675 263 675 c 0
 331 675 403 632 431 549 c 1
EndSplineSet
EndChar
StartChar: T
Encoding: 52 84 52
Width: 439
VWidth: 1333
Flags: HW
HStem: 0 21G<200 240> 627 40<27 200 240 413>
VStem: 200 40<0 627>
Fore
413 667 m 1
 413 627 l 1
 240 627 l 1
 240 0 l 1
 200 0 l 1
 200 627 l 1
 27 627 l 1
 27 667 l 1
 413 667 l 1
EndSplineSet
EndChar
StartChar: U
Encoding: 53 85 53
Width: 623
VWidth: 1333
Flags: HW
HStem: -7 40<175.2 452.1> 647 20G<75 115 509 549>
VStem: 75 40<129 667> 509 40<91.8 667>
Fore
75 667 m 1
 115 667 l 1
 115 253 l 2
 115 129 207 33 313 33 c 0
 420 33 509 129 509 253 c 2
 509 667 l 1
 549 667 l 1
 549 253 l 2
 549 111 444 -7 312 -7 c 0
 180 -7 75 111 75 253 c 2
 75 667 l 1
EndSplineSet
EndChar
StartChar: V
Encoding: 54 86 54
Width: 575
VWidth: 1333
Flags: HW
HStem: 647 20G<16 59 516 560>
Fore
516 667 m 1
 560 667 l 1
 292 -8 l 1
 16 667 l 1
 59 667 l 1
 291 100 l 1
 516 667 l 1
EndSplineSet
EndChar
StartChar: W
Encoding: 55 87 55
Width: 878
VWidth: 1333
Flags: HW
HStem: 647 20G<11 51 825 868>
Fore
11 667 m 1
 51 667 l 1
 247 115 l 1
 439 675 l 1
 631 115 l 1
 825 667 l 1
 868 667 l 1
 631 -8 l 1
 440 549 l 1
 249 -8 l 1
 11 667 l 1
EndSplineSet
EndChar
StartChar: X
Encoding: 56 88 56
Width: 431
VWidth: 1333
Flags: HW
HStem: 0 21G<11 56 376 421> 647 20G<37 83 349 395>
VStem: 11 410<0 0>
Fore
37 667 m 1
 83 667 l 1
 216 404 l 1
 349 667 l 1
 395 667 l 1
 239 360 l 1
 421 0 l 1
 376 0 l 1
 216 315 l 1
 56 0 l 1
 11 0 l 1
 193 360 l 1
 37 667 l 1
EndSplineSet
EndChar
StartChar: Y
Encoding: 57 89 57
Width: 549
VWidth: 1333
Flags: HW
HStem: 0 21G<255 295> 647 20G<16 63 487 533>
VStem: 255 40<0 288>
Fore
16 667 m 1
 63 667 l 1
 275 331 l 1
 487 667 l 1
 533 667 l 1
 295 288 l 1
 295 0 l 1
 255 0 l 1
 255 288 l 1
 16 667 l 1
EndSplineSet
EndChar
StartChar: Z
Encoding: 58 90 58
Width: 530
VWidth: 1333
Flags: HW
HStem: 0 40<91 501> 627 40<60 431>
VStem: 16 499<0 40>
Fore
60 667 m 1
 505 667 l 1
 91 40 l 1
 515 40 l 1
 501 0 l 1
 16 0 l 1
 431 627 l 1
 47 627 l 1
 60 667 l 1
EndSplineSet
EndChar
StartChar: bracketleft
Encoding: 59 91 59
Width: 194
VWidth: 1333
Flags: HW
HStem: -140 40<115 195> 667 40<115 195>
VStem: 75 120<-140 -100 667 707> 75 40<-100 667>
Fore
115 667 m 1xd0
 115 -100 l 1xd0
 195 -100 l 1
 195 -140 l 1
 75 -140 l 1
 75 707 l 1
 195 707 l 1
 195 667 l 1xe0
 115 667 l 1xd0
EndSplineSet
EndChar
StartChar: backslash
Encoding: 60 92 60
Width: 522
VWidth: 1333
Flags: HW
HStem: 0 21G<473 523> 647 20G<0 49>
Fore
0 667 m 1
 49 667 l 1
 523 0 l 1
 473 0 l 1
 0 667 l 1
EndSplineSet
EndChar
StartChar: bracketright
Encoding: 61 93 61
Width: 194
VWidth: 1333
Flags: HW
HStem: -140 40<0 80> 667 40<0 80>
VStem: 0 120<-140 -100 667 707> 80 40<-100 667>
Fore
80 667 m 1xd0
 0 667 l 1
 0 707 l 1
 120 707 l 1
 120 -140 l 1
 0 -140 l 1
 0 -100 l 1xe0
 80 -100 l 1
 80 667 l 1xd0
EndSplineSet
EndChar
StartChar: asciicircum
Encoding: 62 94 62
Width: 535
VWidth: 1333
Flags: HW
HStem: 333 334<247 481>
VStem: 55 426<333 333>
Fore
247 667 m 1
 292 667 l 1
 481 333 l 1
 435 333 l 1
 269 625 l 1
 101 333 l 1
 55 333 l 1
 247 667 l 1
EndSplineSet
EndChar
StartChar: underscore
Encoding: 63 95 63
Width: 434
VWidth: 1333
Flags: HW
HStem: -40 40<0 435>
Fore
435 0 m 1
 435 -40 l 1
 0 -40 l 1
 0 0 l 1
 435 0 l 1
EndSplineSet
EndChar
StartChar: quoteleft
Encoding: 299 8216 64
Width: 234
VWidth: 1333
Flags: HW
HStem: 656 20G<125 159>
VStem: 56 46<547 613.3>
Fore
112 484 m 0
 86 484 56 504 56 547 c 0
 56 598 85 645 125 676 c 1
 159 676 l 1
 126 650 101 605 102 574 c 1
 105 574 108 575 112 575 c 0
 137 575 157 554 157 529 c 0
 157 505 137 484 112 484 c 0
EndSplineSet
EndChar
StartChar: a
Encoding: 65 97 65
Width: 474
VWidth: 1333
Flags: HW
HStem: -8 40<94.4 280.3> 231 29<233.9 360> 421 40<167.7 309.4>
VStem: 45 40<68.9 256.1> 360 40<14.175 95 145 231 260 389>
Fore
411 0 m 1
 368 0 l 1
 363 17 360 37 360 60 c 2
 360 95 l 1
 321 40 259 -8 188 -8 c 0
 87 -8 45 61 45 117 c 0
 45 258 235 260 348 260 c 0
 360 260 l 1
 357 363 289 421 221 421 c 0
 180 421 137 400 107 356 c 1
 75 377 l 1
 113 435 168 461 221 461 c 0
 311 461 397 389 400 260 c 2
 400 60 l 2
 400 33 404 13 411 0 c 1
188 32 m 0
 261 32 331 92 360 145 c 1
 360 231 l 1
 263 229 85 224 85 117 c 0
 85 80 116 32 188 32 c 0
EndSplineSet
EndChar
StartChar: b
Encoding: 66 98 66
Width: 543
VWidth: 1333
Flags: HW
HStem: -7 40<192 400> 420 40<192 400> 647 20G<75 115>
VStem: 75 40<14.175 667> 451 38<86.6 367.4>
Fore
107 0 m 1
 64 0 l 1
 71 13 75 33 75 60 c 2
 75 667 l 1
 115 667 l 1
 115 337 l 1
 137 401 213 460 283 460 c 0
 399 460 489 353 489 227 c 0
 489 100 399 -7 283 -7 c 0
 213 -7 137 56 115 116 c 1
 115 60 l 2
 115 37 112 17 107 0 c 1
115 227 m 0
 115 119 192 33 283 33 c 0
 373 33 451 119 451 227 c 0
 451 335 373 420 283 420 c 0
 192 420 115 335 115 227 c 0
EndSplineSet
EndChar
StartChar: c
Encoding: 67 99 67
Width: 491
VWidth: 1333
Flags: HW
HStem: -5 41<144 337.7> 420 41<144 337.7>
VStem: 55 38<88.6 369.4>
Fore
403 125 m 1
 437 105 l 1
 401 40 336 -5 261 -5 c 0
 145 -5 55 101 55 228 c 0
 55 355 145 461 261 461 c 0
 336 461 401 416 437 351 c 1
 403 331 l 1
 372 385 320 420 261 420 c 0
 171 420 93 337 93 229 c 0
 93 121 171 36 261 36 c 0
 320 36 372 71 403 125 c 1
EndSplineSet
EndChar
StartChar: d
Encoding: 68 100 68
Width: 543
VWidth: 1333
Flags: HW
HStem: -7 40<144 352> 420 40<144 352> 647 20G<429 469>
VStem: 55 38<86.6 367.4> 429 40<14.175 667>
Fore
480 0 m 1
 437 0 l 1
 432 17 429 37 429 60 c 2
 429 116 l 1
 407 56 331 -7 261 -7 c 0
 145 -7 55 100 55 227 c 0
 55 353 145 460 261 460 c 0
 331 460 407 401 429 337 c 1
 429 667 l 1
 469 667 l 1
 469 60 l 2
 469 33 473 13 480 0 c 1
429 227 m 0
 429 335 352 420 261 420 c 0
 171 420 93 335 93 227 c 0
 93 119 171 33 261 33 c 0
 352 33 429 119 429 227 c 0
EndSplineSet
EndChar
StartChar: e
Encoding: 69 101 69
Width: 526
VWidth: 1333
Flags: HW
HStem: -7 42<144 337.7> 227 38<99 428> 420 40<160.3 367>
VStem: 55 38<86.6 227>
Fore
99 265 m 1
 428 265 l 1
 412 355 343 420 263 420 c 0
 184 420 115 355 99 265 c 1
472 227 m 1
 93 227 l 1
 93 119 171 35 261 35 c 0
 320 35 385 69 416 124 c 1
 451 104 l 1
 415 39 336 -7 261 -7 c 0
 145 -7 55 100 55 227 c 0
 55 353 147 460 263 460 c 0
 373 460 461 364 471 247 c 2
 472 227 l 1
EndSplineSet
EndChar
StartChar: f
Encoding: 70 102 70
Width: 238
VWidth: 1333
Flags: HW
HStem: 0 21G<73 113> 413 40<35 73 113 225> 647 26<150.6 239>
VStem: 73 40<0 413 453 572>
Fore
73 0 m 1
 73 413 l 1
 35 413 l 1
 35 453 l 1
 73 453 l 1
 73 493 l 2
 73 592 147 673 239 673 c 1
 239 647 l 1
 171 647 113 572 113 493 c 2
 113 453 l 1
 239 453 l 1
 225 413 l 1
 113 413 l 1
 113 0 l 1
 73 0 l 1
EndSplineSet
EndChar
StartChar: g
Encoding: 71 103 71
Width: 543
VWidth: 1333
Flags: HW
HStem: -233 40<207.7 379.3> -7 40<140.7 352> 420 40<140.7 352>
VStem: 55 36<86.6 367.4> 429 40<-127 438.825>
Fore
437 453 m 1
 480 453 l 1
 473 440 469 420 469 393 c 2
 469 0 l 2
 469 -127 376 -233 260 -233 c 0
 207 -233 159 -211 123 -175 c 1
 152 -147 l 1
 181 -176 220 -193 261 -193 c 0
 352 -193 429 -108 429 0 c 2
 429 116 l 1
 407 52 331 -7 261 -7 c 0
 145 -7 55 100 55 227 c 0
 55 353 145 460 261 460 c 0
 331 460 407 397 429 337 c 1
 429 393 l 2
 429 416 432 436 437 453 c 1
427 227 m 0
 427 335 349 420 259 420 c 0
 168 420 91 335 91 227 c 0
 91 119 168 33 259 33 c 0
 349 33 427 119 427 227 c 0
EndSplineSet
EndChar
StartChar: h
Encoding: 72 104 72
Width: 479
VWidth: 1333
Flags: HW
HStem: 0 21G<75 115 365 405> 420 40<195.2 368.4> 647 20G<75 115>
VStem: 75 40<0 295 324 667> 365 40<0 356.7>
Fore
75 0 m 1
 75 667 l 1
 115 667 l 1
 115 324 l 1
 145 395 212 460 268 460 c 0
 363 460 405 376 405 280 c 2
 405 0 l 1
 365 0 l 1
 365 280 l 2
 365 339 345 420 267 420 c 0
 193 420 115 295 115 227 c 2
 115 0 l 1
 75 0 l 1
EndSplineSet
EndChar
StartChar: i
Encoding: 73 105 73
Width: 189
VWidth: 1333
Flags: HW
HStem: 0 21G<75 115> 433 20G<75 115> 524 72<69 121>
VStem: 59 72<534 586> 75 40<0 453>
Fore
59 560 m 0xf0
 59 580 75 596 95 596 c 0
 115 596 131 580 131 560 c 0
 131 540 115 524 95 524 c 0
 75 524 59 540 59 560 c 0xf0
115 0 m 1xe8
 75 0 l 1
 75 453 l 1
 115 453 l 1
 115 0 l 1xe8
EndSplineSet
EndChar
StartChar: j
Encoding: 74 106 74
Width: 186
VWidth: 1333
Flags: HW
HStem: -139 34<-13 49.4> 433 20G<75 115> 524 72<67 119>
VStem: 57 72<534 586> 75 40<-56 453>
Fore
75 453 m 1xe8
 115 453 l 1
 115 1 l 2
 115 -75 59 -139 -13 -139 c 1
 -13 -105 l 1
 35 -105 75 -56 75 1 c 2
 75 453 l 1xe8
57 560 m 0xf0
 57 580 73 596 93 596 c 0
 113 596 129 580 129 560 c 0
 129 540 113 524 93 524 c 0
 73 524 57 540 57 560 c 0xf0
EndSplineSet
EndChar
StartChar: k
Encoding: 75 107 75
Width: 425
VWidth: 1333
Flags: HW
HStem: 0 21G<75 115 373 425> 433 20G<316 376> 647 20G<75 115>
VStem: 75 40<0 217 271 667>
Fore
115 0 m 1
 75 0 l 1
 75 667 l 1
 115 667 l 1
 115 271 l 1
 316 453 l 1
 376 453 l 1
 185 280 l 1
 425 0 l 1
 373 0 l 1
 156 253 l 1
 115 217 l 1
 115 0 l 1
EndSplineSet
EndChar
StartChar: l
Encoding: 76 108 76
Width: 189
VWidth: 1333
Flags: HW
HStem: 0 21G<75 115> 647 20G<75 115>
VStem: 75 40<0 667>
Fore
115 0 m 1
 75 0 l 1
 75 667 l 1
 115 667 l 1
 115 0 l 1
EndSplineSet
EndChar
StartChar: m
Encoding: 77 109 77
Width: 713
VWidth: 1333
Flags: HW
HStem: 0 21G<75 115 336 376 599 639> 420 40<189.3 340 448 601.7>
VStem: 75 40<0 325.8 328 438.825> 336 40<0 317.3> 599 40<0 354.4>
Fore
64 453 m 1
 107 453 l 1
 112 436 115 416 115 393 c 2
 115 328 l 1
 143 396 204 460 253 460 c 0
 327 460 368 401 379 328 c 1
 407 397 463 459 513 459 c 0
 601 459 639 372 639 279 c 2
 639 0 l 1
 599 0 l 1
 599 279 l 2
 599 337 581 419 512 419 c 0
 449 419 376 296 376 225 c 2
 376 0 l 1
 336 0 l 1
 336 280 l 2
 336 339 319 420 249 420 c 0
 191 420 115 303 115 227 c 2
 115 0 l 1
 75 0 l 1
 75 393 l 2
 75 420 71 440 64 453 c 1
EndSplineSet
EndChar
StartChar: n
Encoding: 78 110 78
Width: 479
VWidth: 1333
Flags: HW
HStem: 0 21G<75 115 365 405> 420 40<195.2 368.4>
VStem: 75 40<0 315.4 325 438.825> 365 40<0 356.7>
Fore
64 453 m 1
 107 453 l 1
 112 436 115 416 115 393 c 2
 115 325 l 1
 147 397 212 460 268 460 c 0
 363 460 405 376 405 280 c 2
 405 0 l 1
 365 0 l 1
 365 280 l 2
 365 339 345 420 267 420 c 0
 193 420 115 295 115 227 c 2
 115 0 l 1
 75 0 l 1
 75 393 l 2
 75 420 71 440 64 453 c 1
EndSplineSet
EndChar
StartChar: o
Encoding: 79 111 79
Width: 573
VWidth: 1333
Flags: HW
HStem: -7 40<148.9 427.1> 420 40<148.9 427.1>
VStem: 55 40<87.9 364.8> 481 38<87.9 364.8>
Fore
287 460 m 0
 415 460 519 356 519 227 c 0
 519 97 415 -7 287 -7 c 0
 159 -7 55 97 55 227 c 0
 55 356 159 460 287 460 c 0
95 227 m 0
 95 120 181 33 288 33 c 0
 395 33 481 120 481 227 c 0
 481 333 395 420 288 420 c 0
 181 420 95 333 95 227 c 0
EndSplineSet
EndChar
StartChar: p
Encoding: 80 112 80
Width: 543
VWidth: 1333
Flags: HW
HStem: -200 21G<75 115> -7 40<192 400> 420 40<192 400>
VStem: 75 40<-200 438.825> 451 38<86.6 367.4>
Fore
64 453 m 1
 107 453 l 1
 112 436 115 416 115 393 c 2
 115 337 l 1
 137 397 213 460 283 460 c 0
 399 460 489 353 489 227 c 0
 489 100 399 -7 283 -7 c 0
 213 -7 137 52 115 116 c 1
 115 -200 l 1
 75 -200 l 1
 75 393 l 2
 75 420 71 440 64 453 c 1
115 227 m 0
 115 119 192 33 283 33 c 0
 373 33 451 119 451 227 c 0
 451 335 373 420 283 420 c 0
 192 420 115 335 115 227 c 0
EndSplineSet
EndChar
StartChar: q
Encoding: 81 113 81
Width: 543
VWidth: 1333
Flags: HW
HStem: -200 21G<429 469> -7 40<144 352> 420 40<144 352>
VStem: 55 38<86.6 367.4> 429 40<-200 438.825>
Fore
437 453 m 1
 480 453 l 1
 473 440 469 420 469 393 c 2
 469 -200 l 1
 429 -200 l 1
 429 116 l 1
 407 52 331 -7 261 -7 c 0
 145 -7 55 100 55 227 c 0
 55 353 145 460 261 460 c 0
 331 460 407 397 429 337 c 1
 429 393 l 2
 429 416 432 436 437 453 c 1
429 227 m 0
 429 335 352 420 261 420 c 0
 171 420 93 335 93 227 c 0
 93 119 171 33 261 33 c 0
 352 33 429 119 429 227 c 0
EndSplineSet
EndChar
StartChar: r
Encoding: 82 114 82
Width: 290
VWidth: 1333
Flags: HW
HStem: 0 21G<75 115> 433 20G<64 107>
VStem: 75 40<0 363 391.071 438.825>
Fore
64 453 m 1
 107 453 l 1
 112 436 115 416 115 393 c 2
 115 337 l 1
 129 384 189 441 239 460 c 1
 283 428 l 1
 203 428 115 333 115 233 c 2
 115 0 l 1
 75 0 l 1
 75 393 l 2
 75 420 71 440 64 453 c 1
EndSplineSet
EndChar
StartChar: s
Encoding: 83 115 83
Width: 399
VWidth: 1333
Flags: HW
HStem: -8 40<136.6 267.9> 422 39<151.9 241.6>
VStem: 55 40<35.6116 129.94> 88 41<227.2 410.5> 305 40<52.7 286.7>
Fore
317 373 m 1xd8
 280 360 l 1
 266 402 232 422 200 422 c 0
 163 422 129 397 129 352 c 0xd8
 129 256 345 283 345 132 c 0
 345 45 272 -8 198 -8 c 0
 133 -8 67 34 55 129 c 1
 95 135 l 1xe8
 104 63 151 32 199 32 c 0
 252 32 305 71 305 132 c 0
 305 251 88 219 88 352 c 0
 88 422 143 461 200 461 c 0
 247 461 297 433 317 373 c 1xd8
EndSplineSet
EndChar
StartChar: t
Encoding: 84 116 84
Width: 247
VWidth: 1333
Flags: HW
HStem: 0 21G<75 115> 413 40<35 75 115 227>
VStem: 75 40<0 413 453 560>
Fore
115 0 m 1
 75 0 l 1
 75 413 l 1
 35 413 l 1
 35 453 l 1
 75 453 l 1
 75 560 l 1
 115 560 l 1
 115 453 l 1
 240 453 l 1
 227 413 l 1
 115 413 l 1
 115 0 l 1
EndSplineSet
EndChar
StartChar: u
Encoding: 85 117 85
Width: 477
VWidth: 1333
Flags: HW
HStem: -7 40<148.6 325.4> 433 20G<75 115 363 403>
VStem: 75 40<95 453> 363 40<71.6 453>
Fore
75 453 m 1
 115 453 l 1
 115 173 l 2
 115 95 169 33 237 33 c 0
 305 33 363 95 363 173 c 2
 363 453 l 1
 403 453 l 1
 403 173 l 2
 403 75 331 -7 239 -7 c 0
 147 -7 75 75 75 173 c 2
 75 453 l 1
EndSplineSet
EndChar
StartChar: v
Encoding: 86 118 86
Width: 423
VWidth: 1333
Flags: HW
HStem: -13 466<16 213>
VStem: 16 392<453 453>
Fore
16 453 m 1
 59 453 l 1
 212 91 l 1
 364 453 l 1
 408 453 l 1
 213 -13 l 1
 16 453 l 1
EndSplineSet
EndChar
StartChar: w
Encoding: 87 119 87
Width: 715
VWidth: 1333
Flags: HW
HStem: -13 480<360 512>
Fore
16 453 m 1
 60 453 l 1
 208 93 l 1
 360 467 l 1
 512 93 l 1
 657 453 l 1
 700 453 l 1
 512 -13 l 1
 359 360 l 1
 207 -13 l 1
 16 453 l 1
EndSplineSet
EndChar
StartChar: x
Encoding: 88 120 88
Width: 405
VWidth: 1333
Flags: HW
HStem: 0 21G<16 63 343 389> 433 20G<35 79 324 371>
VStem: 16 373<0 0>
Fore
35 453 m 1
 79 453 l 1
 201 275 l 1
 324 453 l 1
 371 453 l 1
 225 240 l 1
 389 0 l 1
 343 0 l 1
 203 205 l 1
 63 0 l 1
 16 0 l 1
 180 240 l 1
 35 453 l 1
EndSplineSet
EndChar
StartChar: y
Encoding: 89 121 89
Width: 423
VWidth: 1333
Flags: HW
HStem: 433 20G<16 57 365 408>
VStem: 16 392<453 453>
Fore
16 453 m 1
 57 453 l 1
 213 53 l 1
 365 453 l 1
 408 453 l 1
 148 -233 l 1
 105 -233 l 1
 193 -1 l 1
 16 453 l 1
EndSplineSet
EndChar
StartChar: z
Encoding: 90 122 90
Width: 397
VWidth: 1333
Flags: HW
HStem: 0 40<92 367> 413 40<71 307>
VStem: 16 365<0 453>
Fore
71 453 m 1
 381 453 l 1
 92 40 l 1
 380 40 l 1
 367 0 l 1
 16 0 l 1
 307 413 l 1
 57 413 l 1
 71 453 l 1
EndSplineSet
EndChar
StartChar: braceleft
Encoding: 91 123 91
Width: 255
VWidth: 1333
Flags: HW
HStem: -139 27<170.5 229> 673 27<170.5 229>
VStem: 115 40<-65 236.4 345 651>
Fore
155 547 m 2
 155 415 l 2
 155 344 137 311 103 281 c 1
 132 257 155 225 155 148 c 2
 155 15 l 2
 155 -65 183 -112 229 -112 c 1
 229 -139 l 1
 184 -139 115 -116 115 15 c 2
 115 148 l 2
 115 216 96 237 56 264 c 1
 56 297 l 1
 96 324 115 345 115 413 c 2
 115 547 l 2
 115 677 184 700 229 700 c 1
 229 673 l 1
 183 673 155 627 155 547 c 2
EndSplineSet
EndChar
StartChar: bar
Encoding: 92 124 92
Width: 189
VWidth: 1333
Flags: HW
VStem: 75 40<-67 733>
Fore
115 -67 m 1
 75 -67 l 1
 75 733 l 1
 115 733 l 1
 115 -67 l 1
EndSplineSet
EndChar
StartChar: braceright
Encoding: 93 125 93
Width: 257
VWidth: 1333
Flags: HW
HStem: -140 27<27 85.5> 673 26<27 85.5>
VStem: 101 42<-67 235.4 344 651>
Fore
27 673 m 1
 27 699 l 1
 72 699 143 676 143 545 c 2
 143 412 l 2
 143 344 161 323 201 296 c 1
 201 263 l 1
 161 236 143 215 143 147 c 2
 143 13 l 2
 143 -117 72 -140 27 -140 c 1
 27 -113 l 1
 73 -113 103 -67 103 13 c 2
 103 147 l 2
 103 224 125 256 155 280 c 1
 120 309 101 343 101 413 c 2
 101 547 l 2
 101 627 73 673 27 673 c 1
EndSplineSet
EndChar
StartChar: asciitilde
Encoding: 94 126 94
Width: 473
VWidth: 1333
Flags: HW
HStem: 169 42<261 366.501> 229 42<109.1 218.3>
VStem: 55 26<173 235.4> 392 27<202 267>
Fore
392 267 m 1
 419 267 l 1
 419 196 383 169 339 169 c 0
 271 169 200 229 139 229 c 0
 116 229 81 221 81 173 c 1
 55 173 l 1
 55 247 96 271 139 271 c 0
 215 271 279 211 339 211 c 0
 359 211 392 217 392 267 c 1
EndSplineSet
EndChar
StartChar: exclamdown
Encoding: 96 161 95
Width: 255
VWidth: 1333
Flags: HW
HStem: 385 75<102 154>
VStem: 91 74<397 449> 101 54<-213 -96> 115 26<216 333>
Fore
115 333 m 1x90
 141 333 l 1x90
 155 -213 l 1
 101 -213 l 1xa0
 115 333 l 1x90
91 423 m 0xc0
 91 443 108 460 128 460 c 0
 148 460 165 443 165 423 c 0
 165 403 148 385 128 385 c 0
 108 385 91 403 91 423 c 0xc0
EndSplineSet
EndChar
StartChar: cent
Encoding: 97 162 96
Width: 494
VWidth: 1333
Flags: HW
VStem: 55 40<96.7 359.3> 243 40<-107 -5 36 419 460 560>
Fore
243 560 m 1
 283 560 l 1
 283 460 l 1
 349 453 407 411 440 351 c 1
 405 331 l 1
 379 379 335 412 284 419 c 1
 284 35 l 1
 335 41 379 75 405 123 c 1
 440 103 l 1
 407 44 349 1 283 -5 c 1
 283 -107 l 1
 243 -107 l 1
 243 -5 l 1
 136 5 55 107 55 227 c 0
 55 347 136 448 243 459 c 1
 243 560 l 1
243 36 m 1
 243 420 l 1
 161 409 95 329 95 228 c 0
 95 127 161 47 243 36 c 1
EndSplineSet
EndChar
StartChar: sterling
Encoding: 98 163 97
Width: 462
VWidth: 1333
Flags: HW
HStem: 0 40<104 417> 313 40<51 153 196 323> 636 39<210.8 351.2>
VStem: 135 38<469.11 618.9> 159 38<161.2 321.831> 399 26<532 625.21>
Fore
323 313 m 1xf4
 196 313 l 1
 197 300 197 287 197 273 c 0
 197 187 177 105 104 40 c 1
 431 40 l 1
 417 0 l 1
 43 0 l 1
 32 37 l 1
 135 96 159 179 159 271 c 0xec
 159 284 159 297 157 311 c 1
 37 311 l 1
 51 351 l 1
 153 351 l 1
 147 416 135 479 135 536 c 0
 135 623 208 675 281 675 c 0
 347 675 412 632 425 537 c 1
 399 532 l 1
 389 603 335 636 281 636 c 0
 227 636 173 600 173 537 c 0
 173 485 185 420 192 353 c 1
 336 353 l 1
 323 313 l 1xf4
EndSplineSet
EndChar
StartChar: fraction
Encoding: 312 8260 98
Width: 526
VWidth: 1333
Flags: HW
HStem: 0 21G<1 51> 647 20G<475 524>
Fore
475 667 m 1
 524 667 l 1
 51 0 l 1
 1 0 l 1
 475 667 l 1
EndSplineSet
EndChar
StartChar: yen
Encoding: 100 165 99
Width: 549
VWidth: 1333
Flags: HW
HStem: 0 21G<255 295> 179 42<93 255 295 452> 288 43<95 228 321 456> 647 20G<16 63 487 533>
VStem: 255 40<0 179 221 288>
Fore
452 221 m 1
 452 179 l 1
 295 179 l 1
 295 0 l 1
 255 0 l 1
 255 179 l 1
 93 179 l 1
 93 221 l 1
 255 221 l 1
 255 288 l 1
 95 288 l 1
 95 331 l 1
 228 331 l 1
 16 667 l 1
 63 667 l 1
 275 331 l 1
 487 667 l 1
 533 667 l 1
 321 331 l 1
 456 331 l 1
 456 288 l 1
 295 288 l 1
 295 221 l 1
 452 221 l 1
EndSplineSet
EndChar
StartChar: florin
Encoding: 200 402 100
Width: 362
VWidth: 1333
Flags: HW
HStem: -73 26<-33 60.6> 351 40<99 169 219 381> 647 26<299.4 393>
VStem: -33 429<-73 391>
Fore
396 391 m 1
 381 351 l 1
 211 351 l 1
 153 63 l 2
 136 -35 56 -73 -33 -73 c 1
 -33 -47 l 1
 39 -47 100 -5 113 71 c 2
 169 351 l 1
 85 351 l 1
 99 391 l 1
 177 391 l 1
 207 537 l 2
 225 635 304 673 393 673 c 1
 393 647 l 1
 321 647 260 605 247 529 c 2
 219 391 l 1
 396 391 l 1
EndSplineSet
EndChar
StartChar: section
Encoding: 102 167 101
Width: 401
VWidth: 1333
Flags: HW
HStem: -60 40<136.6 269.2> 633 40<131.5 265.4>
VStem: 55 40<48.2 77 230.2 396.9 472.6 614.3> 305 42<-1.6 142.4 227.2 381.9 537 563.743>
Fore
55 77 m 1
 95 77 l 1
 104 5 151 -20 199 -20 c 0
 253 -20 305 17 305 79 c 0
 305 205 55 165 55 328 c 0
 55 381 81 415 107 435 c 1
 76 456 55 487 55 535 c 0
 55 619 125 673 201 673 c 0
 267 673 333 633 347 537 c 1
 305 537 l 1
 296 605 251 633 203 633 c 0
 148 633 96 596 96 535 c 0
 96 408 347 449 347 287 c 0
 347 241 325 204 295 180 c 1
 325 159 347 128 347 80 c 0
 347 -4 276 -60 200 -60 c 0
 135 -60 68 -19 55 77 c 1
307 287 m 0
 307 360 216 379 144 412 c 1
 123 400 95 375 95 329 c 0
 95 253 184 237 256 203 c 1
 277 215 307 240 307 287 c 0
EndSplineSet
EndChar
StartChar: currency
Encoding: 99 164 102
Width: 582
VWidth: 1333
Flags: HW
HStem: 148 41<233.2 352.8> 493 40<231.2 350.8>
VStem: 100 40<281.5 401.1> 444 41<282.5 398.2>
Fore
516 532 m 1
 445 460 l 1
 471 427 485 385 485 341 c 0
 485 296 469 253 443 220 c 1
 519 143 l 1
 491 115 l 1
 415 191 l 1
 381 164 339 148 293 148 c 0
 247 148 204 164 171 191 c 1
 92 113 l 1
 64 141 l 1
 143 219 l 1
 116 252 100 295 100 340 c 0
 100 387 116 429 143 463 c 1
 73 532 l 1
 101 560 l 1
 171 491 l 1
 204 517 245 533 291 533 c 0
 337 533 380 516 413 488 c 1
 488 560 l 1
 516 532 l 1
140 341 m 0
 140 257 208 189 292 189 c 0
 376 189 444 257 444 341 c 0
 444 425 376 493 292 493 c 0
 208 493 140 425 140 341 c 0
EndSplineSet
EndChar
StartChar: quotesingle
Encoding: 7 39 103
Width: 202
VWidth: 1333
Flags: HW
Fore
115 520 m 1
 88 520 l 1
 75 693 l 1
 128 693 l 1
 115 520 l 1
EndSplineSet
EndChar
StartChar: quotedblleft
Encoding: 302 8220 104
Width: 330
VWidth: 1333
Flags: HW
HStem: 484 91<99.1828 144.5 219.183 264.5> 656 20G<125 159 245 279>
VStem: 56 46<547 613.3> 176 46<547 613.3>
Fore
112 484 m 0
 86 484 56 504 56 547 c 0
 56 598 85 645 125 676 c 1
 159 676 l 1
 126 650 101 605 102 574 c 1
 105 574 108 575 112 575 c 0
 137 575 157 554 157 529 c 0
 157 505 137 484 112 484 c 0
232 484 m 0
 206 484 176 504 176 547 c 0
 176 598 205 645 245 676 c 1
 279 676 l 1
 246 650 221 605 222 574 c 1
 225 574 228 575 232 575 c 0
 257 575 277 554 277 529 c 0
 277 505 257 484 232 484 c 0
EndSplineSet
EndChar
StartChar: guillemotleft
Encoding: 106 171 105
Width: 391
VWidth: 1333
Flags: HW
HStem: 67 320<316 365>
VStem: 55 310<227 387>
Fore
316 387 m 1
 365 387 l 1
 251 227 l 1
 365 67 l 1
 316 67 l 1
 201 227 l 1
 316 387 l 1
169 387 m 1
 219 387 l 1
 104 227 l 1
 219 67 l 1
 169 67 l 1
 55 227 l 1
 169 387 l 1
EndSplineSet
EndChar
StartChar: guilsinglleft
Encoding: 310 8249 106
Width: 211
VWidth: 1333
Flags: HW
HStem: 67 320<131 180>
VStem: 16 164<227 387>
Fore
131 387 m 1
 180 387 l 1
 65 227 l 1
 180 67 l 1
 131 67 l 1
 16 227 l 1
 131 387 l 1
EndSplineSet
EndChar
StartChar: guilsinglright
Encoding: 311 8250 107
Width: 211
VWidth: 1333
Flags: HW
HStem: 67 320<32 81>
VStem: 32 164<227 387>
Fore
32 387 m 1
 81 387 l 1
 196 227 l 1
 81 67 l 1
 32 67 l 1
 147 227 l 1
 32 387 l 1
EndSplineSet
EndChar
StartChar: endash
Encoding: 297 8211 108
Width: 237
VWidth: 1333
Flags: HW
HStem: 199 56<0 237>
Fore
237 255 m 1
 237 199 l 1
 0 199 l 1
 0 255 l 1
 237 255 l 1
EndSplineSet
EndChar
StartChar: dagger
Encoding: 305 8224 109
Width: 522
VWidth: 1333
Flags: HW
HStem: 420 40<64 142.857 380.143 459> 427 26<169.143 248 275 353.857> 647 20G<241 281>
VStem: 241 40<-128 109.857 575.286 667> 248 27<189.143 427 453 544.714>
Fore
281 -128 m 1x70
 241 -128 l 1x70
 248 427 l 1x68
 64 420 l 1
 64 460 l 1xa8
 248 453 l 1x68
 241 667 l 1
 281 667 l 1x70
 275 453 l 1x68
 459 460 l 1
 459 420 l 1xa8
 275 427 l 1x68
 281 -128 l 1x70
EndSplineSet
EndChar
StartChar: daggerdbl
Encoding: 306 8225 110
Width: 522
VWidth: 1333
Flags: HW
HStem: 117 40<64 142.857 380.143 459> 124 27<169.143 248 275 353.857> 383 40<64 142.857 380.143 459> 389 27<169.143 248 275 353.857> 647 20G<241 281>
VStem: 241 40<-128 -20 559.429 667> 248 27<16 124 151 389 416 523.571>
Fore
281 -128 m 1x4c
 241 -128 l 1x4c
 248 124 l 1x4a
 64 117 l 1
 64 157 l 1x8a
 248 151 l 1
 248 389 l 1x5a
 64 383 l 1
 64 423 l 1x2a
 248 416 l 1x1a
 241 667 l 1
 281 667 l 1x1c
 275 416 l 1x1a
 459 423 l 1
 459 383 l 1x2a
 275 389 l 1
 275 151 l 1x5a
 459 157 l 1
 459 117 l 1x8a
 275 124 l 1x4a
 281 -128 l 1x4c
EndSplineSet
EndChar
StartChar: periodcentered
Encoding: 118 183 111
Width: 223
VWidth: 1333
Flags: HW
HStem: 296 75<86 138>
VStem: 75 74<307 359>
Fore
75 333 m 0
 75 353 92 371 112 371 c 0
 132 371 149 353 149 333 c 0
 149 313 132 296 112 296 c 0
 92 296 75 313 75 333 c 0
EndSplineSet
EndChar
StartChar: paragraph
Encoding: 117 182 112
Width: 563
VWidth: 1333
Flags: HW
HStem: 627 40<383 449>
VStem: 343 40<-111 200> 449 40<-111 627>
Fore
383 -111 m 1
 343 -111 l 1
 343 200 l 1
 333 200 l 2
 149 200 55 316 55 433 c 0
 55 551 149 667 333 667 c 2
 489 667 l 1
 489 -111 l 1
 449 -111 l 1
 449 627 l 1
 383 627 l 1
 383 -111 l 1
EndSplineSet
EndChar
StartChar: bullet
Encoding: 307 8226 113
Width: 442
VWidth: 1333
Flags: HW
Fore
64 267 m 0
 64 355 135 427 221 427 c 0
 308 427 379 355 379 267 c 0
 379 179 308 107 221 107 c 0
 135 107 64 179 64 267 c 0
EndSplineSet
EndChar
StartChar: quotesinglbase
Encoding: 301 8218 114
Width: 234
VWidth: 1333
Flags: HW
VStem: 140 45<-53.3 13>
Fore
129 76 m 0
 155 76 185 56 185 13 c 0
 185 -38 156 -85 117 -116 c 1
 83 -116 l 1
 115 -90 140 -45 140 -14 c 1
 137 -14 133 -15 129 -15 c 0
 105 -15 84 6 84 31 c 0
 84 55 105 76 129 76 c 0
EndSplineSet
EndChar
StartChar: quotedblbase
Encoding: 304 8222 115
Width: 330
VWidth: 1333
Flags: HW
HStem: -7 91<70.5 115.816 190.5 235.816>
VStem: 113 46<-45.3 21> 233 46<-45.3 21>
Fore
223 84 m 0
 248 84 279 64 279 21 c 0
 279 -30 249 -77 210 -108 c 1
 176 -108 l 1
 208 -82 233 -37 233 -6 c 1
 230 -6 226 -7 223 -7 c 0
 198 -7 177 14 177 39 c 0
 177 63 198 84 223 84 c 0
103 84 m 0
 128 84 159 64 159 21 c 0
 159 -30 129 -77 90 -108 c 1
 56 -108 l 1
 88 -82 113 -37 113 -6 c 1
 110 -6 106 -7 103 -7 c 0
 78 -7 57 14 57 39 c 0
 57 63 78 84 103 84 c 0
EndSplineSet
EndChar
StartChar: quotedblright
Encoding: 303 8221 116
Width: 330
VWidth: 1333
Flags: HW
HStem: 583 90<70.5 115.816 190.5 235.816>
VStem: 113 46<544.7 611> 233 46<544.7 611>
Fore
223 673 m 0
 248 673 279 654 279 611 c 0
 279 560 249 512 210 481 c 1
 176 481 l 1
 208 507 233 553 233 584 c 1
 230 583 226 583 223 583 c 0
 198 583 177 603 177 628 c 0
 177 653 198 673 223 673 c 0
103 673 m 0
 128 673 159 654 159 611 c 0
 159 560 129 512 90 481 c 1
 56 481 l 1
 88 507 113 553 113 584 c 1
 110 583 106 583 103 583 c 0
 78 583 57 603 57 628 c 0
 57 653 78 673 103 673 c 0
EndSplineSet
EndChar
StartChar: guillemotright
Encoding: 122 187 117
Width: 391
VWidth: 1333
Flags: HW
HStem: 67 320<55 104>
VStem: 55 310<227 387>
Fore
55 387 m 1
 104 387 l 1
 219 227 l 1
 104 67 l 1
 55 67 l 1
 169 227 l 1
 55 387 l 1
201 387 m 1
 251 387 l 1
 365 227 l 1
 251 67 l 1
 201 67 l 1
 316 227 l 1
 201 387 l 1
EndSplineSet
EndChar
StartChar: ellipsis
Encoding: 308 8230 118
Width: 789
VWidth: 1333
Flags: HW
HStem: -7 75<102 154 370 422 635 687>
VStem: 91 74<5 57> 359 74<5 57> 624 75<5 57>
Fore
91 31 m 0
 91 51 108 68 128 68 c 0
 148 68 165 51 165 31 c 0
 165 11 148 -7 128 -7 c 0
 108 -7 91 11 91 31 c 0
624 31 m 0
 624 51 641 68 661 68 c 0
 681 68 699 51 699 31 c 0
 699 11 681 -7 661 -7 c 0
 641 -7 624 11 624 31 c 0
359 31 m 0
 359 51 376 68 396 68 c 0
 416 68 433 51 433 31 c 0
 433 11 416 -7 396 -7 c 0
 376 -7 359 11 359 31 c 0
EndSplineSet
EndChar
StartChar: perthousand
Encoding: 309 8240 119
Width: 989
VWidth: 1333
Flags: HW
HStem: -8 41<428 559.3 760.7 892> 212 41<428 559.3 760.7 892> 409 42<96.7 228> 629 42<96.7 228>
VStem: 32 40<476.3 603.7> 253 40<476.3 603.7> 363 40<58 186.7> 584 40<58 186.7> 696 40<57.3 186> 917 40<57.3 186>
Fore
493 253 m 0
 565 253 624 195 624 123 c 0
 624 51 565 -8 493 -8 c 0
 421 -8 363 51 363 123 c 0
 363 195 421 253 493 253 c 0
403 123 m 0
 403 73 443 33 493 33 c 0
 544 33 584 73 584 123 c 0
 584 172 544 212 493 212 c 0
 443 212 403 172 403 123 c 0
827 252 m 0
 899 252 957 193 957 121 c 0
 957 49 899 -9 827 -9 c 0
 755 -9 696 49 696 121 c 0
 696 193 755 252 827 252 c 0
736 121 m 0
 736 72 776 32 827 32 c 0
 877 32 917 72 917 121 c 0
 917 171 877 211 827 211 c 0
 776 211 736 171 736 121 c 0
163 671 m 0
 235 671 293 612 293 540 c 0
 293 468 235 409 163 409 c 0
 91 409 32 468 32 540 c 0
 32 612 91 671 163 671 c 0
72 540 m 0
 72 491 112 451 163 451 c 0
 213 451 253 491 253 540 c 0
 253 589 213 629 163 629 c 0
 112 629 72 589 72 540 c 0
540 663 m 1
 589 663 l 1
 116 -4 l 1
 67 -4 l 1
 540 663 l 1
EndSplineSet
EndChar
StartChar: questiondown
Encoding: 126 191 120
Width: 463
VWidth: 1333
Flags: HW
HStem: -220 40<129.4 333.5> 385 75<219 271>
VStem: 55 40<-150.8 66.3> 208 75<397 449> 369 40<-131.3 -52>
Fore
283 423 m 0
 283 403 265 385 245 385 c 0
 225 385 208 403 208 423 c 0
 208 443 225 460 245 460 c 0
 265 460 283 443 283 423 c 0
224 316 m 1
 264 316 l 1
 264 249 l 2
 264 93 95 39 95 -52 c 0
 95 -128 151 -180 223 -180 c 0
 308 -180 369 -113 369 -52 c 1
 409 -52 l 1
 409 -140 327 -220 223 -220 c 0
 127 -220 55 -149 55 -52 c 0
 55 64 224 112 224 249 c 2
 224 316 l 1
EndSplineSet
EndChar
StartChar: grave
Encoding: 64 96 121
Width: 190
VWidth: 1333
Flags: HW
HStem: 549 131<32 127>
VStem: 32 95<549 680>
Fore
127 549 m 1
 96 549 l 1
 32 680 l 1
 83 680 l 1
 127 549 l 1
EndSplineSet
EndChar
StartChar: acute
Encoding: 115 180 122
Width: 282
VWidth: 1333
Flags: HW
HStem: 533 160<139 192>
VStem: 91 176<533 693>
Fore
192 693 m 1
 267 693 l 1
 139 533 l 1
 91 533 l 1
 192 693 l 1
EndSplineSet
EndChar
StartChar: circumflex
Encoding: 201 710 123
Width: 309
VWidth: 1333
Flags: HW
HStem: 653 119<140 277>
VStem: 32 245<653 653>
Fore
140 772 m 1
 169 772 l 1
 277 653 l 1
 223 653 l 1
 155 727 l 1
 87 653 l 1
 32 653 l 1
 140 772 l 1
EndSplineSet
EndChar
StartChar: tilde
Encoding: 206 732 124
Width: 290
VWidth: 1333
Flags: HW
HStem: 583 41<188.136 218.444> 632 39<73.6641 107.83>
VStem: 32 27<591 623.987> 233 26<630.891 665>
Fore
233 665 m 1
 259 665 l 1
 259 651 257 635 255 624 c 0
 244 583 216 583 205 583 c 0
 180 583 152 600 137 611 c 0
 116 625 100 632 89 632 c 0
 79 632 60 625 59 591 c 1
 32 591 l 1
 32 603 32 613 36 628 c 0
 45 660 68 671 89 671 c 0
 117 671 147 652 159 644 c 0
 180 631 196 624 205 624 c 0
 215 624 233 633 233 665 c 1
EndSplineSet
EndChar
StartChar: macron
Encoding: 110 175 125
Width: 383
VWidth: 1333
Flags: HW
HStem: 540 40<55 329>
Fore
329 580 m 1
 329 540 l 1
 55 540 l 1
 55 580 l 1
 329 580 l 1
EndSplineSet
EndChar
StartChar: dotaccent
Encoding: 203 729 126
Width: 255
VWidth: 1333
Flags: HW
HStem: 553 75<102 154>
VStem: 91 74<565 617>
Fore
91 591 m 0
 91 611 108 628 128 628 c 0
 148 628 165 611 165 591 c 0
 165 571 148 553 128 553 c 0
 108 553 91 571 91 591 c 0
EndSplineSet
EndChar
StartChar: dieresis
Encoding: 103 168 127
Width: 343
VWidth: 1333
Flags: HW
HStem: 540 75<66 118 226 278>
VStem: 55 74<551 603> 215 74<551 603>
Fore
55 577 m 0
 55 597 72 615 92 615 c 0
 112 615 129 597 129 577 c 0
 129 557 112 540 92 540 c 0
 72 540 55 557 55 577 c 0
215 577 m 0
 215 597 232 615 252 615 c 0
 272 615 289 597 289 577 c 0
 289 557 272 540 252 540 c 0
 232 540 215 557 215 577 c 0
EndSplineSet
EndChar
StartChar: ring
Encoding: 204 730 128
Width: 255
VWidth: 1333
Flags: HW
HStem: 501 40<87.7 168.3> 653 40<87.7 168.3>
VStem: 32 40<558 637.3> 184 40<558 637.3>
Fore
128 693 m 0
 181 693 224 651 224 597 c 0
 224 544 181 501 128 501 c 0
 75 501 32 544 32 597 c 0
 32 651 75 693 128 693 c 0
72 597 m 0
 72 567 97 541 128 541 c 0
 159 541 184 567 184 597 c 0
 184 628 159 653 128 653 c 0
 97 653 72 628 72 597 c 0
EndSplineSet
EndChar
StartChar: cedilla
Encoding: 119 184 129
Width: 279
VWidth: 1333
Flags: HW
HStem: -179 40<104.782 168.1> -20 20G<141 179>
VStem: 176 40<-129.8 -90.8>
Fore
141 0 m 1
 179 0 l 1
 155 -43 l 1
 216 -53 216 -95 216 -109 c 0
 216 -151 180 -179 133 -179 c 0
 111 -179 87 -172 64 -157 c 1
 85 -124 l 1
 101 -135 119 -139 133 -139 c 0
 160 -139 176 -125 176 -109 c 0
 176 -91 152 -81 128 -77 c 2
 99 -73 l 1
 141 0 l 1
EndSplineSet
EndChar
StartChar: hungarumlaut
Encoding: 207 733 130
Width: 455
VWidth: 1333
Flags: HW
HStem: 533 160<139 192>
VStem: 91 349<533 693>
Fore
192 693 m 1
 267 693 l 1
 139 533 l 1
 91 533 l 1
 192 693 l 1
365 693 m 1
 440 693 l 1
 312 533 l 1
 264 533 l 1
 365 693 l 1
EndSplineSet
EndChar
StartChar: ogonek
Encoding: 205 731 131
Width: 270
VWidth: 1333
Flags: HW
HStem: -175 34<120.5 171.834> -20 20G<117 160>
VStem: 64 41<-132.5 -64.9>
Fore
187 -129 m 1
 207 -153 l 1
 185 -168 163 -175 141 -175 c 0
 99 -175 64 -145 64 -101 c 0
 64 -64 91 -28 117 0 c 1
 160 0 l 1
 117 -44 105 -73 105 -100 c 0
 105 -125 128 -141 153 -141 c 0
 164 -141 176 -137 187 -129 c 1
EndSplineSet
EndChar
StartChar: caron
Encoding: 202 711 132
Width: 309
VWidth: 1333
Flags: HW
HStem: 653 119<32 169>
VStem: 32 245<772 772>
Fore
169 653 m 1
 140 653 l 1
 32 772 l 1
 87 772 l 1
 155 699 l 1
 223 772 l 1
 277 772 l 1
 169 653 l 1
EndSplineSet
EndChar
StartChar: emdash
Encoding: 298 8212 133
Width: 503
VWidth: 1333
Flags: HW
HStem: 199 56<0 504>
Fore
504 255 m 1
 504 199 l 1
 0 199 l 1
 0 255 l 1
 504 255 l 1
EndSplineSet
EndChar
StartChar: AE
Encoding: 133 198 134
Width: 689
VWidth: 1333
Flags: HW
HStem: 0 40<468 673> 207 40<161 389> 367 40<408 636> 627 40<319 320 360 663>
Fore
636 407 m 1
 636 367 l 1
 408 367 l 1
 468 40 l 1
 673 40 l 1
 673 0 l 1
 435 0 l 1
 396 207 l 1
 144 207 l 1
 59 0 l 1
 16 0 l 1
 292 667 l 1
 663 667 l 1
 663 627 l 1
 360 627 l 1
 400 407 l 1
 636 407 l 1
161 247 m 1
 389 247 l 1
 320 627 l 1
 319 627 l 1
 161 247 l 1
EndSplineSet
EndChar
StartChar: ordfeminine
Encoding: 105 170 135
Width: 390
VWidth: 1333
Flags: HW
HStem: 277 35<113.5 243.5> 461 28<123.5 244.815> 576 33<136.8 256.4>
VStem: 55 34<322.6 461.7> 288 37<381.95 447>
Fore
288 419 m 2
 288 447 l 1
 263 455 228 461 195 461 c 0
 140 461 89 444 89 385 c 0
 89 337 127 312 172 312 c 0
 239 312 284 381 288 419 c 2
95 520 m 1
 67 536 l 1
 92 579 135 609 184 609 c 0
 261 609 325 553 325 461 c 2
 325 367 l 2
 325 359 328 317 336 285 c 1
 300 277 l 1
 295 297 291 325 289 356 c 1
 267 316 227 277 172 277 c 0
 105 277 55 320 55 385 c 0
 55 463 121 489 191 489 c 0
 225 489 260 483 288 472 c 1
 284 537 239 576 181 576 c 0
 147 576 115 555 95 520 c 1
EndSplineSet
EndChar
StartChar: Lslash
Encoding: 191 321 136
Width: 483
VWidth: 1333
Flags: HW
HStem: 0 40<104 452> 647 20G<64 104>
VStem: 64 40<40 227 316 667>
Fore
452 0 m 1
 64 0 l 1
 64 227 l 1
 -7 164 l 1
 -7 217 l 1
 64 280 l 1
 64 667 l 1
 104 667 l 1
 104 316 l 1
 259 453 l 1
 259 400 l 1
 104 263 l 1
 104 40 l 1
 452 40 l 1
 452 0 l 1
EndSplineSet
EndChar
StartChar: Oslash
Encoding: 151 216 137
Width: 785
VWidth: 1333
Flags: HW
HStem: -7 40<325.4 608.8> 633 40<178.5 464.5>
VStem: 55 40<205.6 548.8> 692 39<118.5 457.8>
Fore
169 -51 m 1
 136 -29 l 1
 193 59 l 1
 109 120 55 220 55 333 c 0
 55 521 207 673 393 673 c 0
 457 673 516 656 567 625 c 1
 627 717 l 1
 660 696 l 1
 599 603 l 1
 679 540 731 443 731 333 c 0
 731 145 579 -7 392 -7 c 0
 332 -7 276 9 227 37 c 1
 169 -51 l 1
577 569 m 1
 249 71 l 1
 292 47 341 33 393 33 c 0
 559 33 692 168 692 333 c 0
 692 429 647 515 577 569 c 1
216 92 m 1
 544 592 l 1
 500 619 448 633 393 633 c 0
 228 633 95 499 95 333 c 0
 95 235 143 147 216 92 c 1
EndSplineSet
EndChar
StartChar: OE
Encoding: 193 338 138
Width: 858
VWidth: 1333
Flags: HW
HStem: -7 40<178.5 447.073> 0 40<484 832> 367 40<484 805> 627 40<537 831> 633 40<178.5 451.439>
VStem: 55 40<118.5 548.8> 444 39<40 367 407 627>
Fore
483 407 m 1x36
 805 407 l 1
 805 367 l 1
 484 367 l 1
 484 40 l 1
 832 40 l 1
 832 0 l 1
 460 0 l 1x76
 439 -4 416 -7 393 -7 c 0
 207 -7 55 145 55 333 c 0
 55 521 207 673 393 673 c 0xae
 416 673 439 671 460 667 c 1
 831 667 l 1
 831 627 l 1
 483 627 l 1
 483 407 l 1x36
444 37 m 1
 444 629 l 1
 428 632 411 633 393 633 c 0
 228 633 95 499 95 333 c 0
 95 168 228 33 393 33 c 0xae
 411 33 428 35 444 37 c 1
EndSplineSet
EndChar
StartChar: ordmasculine
Encoding: 121 186 139
Width: 413
VWidth: 1333
Flags: HW
HStem: 276 39<126.4 286.3> 541 39<126.4 286.3>
VStem: 55 40<346.1 509.9> 319 40<346.1 509.9>
Fore
207 580 m 0
 291 580 359 512 359 428 c 0
 359 344 291 276 207 276 c 0
 123 276 55 344 55 428 c 0
 55 512 123 580 207 580 c 0
95 428 m 0
 95 365 145 315 207 315 c 0
 268 315 319 365 319 428 c 0
 319 491 268 541 207 541 c 0
 145 541 95 491 95 428 c 0
EndSplineSet
EndChar
StartChar: ae
Encoding: 165 230 140
Width: 831
VWidth: 1333
Flags: HW
HStem: -7 42<94.4 277.7 463 642.4> 227 38<233.9 360 404 733> 421 40<167.7 309.4 465.3 672>
VStem: 45 40<68.9 256.1>
Fore
777 227 m 1
 399 227 l 1
 399 119 476 35 567 35 c 0
 625 35 677 69 708 124 c 1
 743 104 l 1
 707 39 641 -7 567 -7 c 0
 487 -7 420 43 384 115 c 1
 341 49 271 -8 188 -8 c 0
 87 -8 45 61 45 117 c 0
 45 263 249 265 360 265 c 1
 357 368 289 421 221 421 c 0
 180 421 137 400 107 356 c 1
 75 377 l 1
 113 435 168 461 221 461 c 0
 289 461 357 419 385 339 c 1
 421 411 489 460 568 460 c 0
 679 460 767 364 776 247 c 2
 777 227 l 1
188 32 m 0
 257 32 332 87 369 153 c 1
 364 176 360 200 360 227 c 1
 263 225 85 224 85 117 c 0
 85 80 116 32 188 32 c 0
404 265 m 1
 733 265 l 1
 717 355 648 420 568 420 c 0
 489 420 420 355 404 265 c 1
EndSplineSet
EndChar
StartChar: lslash
Encoding: 192 322 141
Width: 167
VWidth: 1333
Flags: HW
HStem: 0 21G<64 104> 647 20G<64 104>
VStem: 64 40<0 227 316 667>
Fore
104 0 m 1
 64 0 l 1
 64 227 l 1
 13 181 l 1
 13 235 l 1
 64 280 l 1
 64 667 l 1
 104 667 l 1
 104 316 l 1
 155 361 l 1
 155 308 l 1
 104 263 l 1
 104 0 l 1
EndSplineSet
EndChar
StartChar: oslash
Encoding: 183 248 142
Width: 574
VWidth: 1333
Flags: HW
HStem: -7 39<243.725 427.1> 419 41<147.9 328.019>
VStem: 55 38<135.3 364.1> 481 39<87.2 310.8>
Fore
415 503 m 1
 452 483 l 1
 419 419 l 1
 480 377 520 307 520 227 c 0
 520 97 416 -7 288 -7 c 0
 257 -7 228 -1 201 9 c 1
 171 -49 l 1
 135 -31 l 1
 165 28 l 1
 99 69 55 143 55 227 c 0
 55 356 159 460 287 460 c 0
 320 460 352 453 381 440 c 1
 415 503 l 1
400 383 m 1
 220 44 l 1
 241 36 264 32 288 32 c 0
 395 32 481 119 481 225 c 0
 481 291 449 348 400 383 c 1
184 61 m 1
 363 403 l 1
 339 413 313 419 287 419 c 0
 180 419 93 332 93 225 c 0
 93 156 129 96 184 61 c 1
EndSplineSet
EndChar
StartChar: oe
Encoding: 194 339 143
Width: 950
VWidth: 1333
Flags: HW
HStem: -7 40<148.9 407.9 577.5 764.7> 225 40<524 853> 420 40<148.9 407.9 585.3 792>
VStem: 55 40<87.9 364.8> 481 39<87.9 227>
Fore
95 227 m 0
 95 120 181 33 288 33 c 0
 395 33 481 120 481 227 c 0
 481 333 395 420 288 420 c 0
 181 420 95 333 95 227 c 0
896 225 m 1
 520 225 l 1
 520 117 597 35 688 35 c 0
 747 35 799 69 829 124 c 1
 864 104 l 1
 828 39 763 -7 688 -7 c 0
 603 -7 531 49 499 129 c 1
 461 49 380 -7 287 -7 c 0
 159 -7 55 97 55 227 c 0
 55 356 159 460 287 460 c 0
 380 460 461 404 499 324 c 1
 531 404 603 460 687 460 c 0
 797 460 885 364 895 247 c 2
 896 225 l 1
524 265 m 1
 853 265 l 1
 837 355 768 421 688 421 c 0
 609 421 540 355 524 265 c 1
EndSplineSet
EndChar
StartChar: germandbls
Encoding: 158 223 144
Width: 506
VWidth: 1333
Flags: HW
HStem: -8 32<230.1 365.3> 705 39<160.8 325.9>
VStem: 75 40<0 692.6> 259 41<296.6 451.3> 368 41<466.4 682.2> 411 41<49.3 292.4>
Fore
115 521 m 2
 115 0 l 1
 75 0 l 1
 75 520 l 2
 75 673 160 744 247 744 c 0
 329 744 409 680 409 572 c 0
 409 471 300 436 300 385 c 0
 300 317 452 280 452 163 c 0
 452 53 371 -8 283 -8 c 0
 237 -8 191 8 152 41 c 1
 179 59 l 1
 207 35 240 24 273 24 c 0
 344 24 411 76 411 165 c 0
 411 263 259 289 259 387 c 0
 259 461 368 491 368 573 c 0
 368 657 307 705 244 705 c 0
 180 705 115 653 115 521 c 2
EndSplineSet
EndChar
StartChar: logicalnot
Encoding: 107 172 145
Width: 623
VWidth: 1333
Flags: HW
HStem: 367 40<55 529>
VStem: 529 40<160 367>
Fore
569 407 m 1
 569 160 l 1
 529 160 l 1
 529 367 l 1
 55 367 l 1
 55 407 l 1
 569 407 l 1
EndSplineSet
EndChar
StartChar: trademark
Encoding: 314 8482 146
Width: 766
VWidth: 1333
Flags: HW
HStem: 632 35<64 159 193 288>
VStem: 159 34<333 632>
Fore
288 667 m 1
 288 632 l 1
 193 632 l 1
 193 333 l 1
 159 333 l 1
 159 632 l 1
 64 632 l 1
 64 667 l 1
 288 667 l 1
624 564 m 1
 505 325 l 1
 392 565 l 1
 347 335 l 1
 311 335 l 1
 379 675 l 1
 507 405 l 1
 637 673 l 1
 703 333 l 1
 668 333 l 1
 624 564 l 1
EndSplineSet
EndChar
StartChar: Eth
Encoding: 143 208 147
Width: 602
VWidth: 1333
Flags: HW
HStem: 0 40<115 209> 313 40<4 75 115 312> 627 40<115 424.8>
VStem: 75 40<40 313 353 627> 508 40<118.5 548.8>
Fore
115 40 m 1
 209 40 l 2
 375 40 508 168 508 333 c 0
 508 499 375 627 209 627 c 2
 115 627 l 1
 115 353 l 1
 312 353 l 1
 312 313 l 1
 115 313 l 1
 115 40 l 1
75 353 m 1
 75 667 l 1
 209 667 l 2
 396 667 548 521 548 333 c 0
 548 145 396 0 209 0 c 2
 75 0 l 1
 75 313 l 1
 4 313 l 1
 4 353 l 1
 75 353 l 1
EndSplineSet
EndChar
StartChar: onehalf
Encoding: 124 189 148
Width: 826
VWidth: 1333
Flags: HW
HStem: 0 40<524 755> 411 40<566 694.7> 647 20G<595 644>
VStem: 136 40<225 597> 499 40<305 383> 723 42<162 383>
Fore
755 40 m 1
 755 0 l 1
 479 0 l 1
 479 19 l 2
 479 171 723 195 723 305 c 0
 723 365 680 411 631 411 c 0
 581 411 539 365 539 305 c 1
 499 305 l 1
 499 384 557 451 632 451 c 0
 707 451 765 385 765 307 c 0
 765 173 548 147 524 40 c 1
 755 40 l 1
595 667 m 1
 644 667 l 1
 171 0 l 1
 121 0 l 1
 595 667 l 1
136 225 m 1
 136 597 l 1
 84 561 l 1
 61 595 l 1
 176 673 l 1
 176 225 l 1
 136 225 l 1
EndSplineSet
LCarets2: 2 0 0 
Ligature2: "'frac' Diagonal Fractions in Latin lookup 42" one fraction two
Ligature2: "'frac' Diagonal Fractions in Latin lookup 42" one slash two
EndChar
StartChar: plusminus
Encoding: 112 177 149
Width: 463
VWidth: 1333
Flags: HW
HStem: 0 40<55 409> 313 40<55 212 252 409>
VStem: 212 40<156 313 353 511>
Fore
409 40 m 1
 409 0 l 1
 55 0 l 1
 55 40 l 1
 409 40 l 1
252 156 m 1
 212 156 l 1
 212 313 l 1
 55 313 l 1
 55 353 l 1
 212 353 l 1
 212 511 l 1
 252 511 l 1
 252 353 l 1
 409 353 l 1
 409 313 l 1
 252 313 l 1
 252 156 l 1
EndSplineSet
EndChar
StartChar: Thorn
Encoding: 157 222 150
Width: 507
VWidth: 1333
Flags: HW
HStem: 0 21G<75 115> 141 42<135.06 364.8> 484 39<136.383 364.8> 647 20G<75 115>
VStem: 75 40<0 149 191 476 515 667> 412 41<208.2 457.8>
Fore
115 476 m 1
 115 191 l 1
 145 185 175 183 201 183 c 0
 327 183 412 237 412 333 c 0
 412 429 327 484 201 484 c 0
 175 484 145 481 115 476 c 1
75 0 m 1
 75 667 l 1
 115 667 l 1
 115 515 l 1
 144 520 173 523 201 523 c 0
 356 523 453 447 453 332 c 0
 453 217 356 141 201 141 c 0
 173 141 144 144 115 149 c 1
 115 0 l 1
 75 0 l 1
EndSplineSet
EndChar
StartChar: onequarter
Encoding: 123 188 151
Width: 826
VWidth: 1333
Flags: HW
HStem: 0 21G<163 212 657 697> 72 41<485 657 697 747> 647 20G<636 685>
VStem: 136 40<225 597> 657 39<0 72 113 340>
Fore
636 667 m 1
 685 667 l 1
 212 0 l 1
 163 0 l 1
 636 667 l 1
657 113 m 1
 657 340 l 1
 485 113 l 1
 657 113 l 1
136 225 m 1
 136 597 l 1
 84 561 l 1
 61 595 l 1
 176 673 l 1
 176 225 l 1
 136 225 l 1
657 72 m 1
 404 72 l 1
 696 457 l 1
 696 113 l 1
 760 113 l 1
 747 72 l 1
 697 72 l 1
 697 0 l 1
 657 0 l 1
 657 72 l 1
EndSplineSet
LCarets2: 2 0 0 
Ligature2: "'frac' Diagonal Fractions in Latin lookup 42" one fraction four
Ligature2: "'frac' Diagonal Fractions in Latin lookup 42" one slash four
EndChar
StartChar: divide
Encoding: 182 247 152
Width: 482
VWidth: 1333
Flags: HW
HStem: 172 75<215 267> 313 40<64 419> 420 75<215 267>
VStem: 204 75<183 235 431 483>
Fore
204 209 m 0
 204 229 221 247 241 247 c 0
 261 247 279 229 279 209 c 0
 279 189 261 172 241 172 c 0
 221 172 204 189 204 209 c 0
204 457 m 0
 204 477 221 495 241 495 c 0
 261 495 279 477 279 457 c 0
 279 437 261 420 241 420 c 0
 221 420 204 437 204 457 c 0
419 353 m 1
 419 313 l 1
 64 313 l 1
 64 353 l 1
 419 353 l 1
EndSplineSet
EndChar
StartChar: brokenbar
Encoding: 101 166 153
Width: 189
VWidth: 1333
Flags: HW
VStem: 75 40<-227 133 320 680>
Fore
115 320 m 1
 75 320 l 1
 75 680 l 1
 115 680 l 1
 115 320 l 1
115 -227 m 1
 75 -227 l 1
 75 133 l 1
 115 133 l 1
 115 -227 l 1
EndSplineSet
EndChar
StartChar: degree
Encoding: 111 176 154
Width: 335
VWidth: 1333
Flags: HW
HStem: 541 42<116 220> 727 41<116 220>
VStem: 55 41<603 707> 240 41<603 707>
Fore
168 768 m 0
 231 768 281 717 281 655 c 0
 281 592 231 541 168 541 c 0
 105 541 55 592 55 655 c 0
 55 717 105 768 168 768 c 0
96 655 m 0
 96 615 128 583 168 583 c 0
 208 583 240 615 240 655 c 0
 240 695 208 727 168 727 c 0
 128 727 96 695 96 655 c 0
EndSplineSet
EndChar
StartChar: thorn
Encoding: 189 254 155
Width: 551
VWidth: 1333
Flags: HW
HStem: -7 42<194 404.9> 421 39<194 404.9> 647 20G<75 115>
VStem: 75 40<-227 89 177.5 308.65 364 667> 456 41<87.6 368.4>
Fore
115 -227 m 1
 75 -227 l 1
 75 667 l 1
 115 667 l 1
 115 364 l 1
 153 421 215 460 285 460 c 0
 404 460 497 353 497 227 c 0
 497 100 404 -7 285 -7 c 0
 215 -7 153 32 115 89 c 1
 115 -227 l 1
115 243 m 2
 115 213 l 2
 121 112 196 35 284 35 c 0
 377 35 456 120 456 228 c 0
 456 336 377 421 284 421 c 0
 196 421 121 344 115 243 c 2
EndSplineSet
EndChar
StartChar: threequarters
Encoding: 125 190 156
Width: 826
VWidth: 1333
Flags: HW
HStem: 0 21G<216 265 684 724> 73 40<512 684 724 773> 217 39<115.2 260.8> 459 40<188 240> 633 40<136 240>
VStem: 47 40<284.2 357> 76 40<563 612.4> 260 37<516.2 612.4> 289 38<284.2 424.6> 684 39<0 73 113 340>
Fore
47 357 m 1xfcc0
 87 357 l 1
 87 301 132 256 188 256 c 0
 244 256 289 301 289 357 c 0xfcc0
 289 413 244 459 188 459 c 1
 188 499 l 1
 228 499 260 524 260 563 c 0
 260 601 228 633 188 633 c 0
 148 633 116 601 116 563 c 1
 76 563 l 1
 76 624 125 673 187 673 c 0
 248 673 297 624 297 563 c 0xfb40
 297 527 280 497 255 479 c 1
 297 455 327 409 327 357 c 0
 327 280 264 217 187 217 c 0
 109 217 47 280 47 357 c 1xfcc0
689 667 m 1
 739 667 l 1
 265 0 l 1
 216 0 l 1
 689 667 l 1
684 113 m 1
 684 340 l 1
 512 113 l 1
 684 113 l 1
684 73 m 1
 431 73 l 1
 723 459 l 1
 723 113 l 1
 787 113 l 1
 773 73 l 1
 724 73 l 1
 724 0 l 1
 684 0 l 1
 684 73 l 1
EndSplineSet
LCarets2: 2 0 0 
Ligature2: "'frac' Diagonal Fractions in Latin lookup 42" three fraction four
Ligature2: "'frac' Diagonal Fractions in Latin lookup 42" three slash four
EndChar
StartChar: registered
Encoding: 109 174 157
Width: 786
VWidth: 1333
Flags: HW
HStem: -7 40<178.5 608.8> 309 40<324 408> 487 40<324 465.8> 633 40<178.5 608.8>
VStem: 55 40<118.5 548.8> 284 40<140 309 349 487> 484 40<367.6 467.7> 692 40<118.5 548.8>
Fore
547 140 m 1
 500 140 l 1
 408 309 l 1
 324 309 l 1
 324 140 l 1
 284 140 l 1
 284 527 l 1
 419 527 l 2
 477 527 524 477 524 417 c 0
 524 369 493 328 451 315 c 1
 547 140 l 1
95 333 m 0
 95 168 228 33 393 33 c 0
 559 33 692 168 692 333 c 0
 692 499 559 633 393 633 c 0
 228 633 95 499 95 333 c 0
393 673 m 0
 580 673 732 521 732 333 c 0
 732 145 580 -7 393 -7 c 0
 207 -7 55 145 55 333 c 0
 55 521 207 673 393 673 c 0
324 349 m 1
 420 349 l 2
 455 349 484 379 484 417 c 0
 484 456 455 487 419 487 c 2
 324 487 l 1
 324 349 l 1
EndSplineSet
EndChar
StartChar: eth
Encoding: 175 240 158
Width: 573
VWidth: 1333
Flags: HW
HStem: -7 39<147.2 424.1> 419 41<147.2 355.9>
VStem: 55 37<87.2 364.1> 479 40<87.2 301.1>
Fore
319 605 m 1
 320 604 l 2
 501 451 519 284 519 227 c 0
 519 97 415 -7 287 -7 c 0
 159 -7 55 97 55 227 c 0
 55 356 159 460 287 460 c 0
 340 460 389 443 428 412 c 1
 393 477 343 536 284 583 c 1
 143 499 l 1
 123 533 l 1
 249 609 l 1
 205 640 157 664 111 679 c 1
 123 717 l 1
 177 700 233 671 285 632 c 1
 427 716 l 1
 447 681 l 1
 319 605 l 1
285 419 m 0
 179 419 92 332 92 225 c 0
 92 119 179 32 285 32 c 0
 392 32 479 119 479 225 c 0
 478.44 341.608 385.1 419 285 419 c 0
EndSplineSet
EndChar
StartChar: multiply
Encoding: 150 215 159
Width: 477
VWidth: 1333
Flags: HW
HStem: 156 355<32 445>
VStem: 32 413<156 511>
Fore
445 156 m 1
 388 156 l 1
 240 304 l 1
 95 156 l 1
 39 156 l 1
 212 332 l 1
 32 511 l 1
 89 511 l 1
 240 360 l 1
 388 511 l 1
 444 511 l 1
 268 332 l 1
 445 156 l 1
EndSplineSet
EndChar
StartChar: copyright
Encoding: 104 169 160
Width: 786
VWidth: 1333
Flags: HW
HStem: -7 40<178.5 608.8> 139 40<299.7 453.1> 485 40<299.7 453.1> 633 40<178.5 608.8>
VStem: 55 40<118.5 548.8> 220 40<218.9 445.1> 692 40<118.5 548.8>
Fore
393 673 m 0
 580 673 732 521 732 333 c 0
 732 145 580 -7 393 -7 c 0
 207 -7 55 145 55 333 c 0
 55 521 207 673 393 673 c 0
95 333 m 0
 95 168 228 33 393 33 c 0
 559 33 692 168 692 333 c 0
 692 499 559 633 393 633 c 0
 228 633 95 499 95 333 c 0
504 251 m 1
 539 231 l 1
 509 176 455 139 392 139 c 0
 295 139 220 227 220 332 c 0
 220 437 295 525 392 525 c 0
 455 525 509 488 539 433 c 1
 504 413 l 1
 480 457 439 485 392 485 c 0
 321 485 260 419 260 332 c 0
 260 245 321 179 392 179 c 0
 439 179 480 207 504 251 c 1
EndSplineSet
EndChar
StartChar: Aacute
Encoding: 128 193 161
Width: 591
VWidth: 1333
Flags: HW
HStem: 0 21G<16 59 533 576> 207 40<163 432>
Fore
357 839 m 1
 433 839 l 1
 299 720 l 1
 257 720 l 1
 357 839 l 1
163 247 m 1
 432 247 l 1
 297 571 l 1
 163 247 l 1
448 207 m 1
 144 207 l 1
 59 0 l 1
 16 0 l 1
 296 675 l 1
 576 0 l 1
 533 0 l 1
 448 207 l 1
EndSplineSet
EndChar
StartChar: Acircumflex
Encoding: 129 194 162
Width: 591
VWidth: 1333
Flags: HW
HStem: 0 21G<16 59 533 576> 207 40<163 432>
Fore
283 839 m 1
 312 839 l 1
 420 720 l 1
 365 720 l 1
 297 793 l 1
 229 720 l 1
 175 720 l 1
 283 839 l 1
163 247 m 1
 432 247 l 1
 297 571 l 1
 163 247 l 1
448 207 m 1
 144 207 l 1
 59 0 l 1
 16 0 l 1
 296 675 l 1
 576 0 l 1
 533 0 l 1
 448 207 l 1
EndSplineSet
EndChar
StartChar: Adieresis
Encoding: 131 196 163
Width: 591
VWidth: 1333
Flags: HW
HStem: 0 21G<16 59 533 576> 207 40<163 432> 720 75<191 243 351 403>
VStem: 180 75<731 783> 340 75<731 783>
Fore
180 757 m 0
 180 777 197 795 217 795 c 0
 237 795 255 777 255 757 c 0
 255 737 237 720 217 720 c 0
 197 720 180 737 180 757 c 0
340 757 m 0
 340 777 357 795 377 795 c 0
 397 795 415 777 415 757 c 0
 415 737 397 720 377 720 c 0
 357 720 340 737 340 757 c 0
163 247 m 1
 432 247 l 1
 297 571 l 1
 163 247 l 1
448 207 m 1
 144 207 l 1
 59 0 l 1
 16 0 l 1
 296 675 l 1
 576 0 l 1
 533 0 l 1
 448 207 l 1
EndSplineSet
EndChar
StartChar: Agrave
Encoding: 127 192 164
Width: 591
VWidth: 1333
Flags: HW
HStem: 0 21G<16 59 533 576> 207 40<163 432>
Fore
163 839 m 1
 239 839 l 1
 339 720 l 1
 297 720 l 1
 163 839 l 1
163 247 m 1
 432 247 l 1
 297 571 l 1
 163 247 l 1
448 207 m 1
 144 207 l 1
 59 0 l 1
 16 0 l 1
 296 675 l 1
 576 0 l 1
 533 0 l 1
 448 207 l 1
EndSplineSet
EndChar
StartChar: Aring
Encoding: 132 197 165
Width: 591
VWidth: 1333
Flags: HW
HStem: 0 21G<16 59 533 576> 207 40<163 432> 713 40<254.7 334> 865 40<254.7 334>
VStem: 199 40<770 849.3> 351 40<770 849.3>
Fore
295 905 m 0
 348 905 391 863 391 809 c 0
 391 756 348 713 295 713 c 0
 241 713 199 756 199 809 c 0
 199 863 241 905 295 905 c 0
239 809 m 0
 239 779 264 753 295 753 c 0
 325 753 351 779 351 809 c 0
 351 840 325 865 295 865 c 0
 264 865 239 840 239 809 c 0
163 247 m 1
 432 247 l 1
 297 571 l 1
 163 247 l 1
448 207 m 1
 144 207 l 1
 59 0 l 1
 16 0 l 1
 296 675 l 1
 576 0 l 1
 533 0 l 1
 448 207 l 1
EndSplineSet
EndChar
StartChar: Atilde
Encoding: 130 195 166
Width: 591
VWidth: 1333
Flags: HW
HStem: 0 21G<16 59 533 576> 207 40<163 432> 713 40<314.3 361.287> 761 40<220.04 277.6>
VStem: 180 25<720 762.904> 380 27<748.2 795>
Fore
205 720 m 1
 180 720 l 1
 181 753 187 801 237 801 c 0
 285 801 323 753 352 753 c 0
 357 753 380 759 380 795 c 1
 407 795 l 1
 407 735 384 713 351 713 c 0
 308 713 268 761 236 761 c 0
 225 761 207 755 205 720 c 1
163 247 m 1
 432 247 l 1
 297 571 l 1
 163 247 l 1
448 207 m 1
 144 207 l 1
 59 0 l 1
 16 0 l 1
 296 675 l 1
 576 0 l 1
 533 0 l 1
 448 207 l 1
EndSplineSet
EndChar
StartChar: Ccedilla
Encoding: 134 199 167
Width: 721
VWidth: 1333
Flags: HW
HStem: -177 40<340.782 404.1> -5 38<393 493.12> 633 42<178.5 521.7>
VStem: 55 40<118.5 548.8> 412 40<-128.8 -88.5>
Fore
633 155 m 1
 667 132 l 1
 608 53 516 0 412 -5 c 1
 391 -41 l 1
 452 -52 452 -93 452 -108 c 0
 452 -149 416 -177 369 -177 c 0
 347 -177 323 -171 300 -156 c 1
 321 -123 l 1
 337 -133 355 -137 369 -137 c 0
 396 -137 412 -124 412 -108 c 0
 412 -89 388 -80 364 -76 c 2
 335 -72 l 1
 375 -4 l 1
 196 5 55 153 55 335 c 0
 55 523 207 675 393 675 c 0
 505 675 604 620 665 536 c 1
 633 512 l 1
 579 585 492 633 393 633 c 0
 228 633 95 499 95 333 c 0
 95 168 228 33 393 33 c 0
 492 33 579 81 633 155 c 1
EndSplineSet
EndChar
StartChar: Eacute
Encoding: 136 201 168
Width: 489
VWidth: 1333
Flags: HW
HStem: 0 40<115 461> 367 40<115 435> 627 40<115 463>
VStem: 75 40<40 367 407 627>
Fore
367 839 m 1
 232 720 l 1
 191 720 l 1
 291 839 l 1
 367 839 l 1
435 407 m 1
 435 367 l 1
 115 367 l 1
 115 40 l 1
 461 40 l 1
 461 0 l 1
 75 0 l 1
 75 667 l 1
 463 667 l 1
 463 627 l 1
 115 627 l 1
 115 407 l 1
 435 407 l 1
EndSplineSet
EndChar
StartChar: Ecircumflex
Encoding: 137 202 169
Width: 489
VWidth: 1333
Flags: HW
HStem: 0 40<115 461> 367 40<115 435> 627 40<115 463>
VStem: 75 40<40 367 407 627>
Fore
320 720 m 1
 251 793 l 1
 183 720 l 1
 128 720 l 1
 236 839 l 1
 267 839 l 1
 375 720 l 1
 320 720 l 1
435 407 m 1
 435 367 l 1
 115 367 l 1
 115 40 l 1
 461 40 l 1
 461 0 l 1
 75 0 l 1
 75 667 l 1
 463 667 l 1
 463 627 l 1
 115 627 l 1
 115 407 l 1
 435 407 l 1
EndSplineSet
EndChar
StartChar: Edieresis
Encoding: 138 203 170
Width: 489
VWidth: 1333
Flags: HW
HStem: 0 40<115 461> 367 40<115 435> 627 40<115 463> 720 75<145 197 305 357>
VStem: 75 40<40 367 407 627> 133 75<731 783> 293 75<731 783>
Fore
133 757 m 0
 133 777 151 795 171 795 c 0
 191 795 208 777 208 757 c 0
 208 737 191 720 171 720 c 0
 151 720 133 737 133 757 c 0
293 757 m 0
 293 777 311 795 331 795 c 0
 351 795 368 777 368 757 c 0
 368 737 351 720 331 720 c 0
 311 720 293 737 293 757 c 0
435 407 m 1
 435 367 l 1
 115 367 l 1
 115 40 l 1
 461 40 l 1
 461 0 l 1
 75 0 l 1
 75 667 l 1
 463 667 l 1
 463 627 l 1
 115 627 l 1
 115 407 l 1
 435 407 l 1
EndSplineSet
EndChar
StartChar: Egrave
Encoding: 135 200 171
Width: 489
VWidth: 1333
Flags: HW
HStem: 0 40<115 461> 367 40<115 435> 627 40<115 463>
VStem: 75 40<40 367 407 627>
Fore
135 839 m 1
 211 839 l 1
 311 720 l 1
 269 720 l 1
 135 839 l 1
435 407 m 1
 435 367 l 1
 115 367 l 1
 115 40 l 1
 461 40 l 1
 461 0 l 1
 75 0 l 1
 75 667 l 1
 463 667 l 1
 463 627 l 1
 115 627 l 1
 115 407 l 1
 435 407 l 1
EndSplineSet
EndChar
StartChar: Iacute
Encoding: 140 205 172
Width: 189
VWidth: 1333
Flags: HW
HStem: 0 21G<75 115> 647 20G<75 115>
VStem: 75 40<0 667>
Fore
229 839 m 1
 95 720 l 1
 53 720 l 1
 153 839 l 1
 229 839 l 1
115 0 m 1
 75 0 l 1
 75 667 l 1
 115 667 l 1
 115 0 l 1
EndSplineSet
EndChar
StartChar: Icircumflex
Encoding: 141 206 173
Width: 189
VWidth: 1333
Flags: HW
HStem: 0 21G<75 115> 647 20G<75 115>
VStem: 75 40<0 667>
Fore
163 720 m 1
 93 793 l 1
 25 720 l 1
 -29 720 l 1
 79 839 l 1
 109 839 l 1
 217 720 l 1
 163 720 l 1
115 0 m 1
 75 0 l 1
 75 667 l 1
 115 667 l 1
 115 0 l 1
EndSplineSet
EndChar
StartChar: Idieresis
Encoding: 142 207 174
Width: 189
VWidth: 1333
Flags: HW
HStem: 0 21G<75 115> 647 20G<75 115> 720 75<-13 39 147 199>
VStem: -24 75<731 783> 75 40<0 667> 136 75<731 783>
Fore
-24 757 m 0
 -24 777 -7 795 13 795 c 0
 33 795 51 777 51 757 c 0
 51 737 33 720 13 720 c 0
 -7 720 -24 737 -24 757 c 0
136 757 m 0
 136 777 153 795 173 795 c 0
 193 795 211 777 211 757 c 0
 211 737 193 720 173 720 c 0
 153 720 136 737 136 757 c 0
115 0 m 1
 75 0 l 1
 75 667 l 1
 115 667 l 1
 115 0 l 1
EndSplineSet
EndChar
StartChar: Igrave
Encoding: 139 204 175
Width: 189
VWidth: 1333
Flags: HW
HStem: 0 21G<75 115> 647 20G<75 115>
VStem: 75 40<0 667>
Fore
-40 839 m 1
 36 839 l 1
 136 720 l 1
 95 720 l 1
 -40 839 l 1
115 0 m 5
 75 0 l 5
 75 667 l 5
 115 667 l 5
 115 0 l 5
EndSplineSet
EndChar
StartChar: Ntilde
Encoding: 144 209 176
Width: 750
VWidth: 1333
Flags: HW
HStem: 0 21G<75 115> 647 20G<636 676> 713 40<394.3 441.287> 761 40<300.04 357.6>
VStem: 75 40<0 577> 460 27<748.2 795> 636 40<89 667>
Fore
259 720 m 1
 260 720 l 1
 261 753 267 801 317 801 c 0
 365 801 403 753 432 753 c 0
 437 753 460 759 460 795 c 1
 487 795 l 1
 487 735 464 713 431 713 c 0
 388 713 348 761 316 761 c 0
 305 761 287 755 285 720 c 1
 259 720 l 1
75 0 m 1
 75 676 l 1
 636 89 l 1
 636 667 l 1
 676 667 l 1
 676 -9 l 1
 115 577 l 1
 115 0 l 1
 75 0 l 1
EndSplineSet
EndChar
StartChar: Oacute
Encoding: 146 211 177
Width: 786
VWidth: 1333
Flags: HW
HStem: -7 40<178.5 608.8> 633 40<178.5 608.8>
VStem: 55 40<118.5 548.8> 692 40<118.5 548.8>
Fore
555 839 m 1
 420 720 l 1
 379 720 l 1
 479 839 l 1
 555 839 l 1
393 673 m 0
 580 673 732 521 732 333 c 0
 732 145 580 -7 393 -7 c 0
 207 -7 55 145 55 333 c 0
 55 521 207 673 393 673 c 0
95 333 m 0
 95 168 228 33 393 33 c 0
 559 33 692 168 692 333 c 0
 692 499 559 633 393 633 c 0
 228 633 95 499 95 333 c 0
EndSplineSet
EndChar
StartChar: Ocircumflex
Encoding: 147 212 178
Width: 786
VWidth: 1333
Flags: HW
HStem: -7 40<178.5 608.8> 633 40<178.5 608.8>
VStem: 55 40<118.5 548.8> 692 40<118.5 548.8>
Fore
463 720 m 1
 393 793 l 1
 325 720 l 1
 271 720 l 1
 379 839 l 1
 409 839 l 1
 517 720 l 1
 463 720 l 1
393 673 m 0
 580 673 732 521 732 333 c 0
 732 145 580 -7 393 -7 c 0
 207 -7 55 145 55 333 c 0
 55 521 207 673 393 673 c 0
95 333 m 0
 95 168 228 33 393 33 c 0
 559 33 692 168 692 333 c 0
 692 499 559 633 393 633 c 0
 228 633 95 499 95 333 c 0
EndSplineSet
EndChar
StartChar: Odieresis
Encoding: 149 214 179
Width: 786
VWidth: 1333
Flags: HW
HStem: -7 40<178.5 608.8> 633 40<178.5 608.8> 720 75<287 339 447 499>
VStem: 55 40<118.5 548.8> 276 75<731 783> 436 75<731 783> 692 40<118.5 548.8>
Fore
276 757 m 0
 276 777 293 795 313 795 c 0
 333 795 351 777 351 757 c 0
 351 737 333 720 313 720 c 0
 293 720 276 737 276 757 c 0
436 757 m 0
 436 777 453 795 473 795 c 0
 493 795 511 777 511 757 c 0
 511 737 493 720 473 720 c 0
 453 720 436 737 436 757 c 0
393 673 m 0
 580 673 732 521 732 333 c 0
 732 145 580 -7 393 -7 c 0
 207 -7 55 145 55 333 c 0
 55 521 207 673 393 673 c 0
95 333 m 0
 95 168 228 33 393 33 c 0
 559 33 692 168 692 333 c 0
 692 499 559 633 393 633 c 0
 228 633 95 499 95 333 c 0
EndSplineSet
EndChar
StartChar: Ograve
Encoding: 145 210 180
Width: 786
VWidth: 1333
Flags: HW
HStem: -7 40<178.5 608.8> 633 40<178.5 608.8>
VStem: 55 40<118.5 548.8> 692 40<118.5 548.8>
Fore
393 673 m 0
 580 673 732 521 732 333 c 0
 732 145 580 -7 393 -7 c 0
 207 -7 55 145 55 333 c 0
 55 521 207 673 393 673 c 0
95 333 m 0
 95 168 228 33 393 33 c 0
 559 33 692 168 692 333 c 0
 692 499 559 633 393 633 c 0
 228 633 95 499 95 333 c 0
221 839 m 1
 297 839 l 1
 397 720 l 1
 356 720 l 1
 221 839 l 1
EndSplineSet
EndChar
StartChar: Otilde
Encoding: 148 213 181
Width: 786
VWidth: 1333
Flags: HW
HStem: -7 40<178.5 608.8> 633 40<178.5 608.8> 713 40<414.3 461.287> 761 40<320.04 377.6>
VStem: 55 40<118.5 548.8> 480 27<748.2 795> 692 40<118.5 548.8>
Fore
279 720 m 1
 280 720 l 1
 281 753 287 801 337 801 c 0
 385 801 423 753 452 753 c 0
 457 753 480 759 480 795 c 1
 507 795 l 1
 507 735 484 713 451 713 c 0
 408 713 368 761 336 761 c 0
 325 761 307 755 305 720 c 1
 279 720 l 1
393 673 m 0
 580 673 732 521 732 333 c 0
 732 145 580 -7 393 -7 c 0
 207 -7 55 145 55 333 c 0
 55 521 207 673 393 673 c 0
95 333 m 0
 95 168 228 33 393 33 c 0
 559 33 692 168 692 333 c 0
 692 499 559 633 393 633 c 0
 228 633 95 499 95 333 c 0
EndSplineSet
EndChar
StartChar: Scaron
Encoding: 195 352 182
Width: 481
VWidth: 1333
Flags: HW
HStem: -9 41<140.2 350.8> 633 42<150.3 308.9>
VStem: 32 40<37.7394 188> 84 40<317.5 599.6> 409 40<63.3 435.1>
Fore
253 707 m 1
 224 707 l 1
 116 825 l 1
 171 825 l 1
 239 752 l 1
 307 825 l 1
 361 825 l 1
 253 707 l 1
408 549 m 1
 371 536 l 1
 348 603 293 633 240 633 c 0
 171 633 124 581 124 519 c 0
 124 364 449 409 449 191 c 0
 449 71 348 -9 239 -9 c 0
 145 -9 51 51 32 188 c 1
 72 193 l 1
 88 79 163 32 239 32 c 0
 325 32 409 93 409 192 c 0
 409 379 84 328 84 520 c 0
 84 603 147 675 240 675 c 0
 308 675 380 632 408 549 c 1
EndSplineSet
EndChar
StartChar: Uacute
Encoding: 153 218 183
Width: 623
VWidth: 1333
Flags: HW
HStem: -7 40<175.2 452.1> 647 20G<75 115 509 549>
VStem: 75 40<129 667> 509 40<91.8 667>
Fore
391 839 m 1
 467 839 l 1
 332 720 l 1
 291 720 l 1
 391 839 l 1
75 667 m 1
 115 667 l 1
 115 253 l 2
 115 129 207 33 313 33 c 0
 420 33 509 129 509 253 c 2
 509 667 l 1
 549 667 l 1
 549 253 l 2
 549 111 444 -7 312 -7 c 0
 180 -7 75 111 75 253 c 2
 75 667 l 1
EndSplineSet
EndChar
StartChar: Ucircumflex
Encoding: 154 219 184
Width: 623
VWidth: 1333
Flags: HW
HStem: -7 40<175.2 452.1> 647 20G<75 115 509 549>
VStem: 75 40<129 667> 509 40<91.8 667>
Fore
435 720 m 1
 379 720 l 1
 311 793 l 1
 243 720 l 1
 188 720 l 1
 296 839 l 1
 327 839 l 1
 435 720 l 1
75 667 m 1
 115 667 l 1
 115 253 l 2
 115 129 207 33 313 33 c 0
 420 33 509 129 509 253 c 2
 509 667 l 1
 549 667 l 1
 549 253 l 2
 549 111 444 -7 312 -7 c 0
 180 -7 75 111 75 253 c 2
 75 667 l 1
EndSplineSet
EndChar
StartChar: Udieresis
Encoding: 155 220 185
Width: 623
VWidth: 1333
Flags: HW
HStem: -7 40<175.2 452.1> 647 20G<75 115 509 549> 720 75<206 258 366 418>
VStem: 75 40<129 667> 195 74<731 783> 355 74<731 783> 509 40<91.8 667>
Fore
195 757 m 0
 195 777 212 795 232 795 c 0
 252 795 269 777 269 757 c 0
 269 737 252 720 232 720 c 0
 212 720 195 737 195 757 c 0
355 757 m 0
 355 777 372 795 392 795 c 0
 412 795 429 777 429 757 c 0
 429 737 412 720 392 720 c 0
 372 720 355 737 355 757 c 0
75 667 m 1
 115 667 l 1
 115 253 l 2
 115 129 207 33 313 33 c 0
 420 33 509 129 509 253 c 2
 509 667 l 1
 549 667 l 1
 549 253 l 2
 549 111 444 -7 312 -7 c 0
 180 -7 75 111 75 253 c 2
 75 667 l 1
EndSplineSet
EndChar
StartChar: Ugrave
Encoding: 152 217 186
Width: 623
VWidth: 1333
Flags: HW
HStem: -7 40<175.2 452.1> 647 20G<75 115 509 549>
VStem: 75 40<129 667> 509 40<91.8 667>
Fore
157 839 m 1
 233 839 l 1
 333 720 l 1
 292 720 l 1
 157 839 l 1
75 667 m 1
 115 667 l 1
 115 253 l 2
 115 129 207 33 313 33 c 0
 420 33 509 129 509 253 c 2
 509 667 l 1
 549 667 l 1
 549 253 l 2
 549 111 444 -7 312 -7 c 0
 180 -7 75 111 75 253 c 2
 75 667 l 1
EndSplineSet
EndChar
StartChar: Yacute
Encoding: 156 221 187
Width: 549
VWidth: 1333
Flags: HW
HStem: 0 21G<255 295> 647 20G<16 63 487 533>
VStem: 255 40<0 288>
Fore
355 839 m 1
 431 839 l 1
 296 720 l 1
 255 720 l 1
 355 839 l 1
16 667 m 1
 63 667 l 1
 275 331 l 1
 487 667 l 1
 533 667 l 1
 295 288 l 1
 295 0 l 1
 255 0 l 1
 255 288 l 1
 16 667 l 1
EndSplineSet
EndChar
StartChar: Ydieresis
Encoding: 197 376 188
Width: 549
VWidth: 1333
Flags: HW
HStem: 0 21G<255 295> 647 20G<16 63 487 533> 720 75<170 222 330 382>
VStem: 159 74<731 783> 255 40<0 288> 319 74<731 783>
Fore
159 757 m 0
 159 777 176 795 196 795 c 0
 216 795 233 777 233 757 c 0
 233 737 216 720 196 720 c 0
 176 720 159 737 159 757 c 0
319 757 m 0
 319 777 336 795 356 795 c 0
 376 795 393 777 393 757 c 0
 393 737 376 720 356 720 c 0
 336 720 319 737 319 757 c 0
16 667 m 1
 63 667 l 1
 275 331 l 1
 487 667 l 1
 533 667 l 1
 295 288 l 1
 295 0 l 1
 255 0 l 1
 255 288 l 1
 16 667 l 1
EndSplineSet
EndChar
StartChar: Zcaron
Encoding: 198 381 189
Width: 530
VWidth: 1333
Flags: HW
HStem: 0 40<91 501> 627 40<60 431>
VStem: 16 499<0 40>
Fore
280 707 m 1
 251 707 l 1
 143 825 l 1
 197 825 l 1
 265 752 l 1
 333 825 l 1
 388 825 l 1
 280 707 l 1
60 667 m 1
 505 667 l 1
 91 40 l 1
 515 40 l 1
 501 0 l 1
 16 0 l 1
 431 627 l 1
 47 627 l 1
 60 667 l 1
EndSplineSet
EndChar
StartChar: aacute
Encoding: 160 225 190
Width: 474
VWidth: 1333
Flags: HW
HStem: -8 40<94.4 280.3> 231 29<233.9 360> 421 40<167.7 309.4>
VStem: 45 40<68.9 256.1> 360 40<14.175 95 145 231 260 389>
Fore
281 651 m 1
 357 651 l 1
 223 532 l 1
 181 532 l 1
 281 651 l 1
411 0 m 1
 368 0 l 1
 363 17 360 37 360 60 c 2
 360 95 l 1
 321 40 259 -8 188 -8 c 0
 87 -8 45 61 45 117 c 0
 45 258 235 260 348 260 c 0
 360 260 l 1
 357 363 289 421 221 421 c 0
 180 421 137 400 107 356 c 1
 75 377 l 1
 113 435 168 461 221 461 c 0
 311 461 397 389 400 260 c 2
 400 60 l 2
 400 33 404 13 411 0 c 1
188 32 m 0
 261 32 331 92 360 145 c 1
 360 231 l 1
 263 229 85 224 85 117 c 0
 85 80 116 32 188 32 c 0
EndSplineSet
EndChar
StartChar: acircumflex
Encoding: 161 226 191
Width: 474
VWidth: 1333
Flags: HW
HStem: -8 40<94.4 280.3> 231 29<233.9 360> 421 40<167.7 309.4>
VStem: 45 40<68.9 256.1> 360 40<14.175 95 145 231 260 389>
Fore
220 651 m 1
 249 651 l 1
 357 532 l 1
 303 532 l 1
 235 605 l 1
 167 532 l 1
 112 532 l 1
 220 651 l 1
411 0 m 1
 368 0 l 1
 363 17 360 37 360 60 c 2
 360 95 l 1
 321 40 259 -8 188 -8 c 0
 87 -8 45 61 45 117 c 0
 45 258 235 260 348 260 c 0
 360 260 l 1
 357 363 289 421 221 421 c 0
 180 421 137 400 107 356 c 1
 75 377 l 1
 113 435 168 461 221 461 c 0
 311 461 397 389 400 260 c 2
 400 60 l 2
 400 33 404 13 411 0 c 1
188 32 m 0
 261 32 331 92 360 145 c 1
 360 231 l 1
 263 229 85 224 85 117 c 0
 85 80 116 32 188 32 c 0
EndSplineSet
EndChar
StartChar: adieresis
Encoding: 163 228 192
Width: 474
VWidth: 1333
Flags: HW
HStem: -8 40<94.4 280.3> 231 29<233.9 360> 421 40<167.7 309.4> 533 75<130 182 290 342>
VStem: 45 40<68.9 256.1> 119 74<545 597> 279 74<545 597> 360 40<14.175 95 145 231 260 389>
Fore
119 571 m 0
 119 591 136 608 156 608 c 0
 176 608 193 591 193 571 c 0
 193 551 176 533 156 533 c 0
 136 533 119 551 119 571 c 0
279 571 m 0
 279 591 296 608 316 608 c 0
 336 608 353 591 353 571 c 0
 353 551 336 533 316 533 c 0
 296 533 279 551 279 571 c 0
411 0 m 1
 368 0 l 1
 363 17 360 37 360 60 c 2
 360 95 l 1
 321 40 259 -8 188 -8 c 0
 87 -8 45 61 45 117 c 0
 45 258 235 260 348 260 c 0
 360 260 l 1
 357 363 289 421 221 421 c 0
 180 421 137 400 107 356 c 1
 75 377 l 1
 113 435 168 461 221 461 c 0
 311 461 397 389 400 260 c 2
 400 60 l 2
 400 33 404 13 411 0 c 1
188 32 m 0
 261 32 331 92 360 145 c 1
 360 231 l 1
 263 229 85 224 85 117 c 0
 85 80 116 32 188 32 c 0
EndSplineSet
EndChar
StartChar: agrave
Encoding: 159 224 193
Width: 474
VWidth: 1333
Flags: HW
HStem: -8 40<94.4 280.3> 231 29<233.9 360> 421 40<167.7 309.4>
VStem: 45 40<68.9 256.1> 360 40<14.175 95 145 231 260 389>
Fore
411 0 m 1
 368 0 l 1
 363 17 360 37 360 60 c 2
 360 95 l 1
 321 40 259 -8 188 -8 c 0
 87 -8 45 61 45 117 c 0
 45 258 235 260 348 260 c 0
 360 260 l 1
 357 363 289 421 221 421 c 0
 180 421 137 400 107 356 c 1
 75 377 l 1
 113 435 168 461 221 461 c 0
 311 461 397 389 400 260 c 2
 400 60 l 2
 400 33 404 13 411 0 c 1
188 32 m 0
 261 32 331 92 360 145 c 1
 360 231 l 1
 263 229 85 224 85 117 c 0
 85 80 116 32 188 32 c 0
89 651 m 1
 165 651 l 1
 265 532 l 1
 224 532 l 1
 89 651 l 1
EndSplineSet
EndChar
StartChar: aring
Encoding: 164 229 194
Width: 474
VWidth: 1333
Flags: HW
HStem: -8 40<94.4 280.3> 231 29<233.9 360> 421 40<167.7 309.4> 527 40<194.7 274> 679 40<194.7 274>
VStem: 45 40<68.9 256.1> 139 40<582.7 662> 291 40<582.7 662> 360 40<14.175 95 145 231 260 389>
Fore
235 719 m 0
 288 719 331 676 331 623 c 0
 331 569 288 527 235 527 c 0
 181 527 139 569 139 623 c 0
 139 676 181 719 235 719 c 0
179 623 m 0
 179 592 204 567 235 567 c 0
 265 567 291 592 291 623 c 0
 291 653 265 679 235 679 c 0
 204 679 179 653 179 623 c 0
411 0 m 1
 368 0 l 1
 363 17 360 37 360 60 c 2
 360 95 l 1
 321 40 259 -8 188 -8 c 0
 87 -8 45 61 45 117 c 0
 45 258 235 260 348 260 c 0
 360 260 l 1
 357 363 289 421 221 421 c 0
 180 421 137 400 107 356 c 1
 75 377 l 1
 113 435 168 461 221 461 c 0
 311 461 397 389 400 260 c 2
 400 60 l 2
 400 33 404 13 411 0 c 1
188 32 m 0
 261 32 331 92 360 145 c 1
 360 231 l 1
 263 229 85 224 85 117 c 0
 85 80 116 32 188 32 c 0
EndSplineSet
EndChar
StartChar: atilde
Encoding: 162 227 195
Width: 474
VWidth: 1333
Flags: HW
HStem: -8 40<94.4 280.3> 231 29<233.9 360> 421 40<167.7 309.4> 525 42<274.201 307.901> 575 38<160.84 193.936>
VStem: 45 40<68.9 256.1> 119 26<533 572.033> 320 25<571.69 604> 360 40<14.175 95 145 231 260 389>
Fore
320 604 m 1
 345 604 l 1
 345 589 344 577 341 567 c 0
 331 525 303 525 292 525 c 0
 267 525 239 543 224 553 c 0
 203 568 187 575 176 575 c 0
 165 575 147 568 145 533 c 1
 119 533 l 1
 119 545 119 556 123 571 c 0
 132 603 155 613 176 613 c 0
 204 613 233 595 245 587 c 0
 267 573 283 567 292 567 c 0
 301 567 320 572 320 604 c 1
411 0 m 1
 368 0 l 1
 363 17 360 37 360 60 c 2
 360 95 l 1
 321 40 259 -8 188 -8 c 0
 87 -8 45 61 45 117 c 0
 45 258 235 260 348 260 c 0
 360 260 l 1
 357 363 289 421 221 421 c 0
 180 421 137 400 107 356 c 1
 75 377 l 1
 113 435 168 461 221 461 c 0
 311 461 397 389 400 260 c 2
 400 60 l 2
 400 33 404 13 411 0 c 1
188 32 m 0
 261 32 331 92 360 145 c 1
 360 231 l 1
 263 229 85 224 85 117 c 0
 85 80 116 32 188 32 c 0
EndSplineSet
EndChar
StartChar: ccedilla
Encoding: 166 231 196
Width: 449
VWidth: 1333
Flags: HW
HStem: -177 40<187.266 251.1> 420 41<120.7 314.4>
VStem: 32 39<86.6 367.4> 259 40<-128.8 -88.5>
Fore
380 123 m 1
 417 105 l 1
 384 45 327 3 259 -4 c 1
 237 -41 l 1
 299 -52 299 -93 299 -108 c 0
 299 -149 263 -177 216 -177 c 0
 193 -177 169 -171 147 -156 c 1
 168 -123 l 1
 184 -133 201 -137 216 -137 c 0
 243 -137 259 -124 259 -108 c 0
 259 -89 235 -80 211 -76 c 2
 181 -72 l 1
 221 -4 l 1
 113 7 32 108 32 228 c 0
 32 355 123 461 239 461 c 0
 313 461 379 416 415 351 c 1
 380 331 l 1
 349 385 297 420 239 420 c 0
 148 420 71 335 71 227 c 0
 71 119 148 33 239 33 c 0
 297 33 349 68 380 123 c 1
EndSplineSet
EndChar
StartChar: eacute
Encoding: 168 233 197
Width: 526
VWidth: 1333
Flags: HW
HStem: -7 42<144 337.7> 225 40<99 428> 420 40<160.3 367>
VStem: 55 38<84.6 227>
Fore
336 652 m 1
 412 652 l 1
 277 533 l 1
 236 533 l 1
 336 652 l 1
99 265 m 1
 428 265 l 1
 412 355 343 420 263 420 c 0
 184 420 115 355 99 265 c 1
472 225 m 1
 93 225 l 1
 93 117 171 35 261 35 c 0
 320 35 372 69 403 124 c 1
 437 104 l 1
 401 39 336 -7 261 -7 c 0
 145 -7 55 100 55 227 c 0
 55 353 147 460 263 460 c 0
 373 460 461 364 471 247 c 2
 472 225 l 1
EndSplineSet
EndChar
StartChar: ecircumflex
Encoding: 169 234 198
Width: 526
VWidth: 1333
Flags: HW
HStem: -7 42<144 337.7> 225 40<99 428> 420 40<160.3 367>
VStem: 55 38<84.6 227>
Fore
247 652 m 1
 276 652 l 1
 384 533 l 1
 329 533 l 1
 261 607 l 1
 193 533 l 1
 139 533 l 1
 247 652 l 1
99 265 m 1
 428 265 l 1
 412 355 343 420 263 420 c 0
 184 420 115 355 99 265 c 1
472 225 m 1
 93 225 l 1
 93 117 171 35 261 35 c 0
 320 35 372 69 403 124 c 1
 437 104 l 1
 401 39 336 -7 261 -7 c 0
 145 -7 55 100 55 227 c 0
 55 353 147 460 263 460 c 0
 373 460 461 364 471 247 c 2
 472 225 l 1
EndSplineSet
EndChar
StartChar: edieresis
Encoding: 170 235 199
Width: 526
VWidth: 1333
Flags: HW
HStem: -7 42<144 337.7> 225 40<99 428> 420 40<160.3 367> 533 75<150 202 310 362>
VStem: 55 38<84.6 227> 139 74<545 597> 299 74<545 597>
Fore
139 571 m 0
 139 591 156 608 176 608 c 0
 196 608 213 591 213 571 c 0
 213 551 196 533 176 533 c 0
 156 533 139 551 139 571 c 0
299 571 m 0
 299 591 316 608 336 608 c 0
 356 608 373 591 373 571 c 0
 373 551 356 533 336 533 c 0
 316 533 299 551 299 571 c 0
99 265 m 1
 428 265 l 1
 412 355 343 420 263 420 c 0
 184 420 115 355 99 265 c 1
472 225 m 1
 93 225 l 1
 93 117 171 35 261 35 c 0
 320 35 372 69 403 124 c 1
 437 104 l 1
 401 39 336 -7 261 -7 c 0
 145 -7 55 100 55 227 c 0
 55 353 147 460 263 460 c 0
 373 460 461 364 471 247 c 2
 472 225 l 1
EndSplineSet
EndChar
StartChar: egrave
Encoding: 167 232 200
Width: 526
VWidth: 1333
Flags: HW
HStem: -7 42<144 337.7> 225 40<99 428> 420 40<160.3 367>
VStem: 55 38<84.6 227>
Fore
100 652 m 1
 176 652 l 1
 276 533 l 1
 235 533 l 1
 100 652 l 1
99 265 m 1
 428 265 l 1
 412 355 343 420 263 420 c 0
 184 420 115 355 99 265 c 1
472 225 m 1
 93 225 l 1
 93 117 171 35 261 35 c 0
 320 35 372 69 403 124 c 1
 437 104 l 1
 401 39 336 -7 261 -7 c 0
 145 -7 55 100 55 227 c 0
 55 353 147 460 263 460 c 0
 373 460 461 364 471 247 c 2
 472 225 l 1
EndSplineSet
EndChar
StartChar: iacute
Encoding: 172 237 201
Width: 189
VWidth: 1333
Flags: HW
HStem: 0 21G<75 115> 433 20G<75 115>
VStem: 75 40<0 453>
Fore
147 652 m 1
 221 652 l 1
 87 533 l 1
 45 533 l 1
 147 652 l 1
115 0 m 1
 75 0 l 1
 75 453 l 1
 115 453 l 1
 115 0 l 1
EndSplineSet
EndChar
StartChar: icircumflex
Encoding: 173 238 202
Width: 189
VWidth: 1333
Flags: HW
HStem: 0 21G<75 115> 433 20G<75 115>
VStem: 75 40<0 453>
Fore
115 0 m 1
 75 0 l 1
 75 453 l 1
 115 453 l 1
 115 0 l 1
80 652 m 1
 109 652 l 1
 217 533 l 1
 163 533 l 1
 95 607 l 1
 27 533 l 1
 -28 533 l 1
 80 652 l 1
EndSplineSet
EndChar
StartChar: idieresis
Encoding: 174 239 203
Width: 189
VWidth: 1333
Flags: HW
HStem: 0 21G<75 115> 433 20G<75 115> 533 75<-13 39 147 199>
VStem: -24 75<545 597> 75 40<0 453> 136 75<545 597>
Fore
-24 571 m 0
 -24 591 -7 608 13 608 c 0
 33 608 51 591 51 571 c 0
 51 551 33 533 13 533 c 0
 -7 533 -24 551 -24 571 c 0
136 571 m 0
 136 591 153 608 173 608 c 0
 193 608 211 591 211 571 c 0
 211 551 193 533 173 533 c 0
 153 533 136 551 136 571 c 0
115 0 m 1
 75 0 l 1
 75 453 l 1
 115 453 l 1
 115 0 l 1
EndSplineSet
EndChar
StartChar: igrave
Encoding: 171 236 204
Width: 189
VWidth: 1333
Flags: HW
HStem: 0 21G<75 115> 433 20G<75 115>
VStem: 75 40<0 453>
Fore
-44 652 m 1
 32 652 l 1
 132 533 l 1
 91 533 l 1
 -44 652 l 1
115 0 m 1
 75 0 l 1
 75 453 l 1
 115 453 l 1
 115 0 l 1
EndSplineSet
EndChar
StartChar: ntilde
Encoding: 176 241 205
Width: 479
VWidth: 1333
Flags: HW
HStem: 0 21G<75 115 365 405> 420 40<195.2 368.4> 525 42<280.273 311.871> 575 38<167.578 200.038>
VStem: 75 40<0 315.4 325 438.825> 125 27<533 567.036> 327 25<575.294 608> 365 40<0 356.7>
Fore
327 608 m 1
 352 604 l 1
 352 589 351 577 348 567 c 0
 337 525 309 525 299 525 c 0
 273 525 245 543 231 553 c 0
 209 568 193 575 183 575 c 0
 172 575 153 568 152 533 c 1
 125 533 l 1
 125 545 125 556 129 571 c 0
 139 603 161 613 183 613 c 0
 211 613 240 595 252 587 c 0
 273 573 289 567 299 567 c 0
 308 567 327 576 327 608 c 1
64 453 m 1
 107 453 l 1
 112 436 115 416 115 393 c 2
 115 325 l 1
 147 397 212 460 268 460 c 0
 363 460 405 376 405 280 c 2
 405 0 l 1
 365 0 l 1
 365 280 l 2
 365 339 345 420 267 420 c 0
 193 420 115 295 115 227 c 2
 115 0 l 1
 75 0 l 1
 75 393 l 2
 75 420 71 440 64 453 c 1
EndSplineSet
EndChar
StartChar: oacute
Encoding: 178 243 206
Width: 573
VWidth: 1333
Flags: HW
HStem: -7 40<148.9 427.1> 420 40<148.9 427.1>
VStem: 55 40<87.9 364.8> 481 38<87.9 364.8>
Fore
336 652 m 1
 412 652 l 1
 277 533 l 1
 236 533 l 1
 336 652 l 1
287 460 m 0
 415 460 519 356 519 227 c 0
 519 97 415 -7 287 -7 c 0
 159 -7 55 97 55 227 c 0
 55 356 159 460 287 460 c 0
95 227 m 0
 95 120 181 33 288 33 c 0
 395 33 481 120 481 227 c 0
 481 333 395 420 288 420 c 0
 181 420 95 333 95 227 c 0
EndSplineSet
EndChar
StartChar: ocircumflex
Encoding: 179 244 207
Width: 573
VWidth: 1333
Flags: HW
HStem: -7 40<148.9 427.1> 420 40<148.9 427.1>
VStem: 55 40<87.9 364.8> 481 38<87.9 364.8>
Fore
271 652 m 1
 300 652 l 1
 408 533 l 1
 353 533 l 1
 285 607 l 1
 217 533 l 1
 163 533 l 1
 271 652 l 1
287 460 m 0
 415 460 519 356 519 227 c 0
 519 97 415 -7 287 -7 c 0
 159 -7 55 97 55 227 c 0
 55 356 159 460 287 460 c 0
95 227 m 0
 95 120 181 33 288 33 c 0
 395 33 481 120 481 227 c 0
 481 333 395 420 288 420 c 0
 181 420 95 333 95 227 c 0
EndSplineSet
EndChar
StartChar: odieresis
Encoding: 181 246 208
Width: 573
VWidth: 1333
Flags: HW
HStem: -7 40<148.9 427.1> 420 40<148.9 427.1> 533 75<179 231 339 391>
VStem: 55 40<87.9 364.8> 168 75<545 597> 328 75<545 597> 481 38<87.9 364.8>
Fore
168 571 m 0
 168 591 185 608 205 608 c 0
 225 608 243 591 243 571 c 0
 243 551 225 533 205 533 c 0
 185 533 168 551 168 571 c 0
328 571 m 0
 328 591 345 608 365 608 c 0
 385 608 403 591 403 571 c 0
 403 551 385 533 365 533 c 0
 345 533 328 551 328 571 c 0
287 460 m 0
 415 460 519 356 519 227 c 0
 519 97 415 -7 287 -7 c 0
 159 -7 55 97 55 227 c 0
 55 356 159 460 287 460 c 0
95 227 m 0
 95 120 181 33 288 33 c 0
 395 33 481 120 481 227 c 0
 481 333 395 420 288 420 c 0
 181 420 95 333 95 227 c 0
EndSplineSet
EndChar
StartChar: ograve
Encoding: 177 242 209
Width: 573
VWidth: 1333
Flags: HW
HStem: -7 40<148.9 427.1> 420 40<148.9 427.1>
VStem: 55 40<87.9 364.8> 481 38<87.9 364.8>
Fore
159 652 m 1
 235 652 l 1
 335 533 l 1
 293 533 l 1
 159 652 l 1
287 460 m 0
 415 460 519 356 519 227 c 0
 519 97 415 -7 287 -7 c 0
 159 -7 55 97 55 227 c 0
 55 356 159 460 287 460 c 0
95 227 m 0
 95 120 181 33 288 33 c 0
 395 33 481 120 481 227 c 0
 481 333 395 420 288 420 c 0
 181 420 95 333 95 227 c 0
EndSplineSet
EndChar
StartChar: otilde
Encoding: 180 245 210
Width: 573
VWidth: 1333
Flags: HW
HStem: -7 40<148.9 427.1> 420 40<148.9 427.1> 525 42<324.273 355.871> 575 38<211.578 244.038>
VStem: 55 40<87.9 364.8> 169 27<533 567.036> 371 25<575.294 608> 481 38<87.9 364.8>
Fore
371 608 m 1
 396 604 l 1
 396 589 395 577 392 567 c 0
 381 525 353 525 343 525 c 0
 317 525 289 543 275 553 c 0
 253 568 237 575 227 575 c 0
 216 575 197 568 196 533 c 1
 169 533 l 1
 169 545 169 556 173 571 c 0
 183 603 205 613 227 613 c 0
 255 613 284 595 296 587 c 0
 317 573 333 567 343 567 c 0
 352 567 371 576 371 608 c 1
287 460 m 0
 415 460 519 356 519 227 c 0
 519 97 415 -7 287 -7 c 0
 159 -7 55 97 55 227 c 0
 55 356 159 460 287 460 c 0
95 227 m 0
 95 120 181 33 288 33 c 0
 395 33 481 120 481 227 c 0
 481 333 395 420 288 420 c 0
 181 420 95 333 95 227 c 0
EndSplineSet
EndChar
StartChar: scaron
Encoding: 196 353 211
Width: 354
VWidth: 1333
Flags: HW
HStem: -8 40<114.6 247.2> 421 40<129.6 220.6>
VStem: 32 40<35.2546 129.578> 67 40<226.2 409.5> 284 39<52.7 286.7>
Fore
193 493 m 1xc8
 164 493 l 1
 56 612 l 1
 111 612 l 1
 179 539 l 1
 247 612 l 1
 301 612 l 1
 193 493 l 1xc8
296 373 m 1
 259 361 l 1
 244 403 211 421 179 421 c 0
 141 421 107 396 107 351 c 0xd8
 107 255 323 281 323 131 c 0
 323 44 249 -8 176 -8 c 0
 111 -8 45 33 32 129 c 1
 72 135 l 1xe8
 81 63 129 32 177 32 c 0
 231 32 284 71 284 132 c 0
 284 251 67 219 67 352 c 0xd8
 67 423 121 461 179 461 c 0
 227 461 276 433 296 373 c 1
EndSplineSet
EndChar
StartChar: uacute
Encoding: 185 250 212
Width: 477
VWidth: 1333
Flags: HW
HStem: -7 40<148.6 325.4> 433 20G<75 115 363 403>
VStem: 75 40<95 453> 363 40<71.6 453>
Fore
300 652 m 1
 376 652 l 1
 241 533 l 1
 200 533 l 1
 300 652 l 1
75 453 m 1
 115 453 l 1
 115 173 l 2
 115 95 169 33 237 33 c 0
 305 33 363 95 363 173 c 2
 363 453 l 1
 403 453 l 1
 403 173 l 2
 403 75 331 -7 239 -7 c 0
 147 -7 75 75 75 173 c 2
 75 453 l 1
EndSplineSet
EndChar
StartChar: ucircumflex
Encoding: 186 251 213
Width: 477
VWidth: 1333
Flags: HW
HStem: -7 40<148.6 325.4> 433 20G<75 115 363 403>
VStem: 75 40<95 453> 363 40<71.6 453>
Fore
224 652 m 1
 253 652 l 1
 361 533 l 1
 307 533 l 1
 239 607 l 1
 171 533 l 1
 116 533 l 1
 224 652 l 1
75 453 m 1
 115 453 l 1
 115 173 l 2
 115 95 169 33 237 33 c 0
 305 33 363 95 363 173 c 2
 363 453 l 1
 403 453 l 1
 403 173 l 2
 403 75 331 -7 239 -7 c 0
 147 -7 75 75 75 173 c 2
 75 453 l 1
EndSplineSet
EndChar
StartChar: udieresis
Encoding: 187 252 214
Width: 477
VWidth: 1333
Flags: HW
HStem: -7 40<148.6 325.4> 433 20G<75 115 363 403> 533 75<135 187 295 347>
VStem: 75 40<95 453> 124 75<545 597> 284 75<545 597> 363 40<71.6 453>
Fore
124 571 m 0
 124 591 141 608 161 608 c 0
 181 608 199 591 199 571 c 0
 199 551 181 533 161 533 c 0
 141 533 124 551 124 571 c 0
284 571 m 0
 284 591 301 608 321 608 c 0
 341 608 359 591 359 571 c 0
 359 551 341 533 321 533 c 0
 301 533 284 551 284 571 c 0
75 453 m 1
 115 453 l 1
 115 173 l 2
 115 95 169 33 237 33 c 0
 305 33 363 95 363 173 c 2
 363 453 l 1
 403 453 l 1
 403 173 l 2
 403 75 331 -7 239 -7 c 0
 147 -7 75 75 75 173 c 2
 75 453 l 1
EndSplineSet
EndChar
StartChar: ugrave
Encoding: 184 249 215
Width: 477
VWidth: 1333
Flags: HW
HStem: -7 40<148.6 325.4> 433 20G<75 115 363 403>
VStem: 75 40<95 453> 363 40<71.6 453>
Fore
105 652 m 1
 181 652 l 1
 281 533 l 1
 240 533 l 1
 105 652 l 1
75 453 m 1
 115 453 l 1
 115 173 l 2
 115 95 169 33 237 33 c 0
 305 33 363 95 363 173 c 2
 363 453 l 1
 403 453 l 1
 403 173 l 2
 403 75 331 -7 239 -7 c 0
 147 -7 75 75 75 173 c 2
 75 453 l 1
EndSplineSet
EndChar
StartChar: yacute
Encoding: 188 253 216
Width: 425
VWidth: 1333
Flags: HW
HStem: 433 20G<16 59 367 409>
VStem: 16 393<453 453>
Fore
273 652 m 1
 349 652 l 1
 215 533 l 1
 173 533 l 1
 273 652 l 1
149 -233 m 1
 105 -233 l 1
 193 -1 l 1
 16 453 l 1
 59 453 l 1
 215 53 l 1
 367 453 l 1
 409 453 l 1
 149 -233 l 1
EndSplineSet
EndChar
StartChar: ydieresis
Encoding: 190 255 217
Width: 423
VWidth: 1333
Flags: HW
HStem: 433 20G<16 57 365 408> 540 75<109 161 269 321>
VStem: 97 75<551 603> 257 75<551 603>
Fore
97 577 m 0
 97 597 115 615 135 615 c 0
 155 615 172 597 172 577 c 0
 172 557 155 540 135 540 c 0
 115 540 97 557 97 577 c 0
257 577 m 0
 257 597 275 615 295 615 c 0
 315 615 332 597 332 577 c 0
 332 557 315 540 295 540 c 0
 275 540 257 557 257 577 c 0
16 453 m 1
 57 453 l 1
 213 53 l 1
 365 453 l 1
 408 453 l 1
 148 -233 l 1
 105 -233 l 1
 193 -1 l 1
 16 453 l 1
EndSplineSet
EndChar
StartChar: zcaron
Encoding: 199 382 218
Width: 397
VWidth: 1333
Flags: HW
HStem: 0 40<92 367> 413 40<71 307>
VStem: 16 365<0 453>
Fore
227 493 m 1
 197 493 l 1
 89 612 l 1
 144 612 l 1
 212 539 l 1
 280 612 l 1
 335 612 l 1
 227 493 l 1
71 453 m 1
 381 453 l 1
 92 40 l 1
 380 40 l 1
 367 0 l 1
 16 0 l 1
 307 413 l 1
 57 413 l 1
 71 453 l 1
EndSplineSet
EndChar
StartChar: uni00AD
Encoding: 108 173 220
Width: 463
VWidth: 1333
Flags: HW
HStem: 207 40<55 409>
Fore
409 247 m 1
 409 207 l 1
 55 207 l 1
 55 247 l 1
 409 247 l 1
EndSplineSet
EndChar
StartChar: uni00B2
Encoding: 113 178 221
Width: 395
VWidth: 1333
Flags: HW
HStem: 413 40<100 331> 824 40<142 270.7>
VStem: 75 40<719 797> 299 42<574.7 797>
Fore
331 413 m 1
 55 412 l 1
 55 432 l 2
 55 584 299 608 299 719 c 0
 299 779 256 824 207 824 c 0
 157 824 115 779 115 719 c 1
 75 719 l 1
 75 797 133 864 208 864 c 0
 283 864 341 799 341 720 c 0
 341 587 124 560 100 453 c 1
 331 453 l 1
 331 413 l 1
EndSplineSet
EndChar
StartChar: uni00B3
Encoding: 114 179 222
Width: 389
VWidth: 1333
Flags: HW
HStem: 407 38<123.2 268.8> 648 40<196 248> 823 40<144 248>
VStem: 55 40<474.2 547> 84 40<752 802.7> 268 37<705.2 802.7> 297 38<474.2 614.6>
Fore
124 752 m 1xec
 84 752 l 1
 84 813 133 863 195 863 c 0
 256 863 305 813 305 752 c 0xec
 305 716 288 687 263 668 c 1
 305 644 335 599 335 547 c 0
 335 469 272 407 195 407 c 0
 117 407 55 469 55 547 c 1
 95 547 l 1
 95 491 140 445 196 445 c 0
 252 445 297 491 297 547 c 0xf2
 297 603 252 648 196 648 c 1
 196 688 l 1
 236 688 268 713 268 752 c 0
 268 791 236 823 196 823 c 0
 156 823 124 791 124 752 c 1xec
EndSplineSet
EndChar
StartChar: uni00B5
Encoding: 116 181 223
Width: 477
VWidth: 1333
Flags: HW
HStem: -4 40<172.7 325.4> 433 20G<75 115 363 403>
VStem: 75 40<-167.782 57 97 453> 363 40<73.3 453>
Fore
75 453 m 1
 115 453 l 1
 115 176 l 2
 115 97 169 36 237 36 c 0
 305 36 363 97 363 176 c 2
 363 453 l 1
 403 453 l 1
 403 176 l 2
 403 77 331 -4 239 -4 c 0
 188 -4 144 20 115 57 c 1
 115 -136 l 2
 115 -163 121 -188 132 -209 c 1
 97 -228 l 1
 83 -201 75 -171 75 -137 c 2
 75 453 l 1
EndSplineSet
EndChar
StartChar: uni00B9
Encoding: 120 185 224
Width: 350
VWidth: 1333
Flags: HW
HStem: 413 448<187 225>
VStem: 187 38<413 785>
Fore
187 413 m 1
 187 785 l 1
 133 749 l 1
 111 783 l 1
 225 861 l 1
 225 413 l 1
 187 413 l 1
EndSplineSet
EndChar
StartChar: uni0E01
Encoding: 209 3585 225
Width: 527
VWidth: 1333
Flags: HW
HStem: 0 21G<75 115 413 453> 500 40<171.8 359>
VStem: 75 40<0 296.4> 413 40<0 471>
Fore
97 384 m 1
 172 341 l 1
 135 323 115 300 115 247 c 2
 115 0 l 1
 75 0 l 1
 75 247 l 2
 75 285 101 320 127 339 c 1
 57 376 l 1
 87 500 188 540 255 540 c 0
 364 540 453 451 453 341 c 2
 453 0 l 1
 413 0 l 1
 413 341 l 2
 413 441 335 500 255 500 c 0
 191 500 121 464 97 384 c 1
EndSplineSet
EndChar
StartChar: uni0E02
Encoding: 210 3586 226
Width: 546
VWidth: 1333
Flags: HW
HStem: -7 40<158.6 387.4> 300 40<115 224.7> 493 40<175 233>
VStem: 75 40<104 300> 233 40<349.6 493> 432 40<77.6 533>
Fore
161 493 m 1
 175 533 l 1
 273 533 l 1
 273 373 l 2
 273 333 240 300 200 300 c 2
 115 300 l 1
 115 192 l 2
 115 104 185 33 273 33 c 0
 361 33 432 104 432 192 c 2
 432 533 l 1
 472 533 l 1
 472 192 l 2
 472 83 383 -7 273 -7 c 0
 164 -7 75 83 75 192 c 2
 75 340 l 1
 200 340 l 2
 219 340 233 355 233 373 c 2
 233 493 l 1
 161 493 l 1
EndSplineSet
EndChar
StartChar: uni0E03
Encoding: 211 3587 227
Width: 546
VWidth: 1333
Flags: HW
HStem: -7 40<159.9 387.4> 300 40<115 223.4>
VStem: 75 40<104 300> 233 40<349.6 470> 432 40<77.6 533>
Fore
88 505 m 1
 107 540 l 1
 129 528 159 503 181 470 c 1
 235 533 l 1
 273 533 l 1
 273 373 l 2
 273 333 240 300 200 300 c 2
 115 300 l 1
 115 192 l 2
 115 104 186 33 273 33 c 0
 361 33 432 104 432 192 c 2
 432 533 l 1
 472 533 l 1
 472 192 l 2
 472 82 383 -7 273 -7 c 0
 164 -7 75 82 75 192 c 2
 75 340 l 1
 200 340 l 2
 218 340 233 355 233 373 c 2
 233 470 l 1
 172 397 l 1
 164 416 141 475 88 505 c 1
EndSplineSet
EndChar
StartChar: uni0E04
Encoding: 212 3588 228
Width: 546
VWidth: 1333
Flags: HW
HStem: 0 21G<75 115 432 472> 247 40<115 260> 500 40<158.6 387.4>
VStem: 75 40<0 247 287 455.4> 432 40<0 455.4>
Fore
273 287 m 1
 260 247 l 1
 115 247 l 1
 115 0 l 1
 75 0 l 1
 75 341 l 2
 75 451 164 540 273 540 c 0
 383 540 472 451 472 341 c 2
 472 0 l 1
 432 0 l 1
 432 341 l 2
 432 429 361 500 273 500 c 0
 185 500 115 429 115 341 c 2
 115 287 l 1
 273 287 l 1
EndSplineSet
EndChar
StartChar: uni0E05
Encoding: 213 3589 229
Width: 546
VWidth: 1333
Flags: HW
HStem: 0 21G<75 115 432 472> 247 40<115 260> 416 40<246 291.5>
VStem: 75 40<0 247 287 430.6> 432 40<0 430.6>
Fore
273 287 m 1
 260 247 l 1
 115 247 l 1
 115 0 l 1
 75 0 l 1
 75 363 l 2
 75 433 104 495 161 532 c 2
 177 543 l 1
 188 527 l 2
 225 472 252 456 272 456 c 0
 287 457 319 465 359 525 c 2
 369 541 l 1
 385 532 l 2
 444 497 471 431 472 363 c 2
 472 0 l 1
 432 0 l 1
 432 363 l 2
 432 415 413 459 379 487 c 1
 349 448 315 416 273 416 c 0
 232 416 197 448 168 487 c 1
 133 459 115 415 115 363 c 2
 115 287 l 1
 273 287 l 1
EndSplineSet
EndChar
StartChar: uni0E06
Encoding: 214 3590 230
Width: 546
VWidth: 1333
Flags: HW
HStem: -7 40<218.1 436.5> 300 40<115 218>
VStem: 75 40<0 149 157 300> 233 40<349.6 470> 432 40<97.1 533>
Fore
115 300 m 1
 115 248 l 2
 115 157 229 33 313 33 c 0
 408 33 432 119 432 192 c 2
 432 533 l 1
 472 533 l 1
 472 192 l 2
 472 84 425 -7 313 -7 c 0
 240 -7 161 68 115 149 c 1
 115 0 l 1
 75 0 l 1
 75 340 l 1
 200 340 l 2
 218 340 233 355 233 373 c 2
 233 470 l 1
 172 397 l 1
 164 416 141 475 88 505 c 1
 107 540 l 1
 129 528 159 503 181 470 c 1
 235 533 l 1
 273 533 l 1
 273 373 l 2
 273 333 240 300 200 300 c 2
 115 300 l 1
EndSplineSet
EndChar
StartChar: uni0E07
Encoding: 215 3591 231
Width: 546
VWidth: 1333
Flags: HW
HStem: -7 40<158.6 387.4> 493 40<273 387.4>
VStem: 75 40<77.6 373> 432 40<77.6 423>
Fore
115 387 m 1
 115 192 l 2
 115 104 185 33 273 33 c 0
 361 33 432 104 432 192 c 2
 432 335 l 2
 432 423 361 493 273 493 c 1
 273 533 l 1
 383 533 472 444 472 335 c 2
 472 192 l 2
 472 83 383 -7 273 -7 c 0
 164 -7 75 83 75 192 c 2
 75 373 l 1
 115 387 l 1
EndSplineSet
EndChar
StartChar: uni0E08
Encoding: 216 3592 232
Width: 506
VWidth: 1333
Flags: HW
HStem: 0 21G<392 432> 247 40<247 392> 500 40<118.6 347.4>
VStem: 35 40<341 455.4> 392 40<0 247 287 429>
Fore
233 247 m 1
 247 287 l 1
 392 287 l 1
 392 341 l 2
 392 429 321 500 233 500 c 0
 145 500 75 429 75 341 c 1
 35 341 l 1
 35 451 124 540 233 540 c 0
 343 540 432 451 432 341 c 2
 432 0 l 1
 392 0 l 1
 392 247 l 1
 233 247 l 1
EndSplineSet
EndChar
StartChar: uni0E09
Encoding: 217 3593 233
Width: 506
VWidth: 1333
Flags: HW
HStem: -4 40<125.1 300.3> 237 40<28 63> 500 40<118.6 347.4>
VStem: 35 40<341 455.4> 63 40<62.4 237>
Fore
392 0 m 1xf0
 392 143 l 1
 349 64 279 -4 208 -4 c 0
 92 -4 64 93 63 195 c 2
 63 237 l 1
 15 237 l 1
 28 277 l 1
 103 277 l 1
 103 195 l 2xe8
 104 72 144 36 207 36 c 0
 293 36 392 160 392 248 c 2
 392 341 l 2
 392 429 321 500 233 500 c 0
 145 500 75 429 75 341 c 1
 35 341 l 1
 35 451 124 540 233 540 c 0
 343 540 432 451 432 341 c 2
 432 0 l 1
 392 0 l 1xf0
EndSplineSet
EndChar
StartChar: uni0E0A
Encoding: 218 3594 234
Width: 546
VWidth: 1333
Flags: HW
HStem: -7 40<158.6 387.4> 300 40<115 224.7> 389 40<273 359> 493 40<175 233>
VStem: 75 40<77.6 300> 233 40<349.6 389 429 493> 432 40<104 358.5 457.5 533>
Fore
75 192 m 2
 75 340 l 1
 200 340 l 2
 219 340 233 355 233 373 c 2
 233 493 l 1
 161 493 l 1
 175 533 l 1
 273 533 l 1
 273 429 l 1
 359 429 l 2
 407 429 432 468 432 516 c 2
 432 533 l 1
 472 533 l 1
 472 516 l 2
 472 471 449 431 415 408 c 1
 449 385 472 345 472 300 c 2
 472 192 l 2
 472 83 383 -7 273 -7 c 0
 164 -7 75 83 75 192 c 2
359 389 m 2
 273 389 l 1
 273 373 l 2
 273 333 240 300 200 300 c 2
 115 300 l 1
 115 192 l 2
 115 104 185 33 273 33 c 0
 361 33 432 104 432 192 c 2
 432 300 l 2
 432 348 407 389 359 389 c 2
EndSplineSet
EndChar
StartChar: uni0E0B
Encoding: 219 3595 235
Width: 546
VWidth: 1333
Flags: HW
HStem: -7 40<158.6 387.4> 300 40<115 223.4> 389 40<273 359>
VStem: 75 40<77.6 300> 233 40<355 389 429 470> 432 40<104 358.5 457.5 533>
Fore
273 429 m 1
 359 429 l 2
 407 429 432 468 432 516 c 2
 432 533 l 1
 472 533 l 1
 472 516 l 2
 472 471 449 431 415 408 c 1
 449 385 472 345 472 300 c 2
 472 192 l 2
 472 83 383 -7 273 -7 c 0
 164 -7 75 83 75 192 c 2
 75 340 l 1
 200 340 l 2
 218 340 233 355 233 373 c 2
 233 470 l 1
 172 397 l 1
 164 416 141 475 88 505 c 1
 107 540 l 1
 129 528 159 503 181 470 c 1
 235 533 l 1
 273 533 l 1
 273 429 l 1
115 300 m 1
 115 192 l 2
 115 104 185 33 273 33 c 0
 361 33 432 104 432 192 c 2
 432 300 l 2
 432 348 407 389 359 389 c 2
 273 389 l 1
 273 373 l 2
 273 333 240 300 200 300 c 2
 115 300 l 1
EndSplineSet
EndChar
StartChar: uni0E0C
Encoding: 220 3596 236
Width: 843
VWidth: 1333
Flags: HW
HStem: -8 40<534.3 705.9> 0 40<115 155> 500 40<171.8 359>
VStem: 75 40<40 296.4> 413 40<0 132 153 471> 729 40<32.4 533>
Fore
168 40 m 1x7c
 155 0 l 1
 75 0 l 1x7c
 75 247 l 2
 75 285 101 320 127 339 c 1
 57 376 l 1
 87 500 188 540 255 540 c 0
 364 540 453 451 453 341 c 2
 453 247 l 2
 453 153 541 32 624 32 c 0
 687 32 729 69 729 191 c 2
 729 533 l 1
 769 533 l 1
 769 191 l 2
 769 47 711 -8 624 -8 c 0xbc
 555 -8 492 57 453 132 c 1
 453 0 l 1
 413 0 l 1
 413 341 l 2
 413 441 335 500 255 500 c 0
 191 500 121 464 97 384 c 1
 172 341 l 1
 135 323 115 300 115 247 c 2
 115 40 l 1
 168 40 l 1x7c
EndSplineSet
EndChar
StartChar: uni0E0D
Encoding: 221 3597 237
Width: 843
VWidth: 1333
Flags: HW
HStem: -153 38<539.7 691.8> -7 40<494.2 668.4> 0 40<115 155> 500 40<171.8 359>
VStem: 75 40<40 296.4> 413 40<103 471> 732 37<-71.7 65 76.3 533>
Fore
168 40 m 1xbe
 155 0 l 1
 75 0 l 1xbe
 75 247 l 2
 75 285 101 320 127 339 c 1
 57 376 l 1
 87 500 188 540 255 540 c 0
 364 540 453 451 453 341 c 2
 453 192 l 2
 453 103 517 33 593 33 c 0
 669 33 732 103 732 192 c 2
 732 533 l 1
 769 533 l 1
 769 45 l 2
 769 -63 695 -153 593 -153 c 0
 536 -153 487 -125 455 -81 c 1
 489 -61 l 1
 515 -95 552 -115 593 -115 c 0
 669 -115 732 -45 732 44 c 2
 732 65 l 1
 700 21 651 -7 593 -7 c 0xde
 492 -7 413 83 413 191 c 2
 413 341 l 2
 413 441 335 500 255 500 c 0
 191 500 121 464 97 384 c 1
 172 341 l 1
 135 323 115 300 115 247 c 2
 115 40 l 1
 168 40 l 1xbe
EndSplineSet
Substitution2: "Single Substitution lookup 8" uni0E0D.descless
EndChar
StartChar: uni0E0E
Encoding: 222 3598 238
Width: 527
VWidth: 1333
Flags: HW
HStem: -188 40<19 168 405 413> 0 40<41 75> 500 40<171.8 359>
VStem: 75 40<40 285> 413 40<-148 471>
AnchorPoint: "BelowBase" 452 -198 basechar 0
Fore
28 0 m 1
 41 40 l 1
 75 40 l 1
 75 247 l 2
 75 285 101 320 127 339 c 1
 57 376 l 1
 87 500 188 540 255 540 c 0
 364 540 453 451 453 341 c 2
 453 -188 l 1
 395 -188 l 1
 284 -115 l 1
 181 -188 l 1
 5 -188 l 1
 19 -148 l 1
 168 -148 l 1
 281 -67 l 1
 405 -148 l 1
 413 -148 l 1
 413 341 l 2
 413 441 335 500 255 500 c 0
 191 500 121 464 97 384 c 1
 172 341 l 1
 135 323 115 300 115 247 c 2
 115 0 l 1
 28 0 l 1
EndSplineSet
EndChar
StartChar: uni0E0F
Encoding: 223 3599 239
Width: 527
VWidth: 1333
Flags: HW
HStem: -188 40<19 76 408 413> 0 40<41 75> 500 40<171.8 359>
VStem: 75 40<40 296.4> 413 40<-148 441>
AnchorPoint: "BelowBase" 452 -198 basechar 0
Fore
76 -148 m 1
 152 -61 l 1
 240 -141 l 1
 323 -61 l 1
 408 -148 l 1
 413 -148 l 1
 413 341 l 2
 413 441 335 500 255 500 c 0
 191 500 121 464 97 384 c 1
 172 341 l 1
 135 323 115 300 115 247 c 2
 115 0 l 1
 28 0 l 1
 41 40 l 1
 75 40 l 1
 75 247 l 2
 75 285 101 320 127 339 c 1
 57 376 l 1
 87 500 188 540 255 540 c 0
 364 540 453 451 453 341 c 2
 453 -188 l 1
 392 -188 l 1
 323 -117 l 1
 243 -195 l 1
 157 -117 l 1
 95 -188 l 1
 5 -188 l 1
 19 -148 l 1
 76 -148 l 1
EndSplineSet
EndChar
StartChar: uni0E10
Encoding: 224 3600 240
Width: 522
VWidth: 1333
Flags: HW
HStem: -188 40<13 71 403 408> 0 21G<408 448> 247 40<263 408> 500 40<134.6 306.2>
VStem: 51 40<341 455.4> 408 40<-148 -71 0 247 287 407.3>
Fore
408 -148 m 1
 408 -71 l 1
 377 -71 l 1
 391 -31 l 1
 448 -31 l 1
 448 -188 l 1
 387 -188 l 1
 317 -117 l 1
 237 -195 l 1
 152 -117 l 1
 89 -188 l 1
 0 -188 l 1
 13 -148 l 1
 71 -148 l 1
 147 -61 l 1
 235 -141 l 1
 317 -61 l 1
 403 -148 l 1
 408 -148 l 1
408 287 m 1
 408 341 l 2
 408 429 337 500 249 500 c 0
 161 500 91 429 91 341 c 1
 51 341 l 1
 51 451 140 540 249 540 c 0
 293 540 333 525 367 501 c 1
 417 535 l 1
 440 501 l 1
 397 473 l 1
 429 439 448 392 448 341 c 2
 448 0 l 1
 408 0 l 1
 408 247 l 1
 249 247 l 1
 263 287 l 1
 408 287 l 1
EndSplineSet
Substitution2: "Single Substitution lookup 8" uni0E10.descless
EndChar
StartChar: uni0E11
Encoding: 225 3601 241
Width: 546
VWidth: 1333
Flags: HW
HStem: 0 21G<75 115 432 472> 500 40<317.6 464.5>
VStem: 75 40<0 235> 171 40<423 470> 432 40<0 486.482>
Fore
75 0 m 1
 75 248 l 2
 75 248 116 310 171 376 c 1
 171 470 l 1
 109 397 l 1
 101 416 79 475 25 505 c 1
 44 540 l 1
 66 528 96 503 118 470 c 1
 172 533 l 1
 211 533 l 1
 211 423 l 1
 268 486 332 540 380 540 c 0
 484 540 472 434 472 336 c 2
 472 0 l 1
 432 0 l 1
 432 336 l 2
 432 418 445 500 380 500 c 0
 325 500 189 347 115 235 c 1
 115 0 l 1
 75 0 l 1
EndSplineSet
EndChar
StartChar: uni0E12
Encoding: 226 3602 242
Width: 870
VWidth: 1333
Flags: HW
HStem: -7 40<113.2 319.9 560 731.6> 284 40<188 225> 415 40<247.6 319.1>
VStem: 55 40<105.4 368> 316 40<98.6 241.6> 440 40<0 133 155 426.8> 756 40<34.7 533>
Fore
175 284 m 1
 188 324 l 1
 225 324 l 2
 312 324 356 244 356 161 c 0
 356 97 327 -7 212 -7 c 0
 109 -7 55 117 55 251 c 0
 55 359 99 477 184 541 c 1
 221 484 256 455 284 455 c 0
 311 455 343 483 381 540 c 1
 441 499 480 435 480 367 c 2
 480 248 l 2
 480 155 568 33 651 33 c 0
 713 33 756 71 756 192 c 2
 756 533 l 1
 796 533 l 1
 796 192 l 2
 796 48 737 -7 651 -7 c 0
 581 -7 519 59 480 133 c 1
 480 0 l 1
 440 0 l 1
 440 367 l 2
 440 413 423 455 389 484 c 1
 356 441 317 415 284 415 c 0
 248 415 211 440 177 484 c 1
 123 432 95 341 95 251 c 0
 95 139 136 33 212 33 c 0
 295 33 316 113 316 161 c 0
 316 223 285 284 225 284 c 2
 175 284 l 1
EndSplineSet
EndChar
StartChar: uni0E13
Encoding: 227 3603 243
Width: 843
VWidth: 1333
Flags: HW
HStem: -8 40<476.4 648.7> 0 40<115 155> 500 40<171.8 359>
VStem: 75 40<40 296.4> 413 40<69 471> 729 40<0 533>
Fore
97 384 m 1xbc
 172 341 l 1
 135 323 115 300 115 247 c 2
 115 40 l 1
 168 40 l 1
 155 0 l 1
 75 0 l 1x7c
 75 247 l 2
 75 285 101 320 127 339 c 1
 57 376 l 1
 87 500 188 540 255 540 c 0
 364 540 453 451 453 341 c 2
 453 191 l 2
 453 69 495 32 557 32 c 0xbc
 640 32 729 153 729 247 c 2
 729 533 l 1
 769 533 l 1
 769 0 l 1
 729 0 l 1x7c
 729 132 l 1
 691 57 628 -8 559 -8 c 0
 472 -8 413 47 413 191 c 2
 413 341 l 2
 413 441 335 500 255 500 c 0
 191 500 121 464 97 384 c 1xbc
EndSplineSet
EndChar
StartChar: uni0E14
Encoding: 228 3604 244
Width: 554
VWidth: 1333
Flags: HW
HStem: -7 40<114.5 301.7> 284 40<188 225> 500 40<112.6 393.4>
VStem: 55 40<97.6 403.1> 316 40<71.3 241.6> 440 40<0 455.4>
Fore
175 284 m 1
 188 324 l 1
 225 324 l 2
 312 324 356 244 356 161 c 0
 356 71 308 -7 212 -7 c 0
 111 -7 55 112 55 251 c 0
 55 387 124 540 279 540 c 0
 388 540 480 451 480 341 c 2
 480 0 l 1
 440 0 l 1
 440 341 l 2
 440 429 367 500 279 500 c 0
 151 500 95 368 95 251 c 0
 95 133 137 33 212 33 c 0
 281 33 316 92 316 161 c 0
 316 223 285 284 225 284 c 2
 175 284 l 1
EndSplineSet
EndChar
StartChar: uni0E15
Encoding: 229 3605 245
Width: 554
VWidth: 1333
Flags: HW
HStem: -7 40<113.2 319.9> 284 40<188 225> 415 40<247.6 319.1>
VStem: 55 40<105.4 368> 316 40<98.6 241.6> 440 40<0 426.8>
Fore
175 284 m 1
 188 324 l 1
 225 324 l 2
 312 324 356 244 356 161 c 0
 356 97 327 -7 212 -7 c 0
 109 -7 55 117 55 251 c 0
 55 359 99 477 184 541 c 1
 221 484 256 455 284 455 c 0
 311 455 343 483 381 540 c 1
 441 499 480 435 480 367 c 2
 480 0 l 1
 440 0 l 1
 440 367 l 2
 440 413 423 455 389 484 c 1
 356 441 317 415 284 415 c 0
 248 415 211 440 177 484 c 1
 123 432 95 341 95 251 c 0
 95 139 136 33 212 33 c 0
 295 33 316 113 316 161 c 0
 316 223 285 284 225 284 c 2
 175 284 l 1
EndSplineSet
EndChar
StartChar: uni0E16
Encoding: 230 3606 246
Width: 527
VWidth: 1333
Flags: HW
HStem: 0 40<115 155> 500 40<171.8 359>
VStem: 75 40<40 296.4> 413 40<0 471>
Fore
97 384 m 1
 172 341 l 1
 135 323 115 300 115 247 c 2
 115 40 l 1
 168 40 l 1
 155 0 l 1
 75 0 l 1
 75 247 l 2
 75 285 101 320 127 339 c 1
 57 376 l 1
 87 500 188 540 255 540 c 0
 364 540 453 451 453 341 c 2
 453 0 l 1
 413 0 l 1
 413 341 l 2
 413 441 335 500 255 500 c 0
 191 500 121 464 97 384 c 1
EndSplineSet
EndChar
StartChar: uni0E17
Encoding: 231 3607 247
Width: 546
VWidth: 1333
Flags: HW
HStem: 0 21G<75 115 432 472> 500 40<218.1 436.5>
VStem: 75 40<0 376 384 533> 432 40<0 437.2>
Fore
75 0 m 1
 75 533 l 1
 115 533 l 1
 115 384 l 1
 161 465 240 540 313 540 c 0
 425 540 472 449 472 341 c 2
 472 0 l 1
 432 0 l 1
 432 341 l 2
 432 415 408 500 313 500 c 0
 229 500 115 376 115 285 c 2
 115 0 l 1
 75 0 l 1
EndSplineSet
EndChar
StartChar: uni0E18
Encoding: 232 3608 248
Width: 546
VWidth: 1333
Flags: HW
HStem: 0 40<115 273> 247 40<115 432> 500 40<158.6 387.4>
VStem: 75 40<40 203 287 455.4> 432 40<84.6 247 341 455.4>
Fore
75 0 m 1
 75 203 l 1
 115 203 l 1
 115 40 l 1
 273 40 l 2
 361 40 432 111 432 199 c 2
 432 247 l 1
 75 247 l 1
 75 341 l 2
 75 451 164 540 273 540 c 0
 383 540 472 451 472 341 c 1
 432 341 l 1
 432 429 361 500 273 500 c 0
 185 500 115 429 115 341 c 2
 115 287 l 1
 472 287 l 1
 472 199 l 2
 472 89 383 0 273 0 c 2
 75 0 l 1
EndSplineSet
EndChar
StartChar: uni0E19
Encoding: 233 3609 249
Width: 546
VWidth: 1333
Flags: HW
HStem: -4 40<110.8 326.6>
VStem: 75 40<121 533> 432 40<0 533>
Fore
75 533 m 1
 115 533 l 1
 115 195 l 2
 115 121 139 36 233 36 c 0
 320 36 432 160 432 248 c 2
 432 533 l 1
 472 533 l 1
 472 0 l 1
 432 0 l 1
 432 149 l 1
 385 68 305 -4 233 -4 c 0
 121 -4 75 87 75 195 c 2
 75 533 l 1
EndSplineSet
EndChar
StartChar: uni0E1A
Encoding: 234 3610 250
Width: 546
VWidth: 1333
Flags: HW
HStem: -7 40<158.6 387.4>
VStem: 75 40<104 533> 432 40<77.6 533>
Fore
75 533 m 1
 115 533 l 1
 115 192 l 2
 115 104 185 33 273 33 c 0
 361 33 432 104 432 192 c 2
 432 533 l 1
 472 533 l 1
 472 192 l 2
 472 83 383 -7 273 -7 c 0
 164 -7 75 83 75 192 c 2
 75 533 l 1
EndSplineSet
EndChar
StartChar: uni0E1B
Encoding: 235 3611 251
Width: 546
VWidth: 1333
Flags: HW
HStem: -7 40<158.6 387.4> 647 20G<432 472>
VStem: 75 40<104 533> 432 40<77.6 667>
AnchorPoint: "AboveBase" 385 568 basechar 0
Fore
75 533 m 1
 115 533 l 1
 115 192 l 2
 115 104 185 33 273 33 c 0
 361 33 432 104 432 192 c 2
 432 667 l 1
 472 667 l 1
 472 192 l 2
 472 83 383 -7 273 -7 c 0
 164 -7 75 83 75 192 c 2
 75 533 l 1
EndSplineSet
EndChar
StartChar: uni0E1C
Encoding: 236 3612 252
Width: 586
VWidth: 1333
Flags: HW
HStem: -7 40<115.2 243.9 335.1 475.5> 495 40<115.2 188>
VStem: 55 40<102.8 425.2> 271 38<115 533> 472 40<79.2 533>
Fore
271 533 m 1
 309 533 l 1
 309 152 l 2
 309 96 325 33 391 33 c 0
 456 33 472 96 472 152 c 2
 472 533 l 1
 512 533 l 1
 512 152 l 2
 512 41 457 -7 391 -7 c 0
 348 -7 311 27 289 69 c 1
 268 27 231 -7 188 -7 c 0
 108 -7 55 103 55 264 c 0
 55 424 108 535 188 535 c 1
 188 495 l 1
 132 495 95 388 95 264 c 0
 95 140 132 33 188 33 c 0
 260 33 271 115 271 152 c 2
 271 533 l 1
EndSplineSet
EndChar
StartChar: uni0E1D
Encoding: 237 3613 253
Width: 586
VWidth: 1333
Flags: HW
HStem: -7 40<115.2 243.9 335.1 475.5> 495 40<115.2 188> 647 20G<472 512>
VStem: 55 40<102.8 425.2> 271 38<115 533> 472 40<79.2 667>
AnchorPoint: "AboveBase" 425 568 basechar 0
Fore
271 533 m 1
 309 533 l 1
 309 152 l 2
 309 96 325 33 391 33 c 0
 456 33 472 96 472 152 c 2
 472 667 l 1
 512 667 l 1
 512 152 l 2
 512 41 457 -7 391 -7 c 0
 348 -7 311 27 289 69 c 1
 268 27 231 -7 188 -7 c 0
 108 -7 55 103 55 264 c 0
 55 424 108 535 188 535 c 1
 188 495 l 1
 132 495 95 388 95 264 c 0
 95 140 132 33 188 33 c 0
 260 33 271 115 271 152 c 2
 271 533 l 1
EndSplineSet
EndChar
StartChar: uni0E1E
Encoding: 238 3614 254
Width: 610
VWidth: 1333
Flags: HW
HStem: -7 40<110.6 257.2 353.8 499.4>
VStem: 75 40<96 533> 285 40<96.1 533> 496 40<79.2 533>
Fore
75 533 m 1
 115 533 l 1
 115 152 l 2
 115 96 131 33 199 33 c 0
 272 33 285 109 285 152 c 2
 285 533 l 1
 325 533 l 1
 325 152 l 2
 325 96 343 33 411 33 c 0
 479 33 496 96 496 152 c 2
 496 533 l 1
 536 533 l 1
 536 152 l 2
 536 41 480 -7 411 -7 c 0
 367 -7 328 27 305 71 c 1
 283 27 244 -7 200 -7 c 0
 131 -7 75 41 75 152 c 2
 75 533 l 1
EndSplineSet
EndChar
StartChar: uni0E1F
Encoding: 239 3615 255
Width: 610
VWidth: 1333
Flags: HW
HStem: -7 40<110.6 257.2 353.8 499.4> 647 20G<496 536>
VStem: 75 40<96 533> 285 40<96.1 533> 496 40<79.2 667>
AnchorPoint: "AboveBase" 449 568 basechar 0
Fore
75 533 m 1
 115 533 l 1
 115 152 l 2
 115 96 131 33 199 33 c 0
 272 33 285 109 285 152 c 2
 285 533 l 1
 325 533 l 1
 325 152 l 2
 325 96 343 33 411 33 c 0
 479 33 496 96 496 152 c 2
 496 667 l 1
 536 667 l 1
 536 152 l 2
 536 41 480 -7 411 -7 c 0
 367 -7 328 27 305 71 c 1
 283 27 244 -7 200 -7 c 0
 131 -7 75 41 75 152 c 2
 75 533 l 1
EndSplineSet
EndChar
StartChar: uni0E20
Encoding: 240 3616 256
Width: 527
VWidth: 1333
Flags: HW
HStem: 0 40<41 75> 500 40<171.8 359>
VStem: 75 40<40 296.4> 413 40<0 471>
Fore
97 384 m 1
 172 341 l 1
 135 323 115 300 115 247 c 2
 115 0 l 1
 28 0 l 1
 41 40 l 1
 75 40 l 1
 75 247 l 2
 75 285 101 320 127 339 c 1
 57 376 l 1
 87 500 188 540 255 540 c 0
 364 540 453 451 453 341 c 2
 453 0 l 1
 413 0 l 1
 413 341 l 2
 413 441 335 500 255 500 c 0
 191 500 121 464 97 384 c 1
EndSplineSet
EndChar
StartChar: uni0E21
Encoding: 241 3617 257
Width: 546
VWidth: 1333
Flags: HW
HStem: -7 40<218.1 436.5>
VStem: 75 40<0 149 157 533> 432 40<97.1 533>
Fore
75 533 m 1
 115 533 l 1
 115 248 l 2
 115 157 229 33 313 33 c 0
 408 33 432 119 432 192 c 2
 432 533 l 1
 472 533 l 1
 472 192 l 2
 472 84 425 -7 313 -7 c 0
 240 -7 161 68 115 149 c 1
 115 0 l 1
 75 0 l 1
 75 533 l 1
EndSplineSet
EndChar
StartChar: uni0E22
Encoding: 242 3618 258
Width: 533
VWidth: 1333
Flags: HW
HStem: -7 40<144 375.4> 316 35<103 152> 495 40<154.7 260>
VStem: 55 41<65.9 268.7> 61 42<351 390.233> 420 39<92 533>
Fore
420 533 m 1xf4
 459 533 l 1
 459 179 l 2
 459 68 368 -7 260 -7 c 0
 152 -7 55 64 55 179 c 0xf4
 55 248 103 300 152 316 c 1
 61 316 l 1
 61 336 l 2
 61 445 151 535 260 535 c 1
 260 495 l 1
 179 495 112 435 103 356 c 2
 103 351 l 1xec
 273 351 l 1
 260 316 l 1
 171 316 96 261 96 179 c 0
 96 92 171 33 261 33 c 0
 349 33 420 92 420 179 c 2
 420 533 l 1xf4
EndSplineSet
EndChar
StartChar: uni0E23
Encoding: 243 3619 259
Width: 546
VWidth: 1333
Flags: HW
HStem: -7 40<273 387.4> 247 40<115 432> 500 40<158.6 387.4>
VStem: 75 40<287 455.4> 432 40<77.6 247 341 455.4>
Fore
472 287 m 1
 472 192 l 2
 472 83 383 -7 273 -7 c 1
 273 33 l 1
 361 33 432 104 432 192 c 2
 432 247 l 1
 75 247 l 1
 75 341 l 2
 75 451 164 540 273 540 c 0
 383 540 472 451 472 341 c 1
 432 341 l 1
 432 429 361 500 273 500 c 0
 185 500 115 429 115 341 c 2
 115 287 l 1
 472 287 l 1
EndSplineSet
EndChar
StartChar: uni0E24
Encoding: 244 3620 260
Width: 527
VWidth: 1333
Flags: HW
HStem: 0 40<115 155> 500 40<171.8 359>
VStem: 75 40<40 296.4> 413 40<-203 471>
Fore
97 384 m 1
 172 341 l 1
 135 323 115 300 115 247 c 2
 115 40 l 1
 168 40 l 1
 155 0 l 1
 75 0 l 1
 75 247 l 2
 75 285 101 320 127 339 c 1
 57 376 l 1
 87 500 188 540 255 540 c 0
 364 540 453 451 453 341 c 2
 453 -203 l 1
 413 -203 l 1
 413 341 l 2
 413 441 335 500 255 500 c 0
 191 500 121 464 97 384 c 1
EndSplineSet
EndChar
StartChar: uni0E25
Encoding: 245 3621 261
Width: 546
VWidth: 1333
Flags: HW
HStem: -7 40<158.6 273> 247 40<115 432> 500 40<158.6 387.4>
VStem: 75 40<104 247 341 455.4> 432 40<0 247 287 429>
Fore
432 0 m 1
 432 247 l 1
 115 247 l 1
 115 192 l 2
 115 104 185 33 273 33 c 1
 273 -7 l 1
 164 -7 75 83 75 192 c 2
 75 287 l 1
 432 287 l 1
 432 341 l 2
 432 429 361 500 273 500 c 0
 185 500 115 429 115 341 c 1
 75 341 l 1
 75 451 164 540 273 540 c 0
 383 540 472 451 472 341 c 2
 472 0 l 1
 432 0 l 1
EndSplineSet
EndChar
StartChar: uni0E26
Encoding: 246 3622 262
Width: 527
VWidth: 1333
Flags: HW
HStem: 0 40<41 75> 500 40<171.8 359>
VStem: 75 40<40 296.4> 413 40<-203 471>
Fore
97 384 m 1
 172 341 l 1
 135 323 115 300 115 247 c 2
 115 0 l 1
 28 0 l 1
 41 40 l 1
 75 40 l 1
 75 247 l 2
 75 285 101 320 127 339 c 1
 57 376 l 1
 87 500 188 540 255 540 c 0
 364 540 453 451 453 341 c 2
 453 -203 l 1
 413 -203 l 1
 413 341 l 2
 413 441 335 500 255 500 c 0
 191 500 121 464 97 384 c 1
EndSplineSet
EndChar
StartChar: uni0E27
Encoding: 247 3623 263
Width: 542
VWidth: 1333
Flags: HW
HStem: -7 40<174.6 390.4> 500 40<170.7 390.4>
VStem: 448 40<96.4 439.6>
Fore
55 149 m 1
 93 165 l 1
 124 75 195 33 263 33 c 0
 361 33 448 136 448 268 c 0
 448 400 361 500 263 500 c 0
 192 500 128 448 97 369 c 1
 60 384 l 1
 95 475 171 540 263 540 c 0
 389 540 488 415 488 267 c 0
 488 119 389 -7 263 -7 c 0
 169 -7 88 52 55 149 c 1
EndSplineSet
EndChar
StartChar: uni0E28
Encoding: 248 3624 264
Width: 546
VWidth: 1333
Flags: HW
HStem: 0 21G<75 115 432 472> 247 40<115 260> 501 40<158.6 334.1>
VStem: 75 40<0 247 287 455.4> 432 40<0 391>
Fore
432 0 m 1
 432 341 l 2
 432 429 361 501 273 501 c 0
 185 501 115 429 115 341 c 2
 115 287 l 1
 273 287 l 1
 260 247 l 1
 115 247 l 1
 115 0 l 1
 75 0 l 1
 75 343 l 2
 75 452 164 541 273 541 c 0
 320 541 363 525 396 499 c 1
 444 540 l 1
 472 512 l 1
 425 471 l 1
 455 436 472 391 472 341 c 2
 472 0 l 1
 432 0 l 1
EndSplineSet
EndChar
StartChar: uni0E29
Encoding: 249 3625 265
Width: 545
VWidth: 1333
Flags: HW
HStem: -7 40<157.6 386.4> 299 40<289 431 472 504>
VStem: 75 40<104 533> 249 40<339 361> 431 41<77.6 299 339 533>
Fore
75 533 m 1
 115 533 l 1
 115 192 l 2
 115 104 184 33 272 33 c 0
 360 33 431 104 431 192 c 2
 431 299 l 1
 249 299 l 1
 249 361 l 1
 289 375 l 1
 289 339 l 1
 431 339 l 1
 431 533 l 1
 471 533 l 1
 471 339 l 1
 517 339 l 1
 504 299 l 1
 472 299 l 1
 472 192 l 2
 472 83 383 -7 273 -7 c 0
 164 -7 75 83 75 192 c 2
 75 533 l 1
EndSplineSet
EndChar
StartChar: uni0E2A
Encoding: 250 3626 266
Width: 546
VWidth: 1333
Flags: HW
HStem: -7 40<158.6 273> 247 40<115 432> 500 41<158.6 334.1>
VStem: 75 40<104 247 343 457.4> 432 40<0 247 287 406>
Fore
115 343 m 1
 75 343 l 1
 75 452 164 541 273 541 c 0
 320 541 363 525 396 499 c 1
 444 540 l 1
 472 512 l 1
 425 471 l 1
 455 436 472 391 472 341 c 2
 472 0 l 1
 432 0 l 1
 432 247 l 1
 115 247 l 1
 115 192 l 2
 115 104 185 33 273 33 c 1
 273 -7 l 1
 164 -7 75 83 75 192 c 2
 75 287 l 1
 432 287 l 1
 432 341 l 2
 432 429 361 500 273 500 c 0
 185 500 115 431 115 343 c 1
EndSplineSet
EndChar
StartChar: uni0E2B
Encoding: 251 3627 267
Width: 546
VWidth: 1333
Flags: HW
HStem: 0 21G<75 115 432 472> 424 31<312 431.6>
VStem: 432 40<0 350.9>
Fore
75 533 m 1
 115 533 l 1
 115 287 l 1
 167 404 327 516 409 535 c 1
 467 515 l 1
 415 505 364 480 329 455 c 1
 424 455 472 357 472 256 c 2
 472 0 l 1
 432 0 l 1
 432 256 l 2
 432 329 404 424 312 424 c 0
 243 424 116 263 115 176 c 2
 115 0 l 1
 75 0 l 1
 75 533 l 1
EndSplineSet
EndChar
StartChar: uni0E2C
Encoding: 252 3628 268
Width: 610
VWidth: 1333
Flags: HW
HStem: -7 40<111.6 257.2 353.8 499.4> 493 40<367 485.4>
VStem: 75 40<79.2 533> 285 40<96.1 533> 496 40<79.2 449 561.5 627>
AnchorPoint: "AboveBase" 449 568 basechar 0
Fore
285 152 m 2
 285 533 l 1
 325 533 l 1
 325 152 l 2
 325 96 343 33 411 33 c 0
 479 33 496 96 496 152 c 2
 496 407 l 2
 496 455 471 493 423 493 c 2
 367 493 l 1
 367 533 l 1
 423 533 l 2
 471 533 496 572 496 620 c 2
 496 627 l 1
 536 627 l 1
 536 620 l 2
 536 575 513 535 479 512 c 1
 513 489 536 449 536 404 c 2
 536 152 l 2
 536 41 480 -7 411 -7 c 0
 367 -7 328 13 305 57 c 1
 283 13 244 -7 200 -7 c 0
 131 -7 75 41 75 152 c 2
 75 533 l 1
 115 533 l 1
 115 152 l 2
 115 96 132 33 200 33 c 0
 273 33 285 109 285 152 c 2
EndSplineSet
EndChar
StartChar: uni0E2D
Encoding: 253 3629 269
Width: 594
VWidth: 1333
Flags: HW
HStem: -5 40<160.8 437.7> 247 40<95 283> 499 40<180 440>
VStem: 497 43<98 434.7>
CounterMasks: 1 00
Fore
297 287 m 1
 283 247 l 1
 95 247 l 1
 104 127 192 35 296 35 c 0
 405 35 497 137 497 267 c 0
 497 396 407 499 297 499 c 0
 207 499 129 443 104 349 c 1
 65 360 l 1
 96 472 189 539 297 539 c 0
 433 539 540 415 540 267 c 0
 540 119 433 -5 297 -5 c 0
 161 -5 55 119 55 267 c 2
 55 287 l 1
 297 287 l 1
EndSplineSet
EndChar
StartChar: uni0E2E
Encoding: 254 3630 270
Width: 594
VWidth: 1333
Flags: HW
HStem: -5 40<160.8 437.7> 247 40<95 283> 499 40<180 359.4>
VStem: 497 43<98 371>
CounterMasks: 1 00
Fore
297 287 m 1
 283 247 l 1
 95 247 l 1
 104 127 192 35 296 35 c 0
 405 35 497 137 497 267 c 0
 497 396 407 499 297 499 c 0
 207 499 129 443 104 349 c 1
 65 360 l 1
 96 472 189 539 297 539 c 0
 345 539 389 523 427 497 c 1
 472 535 l 1
 501 508 l 1
 457 471 l 1
 508 421 540 347 540 267 c 0
 540 119 433 -5 297 -5 c 0
 161 -5 55 119 55 267 c 2
 55 287 l 1
 297 287 l 1
EndSplineSet
EndChar
StartChar: uni0E2F
Encoding: 255 3631 271
Width: 503
VWidth: 1333
Flags: HW
HStem: 0 21G<389 429> 343 40<144.411 304.8> 501 40<111.4 179>
VStem: 55 38<380.4 471.4> 389 40<0 459>
Fore
389 0 m 1
 389 459 l 1
 351 409 276 343 180 343 c 0
 121 343 55 375 55 435 c 0
 55 491 112 541 179 541 c 1
 179 501 l 1
 127 501 93 463 93 435 c 0
 93 393 156 383 179 383 c 0
 293 383 381 504 389 533 c 1
 429 533 l 1
 429 0 l 1
 389 0 l 1
EndSplineSet
EndChar
StartChar: uni0E30
Encoding: 256 3632 272
Width: 270
VWidth: 1333
Flags: HW
HStem: 53 40<115 220> 388 40<115 220>
VStem: 75 40<93 132 428 467>
Fore
115 428 m 1
 233 428 l 1
 220 388 l 1
 75 388 l 1
 75 467 l 1
 115 480 l 1
 115 428 l 1
115 93 m 1
 233 93 l 1
 220 53 l 1
 75 53 l 1
 75 132 l 1
 115 145 l 1
 115 93 l 1
EndSplineSet
EndChar
StartChar: uni0E31
Encoding: 257 3633 273
Width: 0
VWidth: 1333
Flags: HW
HStem: 603 40<-207 99>
VStem: -247 40<643 681>
AnchorPoint: "AboveMark" -95 740 basemark 0
AnchorPoint: "AboveBase" -75 568 mark 0
Fore
-207 643 m 1
 125 643 l 1
 99 603 l 1
 -247 603 l 1
 -247 681 l 1
 -207 695 l 1
 -207 643 l 1
EndSplineSet
LCarets2: 1 0 
EndChar
StartChar: uni0E32
Encoding: 258 3634 274
Width: 394
VWidth: 1333
Flags: HW
HStem: 0 21G<280 320> 500 40<118.1 284.5>
VStem: 280 40<0 415>
Fore
280 0 m 1
 280 341 l 2
 280 415 256 500 161 500 c 0
 128 500 89 480 55 451 c 1
 55 496 l 1
 88 523 125 540 161 540 c 0
 273 540 320 449 320 341 c 2
 320 0 l 1
 280 0 l 1
EndSplineSet
EndChar
StartChar: uni0E33
Encoding: 259 3635 275
Width: 394
VWidth: 1333
Flags: HW
HStem: 0 21G<280 320> 500 40<118.1 284.5> 588 31<-106.1 -61.9> 680 31<-106.1 -61.9>
VStem: -145 30<626.9 672.4> -53 30<626.9 672.4> 280 40<0 415>
Fore
280 0 m 1
 280 341 l 2
 280 415 256 500 161 500 c 0
 128 500 89 480 55 451 c 1
 55 496 l 1
 88 523 125 540 161 540 c 0
 273 540 320 449 320 341 c 2
 320 0 l 1
 280 0 l 1
-84 711 m 0
 -51 711 -23 683 -23 649 c 0
 -23 616 -51 588 -84 588 c 0
 -117 588 -145 616 -145 649 c 0
 -145 683 -117 711 -84 711 c 0
-115 649 m 0
 -115 632 -101 619 -84 619 c 0
 -67 619 -53 632 -53 649 c 0
 -53 667 -67 680 -84 680 c 0
 -101 680 -115 667 -115 649 c 0
EndSplineSet
MultipleSubs2: "Multiple Substitution lookup 7" uni0E4D uni0E32
Substitution2: "Single Substitution lookup 6" uni0E32
LCarets2: 1 0 
EndChar
StartChar: uni0E34
Encoding: 260 3636 276
Width: 0
VWidth: 1333
Flags: HW
HStem: 603 40<-424 -75>
VStem: -451 376<603 643>
AnchorPoint: "AboveMark" -95 740 basemark 0
AnchorPoint: "AboveBase" -75 568 mark 0
Fore
-75 643 m 1
 -75 603 l 1
 -451 603 l 1
 -424 643 l 1
 -75 643 l 1
EndSplineSet
LCarets2: 1 0 
EndChar
StartChar: uni0E35
Encoding: 261 3637 277
Width: 0
VWidth: 1333
Flags: HW
HStem: 603 40<-424 -115>
VStem: -115 40<643 695>
AnchorPoint: "AboveMark" -95 740 basemark 0
AnchorPoint: "AboveBase" -75 568 mark 0
Fore
-115 643 m 1
 -115 695 l 1
 -75 695 l 1
 -75 603 l 1
 -451 603 l 1
 -424 643 l 1
 -115 643 l 1
EndSplineSet
LCarets2: 1 0 
EndChar
StartChar: uni0E36
Encoding: 262 3638 278
Width: 0
VWidth: 1333
Flags: HW
HStem: 603 40<-424 -153> 603 30<-118.1 -73.9> 695 30<-118.1 -73.9>
VStem: -157 30<641.9 686.1> -65 30<641.9 686.1>
AnchorPoint: "AboveMark" -95 740 basemark 0
AnchorPoint: "AboveBase" -75 568 mark 0
Fore
-96 725 m 0xb8
 -63 725 -35 697 -35 664 c 0
 -35 631 -63 603 -96 603 c 2
 -451 603 l 1x78
 -424 643 l 1
 -153 643 l 1
 -156 649 -157 656 -157 664 c 0
 -157 697 -129 725 -96 725 c 0xb8
-127 664 m 0
 -127 647 -113 633 -96 633 c 0
 -79 633 -65 647 -65 664 c 0
 -65 681 -79 695 -96 695 c 0
 -113 695 -127 681 -127 664 c 0
EndSplineSet
EndChar
StartChar: uni0E37
Encoding: 263 3639 279
Width: 0
VWidth: 1333
Flags: HW
HStem: 603 92<-201 -161 -115 -75> 603 40<-424 -201 -161 -115>
VStem: -201 40<643 695> -115 40<643 695>
AnchorPoint: "AboveMark" -138 740 basemark 0
AnchorPoint: "AboveBase" -75 568 mark 0
Fore
-115 643 m 1x70
 -115 695 l 1
 -75 695 l 1
 -75 603 l 1xb0
 -451 603 l 1
 -424 643 l 1
 -201 643 l 1x70
 -201 695 l 1
 -161 695 l 1xb0
 -161 643 l 1
 -115 643 l 1x70
EndSplineSet
EndChar
StartChar: uni0E38
Encoding: 264 3640 280
Width: 0
VWidth: 1333
Flags: HW
HStem: -96 40<-149 -115>
VStem: -115 40<-212 -96>
AnchorPoint: "BelowBase" -75 -38 mark 0
Fore
-149 -56 m 1
 -75 -56 l 1
 -75 -212 l 1
 -115 -212 l 1
 -115 -96 l 1
 -163 -96 l 1
 -149 -56 l 1
EndSplineSet
EndChar
StartChar: uni0E39
Encoding: 265 3641 281
Width: 0
VWidth: 1333
Flags: HW
HStem: -219 40<-226.8 -133.2> -96 40<-308 -285>
VStem: -285 40<-159.8 -96> -115 40<-159.8 -56>
AnchorPoint: "BelowBase" -75 -38 mark 0
Fore
-308 -56 m 1
 -245 -56 l 1
 -245 -113 l 2
 -245 -149 -216 -179 -180 -179 c 0
 -144 -179 -115 -149 -115 -113 c 2
 -115 -56 l 1
 -75 -56 l 1
 -75 -113 l 2
 -75 -172 -121 -219 -180 -219 c 0
 -239 -219 -285 -172 -285 -113 c 2
 -285 -96 l 1
 -321 -96 l 1
 -308 -56 l 1
EndSplineSet
EndChar
StartChar: uni0E3A
Encoding: 266 3642 282
Width: 0
VWidth: 1333
Flags: HW
HStem: -115 67<-118.4 -70.3>
VStem: -128 67<-105.7 -57.6>
AnchorPoint: "BelowBase" -75 -38 mark 0
Fore
-128 -81 m 0
 -128 -63 -113 -48 -95 -48 c 0
 -76 -48 -61 -63 -61 -81 c 0
 -61 -100 -76 -115 -95 -115 c 0
 -113 -115 -128 -100 -128 -81 c 0
EndSplineSet
EndChar
StartChar: uni0E3F
Encoding: 267 3647 283
Width: 545
VWidth: 1333
Flags: HW
HStem: 0 40<104 207 248 425.7> 355 40<104 208 248 297> 627 40<104 208 248 291>
VStem: 64 40<40 355 395 627> 208 40<-67 0 40 355 395 627 667 733> 423 38<434.2 589.9> 472 39<87.8 301.3>
Fore
248 667 m 1
 291 667 l 2
 384 667 461 595 461 507 c 0
 461 451 429 403 381 375 c 1
 457 345 511 277 511 196 c 0
 511 87 413 0 296 0 c 2
 247 0 l 1
 247 -67 l 1
 207 -67 l 1
 207 0 l 1
 64 0 l 1
 64 667 l 1
 208 667 l 1
 208 733 l 1
 248 733 l 1
 248 667 l 1
248 627 m 1
 248 395 l 1
 291 395 l 2
 365 395 423 445 423 508 c 0
 423 571 365 627 291 627 c 2
 248 627 l 1
248 40 m 1
 297 40 l 2
 396 40 472 113 472 197 c 0
 472 281 396 355 297 355 c 2
 248 355 l 1
 248 40 l 1
208 395 m 1
 208 627 l 1
 104 627 l 1
 104 395 l 1
 208 395 l 1
208 40 m 1
 208 355 l 1
 104 355 l 1
 104 40 l 1
 208 40 l 1
EndSplineSet
EndChar
StartChar: uni0E40
Encoding: 268 3648 284
Width: 189
VWidth: 1333
Flags: HW
HStem: 0 21G<75 115>
VStem: 75 40<0 533>
Fore
115 0 m 1
 75 0 l 1
 75 533 l 1
 115 533 l 1
 115 0 l 1
EndSplineSet
EndChar
StartChar: uni0E41
Encoding: 269 3649 285
Width: 309
VWidth: 1333
Flags: HW
HStem: 0 21G<75 115 195 235>
VStem: 75 40<0 533> 195 40<0 533>
Fore
115 0 m 1
 75 0 l 1
 75 533 l 1
 115 533 l 1
 115 0 l 1
235 0 m 1
 195 0 l 1
 195 533 l 1
 235 533 l 1
 235 0 l 1
EndSplineSet
EndChar
StartChar: uni0E42
Encoding: 270 3650 286
Width: 189
VWidth: 1333
Flags: HW
HStem: 0 40<115 149> 748 40<48 259>
VStem: 75 40<40 672.2>
Fore
75 0 m 1
 75 589 l 2
 75 663 51 748 -44 748 c 1
 -31 788 l 1
 272 788 l 1
 259 748 l 1
 48 748 l 1
 91 717 115 653 115 589 c 2
 115 40 l 1
 163 40 l 1
 149 0 l 1
 75 0 l 1
EndSplineSet
EndChar
StartChar: uni0E43
Encoding: 271 3651 287
Width: 211
VWidth: 1333
Flags: HW
HStem: 0 40<137 167> 753 42<14.6 138.1>
VStem: -44 40<688 725.7> 97 40<40 649.2> 161 40<634.7 723.1>
Fore
97 0 m 1
 97 539 l 2
 97 637 161 647 161 688 c 0
 161 715 124 753 77 753 c 0
 29 753 -5 717 -4 688 c 1
 -44 688 l 1
 -45 741 11 795 76 795 c 0
 144 795 201 740 201 689 c 0
 201 624 137 624 137 540 c 2
 137 40 l 1
 180 40 l 1
 167 0 l 1
 97 0 l 1
EndSplineSet
EndChar
StartChar: uni0E44
Encoding: 272 3652 288
Width: 195
VWidth: 1333
Flags: HW
HStem: 0 40<121 153> 749 40<72 148>
VStem: 81 40<40 688.5>
Fore
81 0 m 1
 81 604 l 2
 81 669 117 715 148 749 c 1
 72 749 l 1
 24 684 l 1
 -44 747 l 1
 -44 801 l 1
 23 741 l 1
 55 789 l 1
 199 789 l 1
 199 753 l 1
 161 723 121 679 121 603 c 2
 121 40 l 1
 167 40 l 1
 153 0 l 1
 81 0 l 1
EndSplineSet
EndChar
StartChar: uni0E45
Encoding: 273 3653 289
Width: 394
VWidth: 1333
Flags: HW
HStem: 500 40<118.1 284.5>
VStem: 280 40<-203 415>
Fore
280 -203 m 1
 280 341 l 2
 280 415 256 500 161 500 c 0
 128 500 89 480 55 451 c 1
 55 496 l 1
 88 523 125 540 161 540 c 0
 273 540 320 449 320 341 c 2
 320 -203 l 1
 280 -203 l 1
EndSplineSet
EndChar
StartChar: uni0E46
Encoding: 274 3654 290
Width: 526
VWidth: 1333
Flags: HW
HStem: 259 40<102.9 217.523> 413 43<231.6 277.1>
VStem: 55 37<328.6 439.1> 412 40<-203 412>
Fore
412 -203 m 1
 412 365 l 2
 412 412 391 453 359 483 c 1
 329 443 295 413 253 413 c 0
 211 413 175 444 144 485 c 1
 109 465 92 428 92 391 c 0
 92 343 120 299 177 299 c 0
 188 299 200 300 213 303 c 1
 223 264 l 1
 207 260 192 259 179 259 c 0
 97 259 55 323 55 391 c 0
 55 447 84 507 145 532 c 2
 160 539 l 1
 169 525 l 2
 208 465 237 456 255 456 c 0
 272 456 301 465 340 525 c 2
 351 543 l 1
 368 531 l 2
 419 495 452 435 452 368 c 2
 452 -203 l 1
 412 -203 l 1
EndSplineSet
EndChar
StartChar: uni0E47
Encoding: 275 3655 291
Width: 0
VWidth: 1333
Flags: HW
HStem: 593 41<-161.272 -92.3516> 603 40<-373.2 -323> 725 40<-363 -51>
VStem: -423 39<659.6 706.4>
AnchorPoint: "AboveMark" -253 568 mark 0
AnchorPoint: "AboveBase" -75 568 mark 0
Fore
-51 725 m 1x70
 -324 725 l 2
 -363 725 -384 701 -384 683 c 0
 -384 665 -363 644 -329 643 c 1x70
 -256 689 l 1
 -167 641 l 2
 -154 636 -141 634 -128 634 c 0xb0
 -115 634 -102 636 -89 640 c 1
 -75 603 l 1x70
 -92 597 -110 593 -128 593 c 0xb0
 -147 593 -166 597 -183 605 c 2
 -253 644 l 1
 -317 603 l 1
 -323 603 l 2
 -372 603 -423 635 -423 684 c 0
 -423 733 -372 765 -323 765 c 2
 -37 765 l 1
 -51 725 l 1x70
EndSplineSet
LCarets2: 1 0 
EndChar
StartChar: uni0E48
Encoding: 276 3656 292
Width: 0
VWidth: 1333
Flags: HW
VStem: -115 40<752 861>
AnchorPoint: "AboveMark" -95 740 mark 0
Fore
-75 752 m 1
 -115 752 l 1
 -115 861 l 1
 -75 861 l 1
 -75 752 l 1
EndSplineSet
MultipleSubs2: "Multiple Substitution lookup 5" uni0E4D uni0E48
Substitution2: "Single Substitution lookup 4" uni0E48.low
LCarets2: 1 0 
EndChar
StartChar: uni0E49
Encoding: 277 3657 293
Width: 0
VWidth: 1333
Flags: HW
HStem: 752 40<-155 1> 820 40<-236 -191.6>
VStem: -195 40<792 815.435>
AnchorPoint: "AboveMark" -95 740 mark 0
Fore
-195 752 m 1
 -195 800 l 2
 -195 807 -197 819 -215 820 c 2
 -249 820 l 1
 -236 860 l 1
 -215 860 l 2
 -163 860 -155 816 -155 800 c 2
 -155 792 l 1
 15 792 l 1
 1 752 l 1
 -195 752 l 1
EndSplineSet
MultipleSubs2: "Multiple Substitution lookup 5" uni0E4D uni0E49
Substitution2: "Single Substitution lookup 4" uni0E49.low
EndChar
StartChar: uni0E4A
Encoding: 278 3658 294
Width: 0
VWidth: 1333
Flags: HW
HStem: 753 40<-214.1 -183 36 153> 851 40<-220.1 -114.5>
VStem: -4 40<792 837>
AnchorPoint: "AboveMark" -95 740 mark 0
Fore
-4 752 m 1
 -4 837 l 1
 -99 767 l 1
 -108 800 -120 851 -172 851 c 0
 -209 851 -219 832 -219 820 c 0
 -219 807 -209 793 -192 793 c 2
 -183 793 l 1
 -183 753 l 1
 -192 753 l 2
 -233 753 -260 787 -260 820 c 0
 -260 856 -231 891 -173 891 c 0
 -128 891 -97 864 -83 828 c 1
 -13 879 l 1
 36 879 l 1
 36 792 l 1
 167 792 l 1
 153 752 l 1
 -4 752 l 1
EndSplineSet
MultipleSubs2: "Multiple Substitution lookup 5" uni0E4D uni0E4A
Substitution2: "Single Substitution lookup 4" uni0E4A.low
EndChar
StartChar: uni0E4B
Encoding: 279 3659 295
Width: 0
VWidth: 1333
Flags: HW
HStem: 793 38<-153 -115 -75 -36>
VStem: -115 40<752 792 832 872>
AnchorPoint: "AboveMark" -95 740 mark 0
Fore
-153 793 m 1
 -153 831 l 1
 -115 831 l 1
 -115 872 l 1
 -75 872 l 1
 -75 832 l 1
 -36 832 l 1
 -36 792 l 1
 -75 792 l 1
 -75 752 l 1
 -115 752 l 1
 -115 793 l 1
 -153 793 l 1
EndSplineSet
MultipleSubs2: "Multiple Substitution lookup 5" uni0E4D uni0E4B
Substitution2: "Single Substitution lookup 4" uni0E4B.low
EndChar
StartChar: uni0E4C
Encoding: 280 3660 296
Width: 0
VWidth: 1333
Flags: HW
HStem: 801 40<-77.1 13>
VStem: -115 40<752 792.444>
AnchorPoint: "AboveMark" -95 740 mark 0
Fore
-115 752 m 1
 -115 781 l 2
 -115 797 -107 841 -55 841 c 2
 27 841 l 1
 13 801 l 1
 -55 801 l 2
 -72 801 -75 788 -75 781 c 2
 -75 752 l 1
 -115 752 l 1
EndSplineSet
MultipleSubs2: "Multiple Substitution lookup 5" uni0E4D uni0E4C
Substitution2: "Single Substitution lookup 4" uni0E4C.low
EndChar
StartChar: uni0E4D
Encoding: 281 3661 297
Width: 0
VWidth: 1333
Flags: HW
HStem: 588 31<-117.1 -71.6> 680 31<-117.1 -71.6>
VStem: -156 31<626.9 672.4> -64 31<626.9 672.4>
AnchorPoint: "AboveMark" -95 740 basemark 0
AnchorPoint: "AboveBase" -39 568 mark 0
Fore
-95 711 m 0
 -61 711 -33 683 -33 649 c 0
 -33 616 -61 588 -95 588 c 0
 -128 588 -156 616 -156 649 c 0
 -156 683 -128 711 -95 711 c 0
-125 649 m 0
 -125 632 -112 619 -95 619 c 0
 -77 619 -64 632 -64 649 c 0
 -64 667 -77 680 -95 680 c 0
 -112 680 -125 667 -125 649 c 0
EndSplineSet
Substitution2: "Single Substitution lookup 3" uni0E4D.high
LCarets2: 1 0 
EndChar
StartChar: uni0E4E
Encoding: 282 3662 298
Width: 0
VWidth: 1333
Flags: HW
HStem: 652 32<-285.3 -207.3> 952 33<-90.7054 -28.2499> 956 33<-173.2 -23.2531>
VStem: -340 33<692.4 801> -252 33<849.1 938.8>
AnchorPoint: "AboveBase" -75 568 mark 0
Fore
-197 703 m 1xb8
 -169 687 l 1
 -184 663 -215 652 -245 652 c 0
 -297 652 -340 680 -340 723 c 0
 -340 783 -293 816 -229 828 c 1
 -243 840 -252 856 -252 879 c 0
 -252 945 -171 989 -76 989 c 0xb8
 -60 989 -43 988 -24 985 c 1
 -29 952 l 1xd8
 -47 955 -63 956 -77 956 c 0
 -151 956 -219 925 -219 879 c 0
 -219 851 -184 837 -153 833 c 2
 -124 833 l 1
 -156 800 l 1
 -168 800 l 0
 -229 800 -307 784 -307 721 c 0
 -307 699 -276 684 -245 684 c 0
 -216 684 -201 696 -197 703 c 1xb8
EndSplineSet
EndChar
StartChar: uni0E4F
Encoding: 283 3663 299
Width: 655
VWidth: 1333
Flags: HW
HStem: -7 42<160.6 493.4> 127 41<257.023 398.994> 366 41<257.505 398.483> 499 41<160.6 493.4>
VStem: 55 40<100.6 433.4> 188 41<195.027 337.483> 427 41<195.054 337.495> 559 42<100.6 433.4>
Fore
328 540 m 0
 479 540 601 417 601 267 c 0
 601 116 479 -7 328 -7 c 0
 177 -7 55 116 55 267 c 0
 55 417 177 540 328 540 c 0
95 267 m 0
 95 139 199 35 327 35 c 0
 455 35 559 139 559 267 c 0
 559 395 455 499 327 499 c 0
 199 499 95 395 95 267 c 0
188 267 m 0
 188 344 251 407 328 407 c 0
 405 407 468 344 468 267 c 0
 468 189 405 127 328 127 c 0
 251 127 188 189 188 267 c 0
229 267 m 0
 229 211.636 273.402 168 328 168 c 0
 382.61 168 427 211.657 427 267 c 0
 427 321.227 382.217 366 328 366 c 0
 273.773 366 229 321.217 229 267 c 0
EndSplineSet
EndChar
StartChar: uni0E50
Encoding: 284 3664 300
Width: 626
VWidth: 1333
Flags: HW
HStem: -7 40<154.4 472.9> 407 40<154.4 472.9>
VStem: 55 40<88.7 351.3> 532 40<88.7 351.3>
Fore
313 447 m 0
 455 447 572 348 572 220 c 0
 572 92 455 -7 313 -7 c 0
 172 -7 55 92 55 220 c 0
 55 348 172 447 313 447 c 0
95 220 m 0
 95 119 191 33 313 33 c 0
 436 33 532 119 532 220 c 0
 532 321 436 407 313 407 c 0
 191 407 95 321 95 220 c 0
EndSplineSet
EndChar
StartChar: uni0E51
Encoding: 285 3665 301
Width: 626
VWidth: 1333
Flags: HW
HStem: -56 39<308 459.8> 43 40<141.6 310.6> 407 40<154.4 471.6>
VStem: 55 40<112.1 351.3> 532 40<28.8 356.4>
Fore
308 -56 m 1
 309 -17 l 1
 425 -17 532 72 532 216 c 0
 532 324 435 407 313 407 c 0
 191 407 95 321 95 220 c 0
 95 137 165 83 243 83 c 0
 295 83 343 108 375 151 c 1
 407 127 l 1
 367 73 308 43 243 43 c 0
 145 43 55 113 55 220 c 0
 55 348 172 447 313 447 c 0
 453 447 572 349 572 216 c 0
 572 51 448 -56 308 -56 c 1
EndSplineSet
EndChar
StartChar: uni0E52
Encoding: 286 3666 302
Width: 626
VWidth: 1333
Flags: HW
HStem: 0 40<160 489.8> 107 40<209.4 277> 405 40<209.7 326.7 409.3 534.1>
VStem: 55 40<84.3 518.539> 155 40<186.3 368.3> 348 40<227 341> 531 40<111 359.5>
Fore
348 227 m 1
 348 287 l 2
 348 341 333 405 276 405 c 0
 225 405 195 347 195 276 c 0
 195 207 225 147 277 147 c 1
 277 107 l 1
 204 107 155 180 155 276 c 0
 155 372 203 445 276 445 c 0
 315 445 347 427 367 387 c 1
 387 427 421 445 460 445 c 0
 523 445 571 395 571 287 c 2
 571 199 l 2
 571 91 491 0 389 0 c 2
 235 0 l 2
 133 0 55 91 55 199 c 2
 55 467 l 2
 55 520 47 541 32 548 c 1
 48 585 l 1
 96 565 95 501 95 468 c 2
 95 200 l 2
 95 111 160 40 236 40 c 2
 391 40 l 2
 467 40 531 111 531 200 c 2
 531 288 l 2
 531 343 517 407 460 407 c 0
 403 407 388 343 388 288 c 2
 388 227 l 1
 348 227 l 1
EndSplineSet
EndChar
StartChar: uni0E53
Encoding: 287 3667 303
Width: 626
VWidth: 1333
Flags: HW
HStem: -7 40<115.2 201> 407 40<118.1 262.1 365.2 517.3>
VStem: 57 39<91.3 353.9> 292 40<0 344> 516 40<0 360.8>
Fore
292 0 m 1
 292 288 l 2
 292 344 273 407 200 407 c 0
 137 407 96 324 96 220 c 0
 96 121 135 33 201 33 c 1
 201 -7 l 1
 100 -7 57 115 57 220 c 0
 57 323 99 447 201 447 c 0
 248 447 289 427 313 381 c 1
 337 427 379 447 425 447 c 0
 496 447 556 400 556 288 c 2
 556 0 l 1
 516 0 l 1
 516 288 l 2
 516 344 497 407 424 407 c 0
 351 407 332 344 332 288 c 2
 332 0 l 1
 292 0 l 1
EndSplineSet
EndChar
StartChar: uni0E54
Encoding: 288 3668 304
Width: 626
VWidth: 1333
Flags: HW
HStem: -7 40<124.7 324.71> 12 39<384.677 506.197> 207 40<326.5 398> 397 39<400.826 540> 408 39<132.4 387.2>
VStem: 35 39<99.3 358> 279 40<102.4 186.9> 566 39<443.3 572>
Fore
566 572 m 1x37
 605 572 l 1
 605 431 519 397 447 397 c 0x37
 407 397 365 408 291 408 c 0
 169 408 74 328 74 228 c 0
 74 129 161 33 282 33 c 0xaf
 299 33 318 36 337 40 c 1
 299 69 279 108 279 145 c 0
 279 200 322 247 398 247 c 1
 398 207 l 1
 343 207 319 177 319 144 c 0
 319 112 343 71 399 48 c 1
 415 49 433 51 450 51 c 0
 494 51 539 44 579 25 c 1
 562 -11 l 1
 530 5 491 12 451 12 c 0x67
 377 12 339 -7 283 -7 c 0
 141 -7 35 105 35 227 c 0
 35 353 154 447 294 447 c 0xaf
 369 447 417 436 449 436 c 0
 519 436 566 473 566 572 c 1x37
EndSplineSet
EndChar
StartChar: uni0E55
Encoding: 289 3669 305
Width: 626
VWidth: 1333
Flags: HW
HStem: -7 40<124.7 324.71> 12 39<384.677 506.197> 207 40<326.5 398> 397 39<395.059 540> 408 39<260.7 343.9> 524 37<275.2 341.5>
VStem: 35 39<99.3 358> 226 39<466.752 511> 279 40<102.4 186.9> 353 41<461.6 511> 566 39<443.3 572>
Fore
566 572 m 1xb7e0
 605 572 l 1
 605 431 519 397 447 397 c 0xb7e0
 411 397 362 408 291 408 c 0
 169 408 74 328 74 228 c 0
 74 129 161 33 282 33 c 0xafe0
 299 33 318 36 337 40 c 1
 299 69 279 108 279 145 c 0
 279 200 322 247 398 247 c 1
 398 207 l 1
 343 207 319 177 319 144 c 0
 319 112 343 71 399 48 c 1
 415 49 433 51 450 51 c 0
 494 51 539 44 579 25 c 1
 562 -11 l 1
 530 5 491 12 451 12 c 0x67e0
 377 12 339 -7 283 -7 c 0
 141 -7 35 105 35 227 c 0
 35 337 125 421 239 441 c 1
 230 455 226 469 226 483 c 0
 226 524 262 561 310 561 c 0
 355 561 394 528 394 484 c 0
 394 468 389 453 381 441 c 1
 409 439 430 436 449 436 c 0
 519 436 566 473 566 572 c 1xb7e0
265 485 m 0
 265 471 273 448 314 447 c 1x2fe0
 337 449 353 467 353 485 c 0
 353 505 334 524 309 524 c 0
 283 524 265 505 265 485 c 0
EndSplineSet
EndChar
StartChar: uni0E56
Encoding: 290 3670 306
Width: 626
VWidth: 1333
Flags: HW
HStem: -7 40<125.9 449.6> 209 38<119.3 196> 409 38<218.2 449.6>
VStem: 72 40<85.5 185.6> 509 40<88.7 351.3>
Fore
196 247 m 1
 196 209 l 1
 137 209 112 176 112 144 c 0
 112 99 164 33 291 33 c 0
 413 33 509 119 509 220 c 0
 509 321 413 409 291 409 c 0
 224 409 141 384 104 352 c 2
 73 325 l 1
 71 365 l 2
 65 443 -8 532 -53 543 c 1
 -44 581 l 1
 19 567 87 479 107 400 c 1
 159 431 235 447 291 447 c 0
 432 447 549 348 549 220 c 0
 549 92 432 -7 291 -7 c 0
 151 -7 72 69 72 144 c 0
 72 200 117 247 196 247 c 1
EndSplineSet
EndChar
StartChar: uni0E57
Encoding: 291 3671 307
Width: 626
VWidth: 1333
Flags: HW
HStem: 1 40<83 161 360 427.6> 407 41<83 218.2 309 427.6>
VStem: 21 40<92.7 355.3> 245 40<175 357> 447 41<126.2 355.3> 557 40<78.1 511>
Fore
245 175 m 1
 245 307 l 2
 245 357 223 407 161 407 c 0
 101 407 61 325 61 224 c 0
 61 123 101 41 161 41 c 1
 161 1 l 1
 77 1 21 97 21 225 c 0
 21 353 77 448 161 448 c 0
 205 448 243 429 265 388 c 1
 285 429 321 448 361 448 c 0
 437 448 488 355 488 225 c 0
 488 149 471 85 441 45 c 1
 519 60 557 112 557 225 c 2
 557 468 l 2
 557 501 557 565 607 585 c 1
 621 548 l 1
 603 540 597 511 597 468 c 2
 597 225 l 2
 597 59 515 1 391 0 c 2
 347 0 l 1
 360 40 l 1
 412 40 447 123 447 224 c 0
 447 325 412 407 360 407 c 0
 307 407 285 357 285 308 c 2
 285 175 l 1
 245 175 l 1
EndSplineSet
EndChar
StartChar: uni0E58
Encoding: 292 3672 308
Width: 626
VWidth: 1333
Flags: HW
HStem: -7 40<372.3 510.1> 396 40<399.826 540.3> 407 40<132.1 386.9>
VStem: 35 40<120.4 357> 537 42<34.7 127> 565 40<443.3 572>
Fore
537 127 m 1xb8
 579 127 l 1
 579 36 520 -7 437 -7 c 0
 383 -7 328 32 295 93 c 1
 257 -8 l 1
 72 0 35 145 35 227 c 0
 35 353 153 447 293 447 c 0xb8
 368 447 416 436 448 436 c 0
 519 436 565 473 565 572 c 1
 605 572 l 1
 605 431 520 396 448 396 c 0xd4
 408 396 365 407 292 407 c 0
 169 407 75 327 75 227 c 0
 75 133 127 45 233 35 c 1
 277 148 l 1
 315 148 l 1
 336 80 387 33 436 33 c 0
 493 33 537 56 537 127 c 1xb8
EndSplineSet
EndChar
StartChar: uni0E59
Encoding: 293 3673 309
Width: 626
VWidth: 1333
Flags: HW
HStem: -7 40<136 288.1> 411 40<139.4 305.8 434.5 508.9>
VStem: 42 40<76.2 370> 315 43<38.7 131> 554 40<513.678 598.971> 558 40<473.5 605.778>
Fore
315 131 m 1xf4
 358 131 l 1
 358 45 310 -7 215 -7 c 0
 130 -7 42 96 42 227 c 0
 42 356 134 451 233 451 c 0
 289 451 337 429 377 380 c 1
 394 417 421 449 466 449 c 0
 499 449 519 433 534 415 c 1
 550 448 558 487 558 532 c 0xf4
 558 553 557 575 554 597 c 1
 594 603 l 1xf8
 597 579 598 555 598 532 c 0
 598 459 579 395 534 341 c 1
 522 368 505 409 467 409 c 0
 442 409 423 392 405 339 c 1
 446 268 478 160 501 4 c 1
 461 -1 l 1
 411 337 323 411 233 411 c 0
 161 411 82 337 82 227 c 0
 82 111 154 33 214 33 c 0
 271 33 315 60 315 131 c 1xf4
EndSplineSet
EndChar
StartChar: uni0E5A
Encoding: 294 3674 310
Width: 601
VWidth: 1333
Flags: HW
HStem: 0 21G<391 429 487 527> 343 40<144.411 304.8> 500 40<111.4 179>
VStem: 55 38<380.4 471.4> 391 38<0 459> 487 40<0 533>
Fore
487 0 m 1
 487 533 l 1
 527 533 l 1
 527 0 l 1
 487 0 l 1
391 0 m 1
 391 459 l 1
 352 409 276 343 180 343 c 0
 121 343 55 375 55 435 c 0
 55 491 112 540 179 540 c 1
 179 500 l 1
 127 500 93 463 93 435 c 0
 93 393 156 383 179 383 c 0
 293 383 381 504 389 533 c 1
 429 533 l 1
 429 0 l 1
 391 0 l 1
EndSplineSet
EndChar
StartChar: uni0E5B
Encoding: 295 3675 311
Width: 1189
VWidth: 1333
Flags: HW
HStem: -7 40<157.2 375.6> 171 40<225 297.8> 240 27<1054.8 1143.2> 261 40<948.562 1037> 323 40<227 279> 447 20G<455 464> 500 40<117.3 303.2>
VStem: 41 38<53 431.3> 172 39<226.7 309.9> 323 44<311.148 456.2>
Fore
253 363 m 0xefc0
 284 363 308 344 321 319 c 1
 323 328 323 337 323 347 c 0
 323 431 284 500 220 500 c 0
 141 500 79 392 79 261 c 0
 79 101 177 33 243 33 c 0
 345 33 440 100 440 407 c 2
 440 444 l 2
 440 459 450 467 460 467 c 0
 468 467 476 462 479 451 c 2
 549 191 l 1
 593 403 l 2
 596 415 604 422 613 422 c 0
 622 422 630 415 633 401 c 2
 683 223 l 1
 719 365 l 2
 723 379 731 386 738 386 c 0
 745 386 752 379 756 367 c 2
 799 244 l 1
 824 332 l 2
 828 349 833 357 839 357 c 0
 845 357 852 350 860 337 c 2
 897 281 l 1
 932 296 960 301 985 301 c 0xdfc0
 1036 301 1068 267 1112 267 c 0
 1140 267 1163 276 1173 276 c 0
 1177 276 1180 275 1180 271 c 0
 1180 259 1136 240 1112 240 c 0xefc0
 1064 240 1025 261 985 261 c 0
 963 261 937 256 900 237 c 0
 891 231 879 236 873 245 c 2
 851 279 l 1
 820 172 l 2
 816 160 809 154 802 154 c 0
 794 154 787 160 783 171 c 2
 741 289 l 1
 703 137 l 2
 700 124 691 117 683 117 c 0
 675 117 668 123 665 136 c 2
 619 311 l 1
 575 100 l 2
 572 86 564 79 556 79 c 0
 548 79 540 86 536 100 c 2
 479 309 l 1
 464 133 405 -7 245 -7 c 0
 153 -7 41 84 41 261 c 0xdfc0
 41 412 113 540 220 540 c 0
 308 540 367 459 367 343 c 0
 367 240 321 171 253 171 c 0
 205 171 172 216 172 267 c 0
 172 317 205 363 253 363 c 0xefc0
211 267 m 0xefc0
 211 236 231 211 251 211 c 0
 287 211 296 248 296 267 c 0
 296 300 273 323 253 323 c 0
 233 323 211 300 211 267 c 0xefc0
EndSplineSet
EndChar
StartChar: Euro
Encoding: 313 8364 313
Width: 519
VWidth: 1333
Flags: HW
HStem: -7 40<209 397.5> 233 40<31 69 116 447> 393 40<31 69 116 447> 635 38<209 397.5>
VStem: 65 38<274.5 392.231>
Fore
488 620 m 1
 463 587 l 1
 427 616 384 635 339 635 c 0
 239 635 149 552 116 433 c 1
 460 433 l 1
 447 393 l 1
 108 393 l 1
 105 374 103 354 103 333 c 0
 103 313 105 293 108 273 c 1
 460 273 l 1
 447 233 l 1
 116 233 l 1
 149 115 239 33 339 33 c 0
 384 33 427 48 463 77 c 1
 488 47 l 1
 445 13 395 -7 340 -7 c 0
 215 -7 112 96 77 233 c 1
 17 233 l 1
 31 273 l 1
 69 273 l 1
 67 293 65 313 65 333 c 0
 65 354 67 374 69 393 c 1
 17 393 l 1
 31 433 l 1
 77 433 l 1
 112 571 215 673 340 673 c 0
 395 673 445 653 488 620 c 1
EndSplineSet
EndChar
StartChar: uni25CC
Encoding: 315 9676 314
Width: 621
VWidth: 1333
Flags: HW
HStem: -16 85<282.1 341.9> 51 85<122.1 181.9 427.8 488.9> 197 86<67.8 128.9 491.8 552.9> 331 85<122.1 181.9 427.8 488.9> 411 85<282.1 341.9>
VStem: 56 85<210.1 269.9> 109 86<63.1 124.2 343.1 404.2> 269 86<-4.2 56.9 423.1 484.2> 416 85<63.1 124.2 343.1 404.2> 480 85<210.1 269.9>
Fore
459 136 m 0x6180
 482 136 501 117 501 93 c 0
 501 70 482 51 459 51 c 0
 435 51 416 70 416 93 c 0
 416 117 435 136 459 136 c 0x6180
152 136 m 0
 175 136 195 117 195 93 c 0
 195 70 175 51 152 51 c 0
 129 51 109 70 109 93 c 0x63
 109 117 129 136 152 136 c 0
459 416 m 0x3180
 482 416 501 397 501 373 c 0
 501 350 482 331 459 331 c 0
 435 331 416 350 416 373 c 0
 416 397 435 416 459 416 c 0x3180
312 69 m 0xa1
 335 69 355 50 355 27 c 0
 355 3 335 -16 312 -16 c 0
 289 -16 269 3 269 27 c 0
 269 50 289 69 312 69 c 0xa1
152 416 m 0x33
 175 416 195 397 195 373 c 0
 195 350 175 331 152 331 c 0
 129 331 109 350 109 373 c 0
 109 397 129 416 152 416 c 0x33
99 283 m 0
 122 283 141 263 141 240 c 0
 141 217 122 197 99 197 c 0
 75 197 56 217 56 240 c 0x25
 56 263 75 283 99 283 c 0
312 496 m 0x29
 335 496 355 477 355 453 c 0
 355 430 335 411 312 411 c 0
 289 411 269 430 269 453 c 0
 269 477 289 496 312 496 c 0x29
523 283 m 0
 546 283 565 263 565 240 c 0
 565 217 546 197 523 197 c 0
 499 197 480 217 480 240 c 0x2140
 480 263 499 283 523 283 c 0
EndSplineSet
EndChar
StartChar: uni0E10.descless
Encoding: 316 63232 315
Width: 522
VWidth: 1333
Flags: HW
HStem: 0 21G<408 448> 247 40<263 408> 500 40<134.6 306.2>
VStem: 51 40<341 455.4> 408 40<0 247 287 407.3>
Fore
408 287 m 1
 408 341 l 2
 408 429 337 500 249 500 c 0
 161 500 91 429 91 341 c 1
 51 341 l 1
 51 451 140 540 249 540 c 0
 293 540 333 525 367 501 c 1
 417 535 l 1
 440 501 l 1
 397 473 l 1
 429 439 448 392 448 341 c 2
 448 0 l 1
 408 0 l 1
 408 247 l 1
 249 247 l 1
 263 287 l 1
 408 287 l 1
EndSplineSet
EndChar
StartChar: uni0E34.left
Encoding: 317 63233 316
Width: 0
VWidth: 1333
Flags: HW
HStem: 603 40<-519 -161>
VStem: -545 384<603 643>
Fore
-161 643 m 1
 -161 603 l 1
 -545 603 l 1
 -519 643 l 1
 -161 643 l 1
EndSplineSet
EndChar
StartChar: uni0E35.left
Encoding: 318 63234 317
Width: 0
VWidth: 1333
Flags: HW
HStem: 603 40<-519 -201>
VStem: -201 40<643 695>
Fore
-201 643 m 5
 -201 695 l 5
 -161 695 l 5
 -161 603 l 5
 -545 603 l 5
 -519 643 l 5
 -201 643 l 5
EndSplineSet
EndChar
StartChar: uni0E36.left
Encoding: 319 63235 318
Width: 0
VWidth: 1333
Flags: HW
HStem: 603 40<-519 -248> 603 30<-213.1 -167.6> 695 30<-213.1 -167.6>
VStem: -252 31<641.9 686.1> -160 31<641.9 686.1>
Fore
-191 725 m 0xb8
 -157 725 -129 697 -129 664 c 0
 -129 631 -157 603 -191 603 c 2
 -545 603 l 1x78
 -519 643 l 1
 -248 643 l 1
 -251 649 -252 656 -252 664 c 0
 -252 697 -224 725 -191 725 c 0xb8
-221 664 m 0
 -221 647 -208 633 -191 633 c 0
 -173 633 -160 647 -160 664 c 0
 -160 681 -173 695 -191 695 c 0
 -208 695 -221 681 -221 664 c 0
EndSplineSet
EndChar
StartChar: uni0E37.left
Encoding: 320 63236 319
Width: 0
VWidth: 1333
Flags: HW
HStem: 603 40<-519 -288 -249 -201> 603 92<-288 -249 -201 -161>
VStem: -288 39<643 695> -201 40<643 695>
Fore
-288 695 m 1x70
 -249 695 l 1x70
 -249 643 l 1
 -201 643 l 1xb0
 -201 695 l 1
 -161 695 l 1
 -161 603 l 1
 -545 603 l 1x70
 -519 643 l 1
 -288 643 l 1xb0
 -288 695 l 1x70
EndSplineSet
EndChar
StartChar: uni0E48.low_left
Encoding: 321 63237 320
Width: 0
VWidth: 1333
Flags: HW
VStem: -241 40<603 712>
Fore
-201 603 m 5
 -241 603 l 5
 -241 712 l 5
 -201 712 l 5
 -201 603 l 5
EndSplineSet
EndChar
StartChar: uni0E49.low_left
Encoding: 322 63238 321
Width: 0
VWidth: 1333
Flags: HW
HStem: 603 40<-333 -177> 671 40<-415 -369.6>
VStem: -373 40<643 667.409>
Fore
-373 603 m 1
 -373 651 l 2
 -373 659 -375 671 -393 671 c 2
 -428 671 l 1
 -415 711 l 1
 -393 711 l 2
 -337 711 -333 663 -333 651 c 2
 -333 643 l 1
 -164 643 l 1
 -177 603 l 1
 -373 603 l 1
EndSplineSet
EndChar
StartChar: uni0E4A.low_left
Encoding: 323 63239 322
Width: 0
VWidth: 1333
Flags: HW
HStem: 603 40<-498.1 -467 -247 -129> 700 40<-504.1 -398.5>
VStem: -287 40<643 687>
Fore
-247 728 m 1
 -247 643 l 1
 -116 643 l 1
 -129 603 l 1
 -287 603 l 1
 -287 687 l 1
 -391 609 l 1
 -396 641 l 2
 -399 655 -408 700 -456 700 c 0
 -493 700 -503 681 -503 669 c 0
 -503 656 -493 643 -476 643 c 2
 -467 643 l 1
 -467 603 l 1
 -476 603 l 2
 -517 603 -544 636 -544 669 c 0
 -544 705 -515 740 -457 740 c 0
 -412 740 -381 713 -367 677 c 1
 -297 728 l 1
 -247 728 l 1
EndSplineSet
EndChar
StartChar: uni0E4B.low_left
Encoding: 324 63240 323
Width: 0
VWidth: 1333
Flags: HW
HStem: 644 37<-280 -241 -201 -163>
VStem: -241 40<603 643 683 723>
Fore
-280 644 m 1
 -280 681 l 1
 -241 681 l 1
 -241 723 l 1
 -201 723 l 1
 -201 683 l 1
 -163 683 l 1
 -163 643 l 1
 -201 643 l 1
 -201 603 l 1
 -241 603 l 1
 -241 644 l 1
 -280 644 l 1
EndSplineSet
EndChar
StartChar: uni0E4C.low_left
Encoding: 325 63241 324
Width: 0
VWidth: 1333
Flags: HW
HStem: 652 40<-250 -156>
VStem: -284 40<603 645.388>
Fore
-284 603 m 1
 -284 632 l 2
 -284 648 -276 692 -224 692 c 2
 -143 692 l 1
 -156 652 l 1
 -224 652 l 2
 -244 652 -244 639 -244 632 c 2
 -244 603 l 1
 -284 603 l 1
EndSplineSet
EndChar
StartChar: uni0E48.low
Encoding: 326 63242 325
Width: 0
VWidth: 1333
Flags: HW
VStem: -115 40<603 712>
AnchorPoint: "AboveBase" -75 568 mark 0
Fore
-75 603 m 1
 -115 603 l 1
 -115 712 l 1
 -75 712 l 1
 -75 603 l 1
EndSplineSet
EndChar
StartChar: uni0E49.low
Encoding: 327 63243 326
Width: 0
VWidth: 1333
Flags: HW
HStem: 603 40<-171 12> 671 40<-252 -206.3>
VStem: -211 40<643 666.925>
AnchorPoint: "AboveBase" -10 568 mark 0
Fore
-211 603 m 1
 -211 651 l 2
 -211 657 -212 671 -231 671 c 2
 -265 671 l 1
 -252 711 l 1
 -231 711 l 2
 -179 711 -171 671 -171 651 c 2
 -171 643 l 1
 25 643 l 1
 12 603 l 1
 -211 603 l 1
EndSplineSet
EndChar
StartChar: uni0E4A.low
Encoding: 328 63244 327
Width: 0
VWidth: 1333
Flags: HW
HStem: 604 40<-246.1 -215 4 121> 701 40<-252.1 -146.5>
VStem: -292 41<652.8 686.6> -35 39<643 688>
AnchorPoint: "AboveBase" 90 568 mark 0
Fore
-35 603 m 1
 -35 688 l 1
 -139 611 l 1
 -144 643 l 2
 -147 656 -156 701 -204 701 c 0
 -241 701 -251 683 -251 671 c 0
 -251 657 -241 644 -224 644 c 2
 -215 644 l 1
 -215 604 l 1
 -224 604 l 2
 -265 604 -292 637 -292 671 c 0
 -292 707 -263 741 -205 741 c 0
 -160 741 -129 715 -115 679 c 1
 -45 729 l 1
 4 729 l 1
 4 643 l 1
 135 643 l 1
 121 603 l 1
 -35 603 l 1
EndSplineSet
EndChar
StartChar: uni0E4B.low
Encoding: 329 63245 328
Width: 0
VWidth: 1333
Flags: HW
HStem: 644 37<-153 -115 -75 -36>
VStem: -115 40<603 643 683 723>
AnchorPoint: "AboveBase" -55 568 mark 0
Fore
-153 644 m 1
 -153 681 l 1
 -115 681 l 1
 -115 723 l 1
 -75 723 l 1
 -75 683 l 1
 -36 683 l 1
 -36 643 l 1
 -75 643 l 1
 -75 603 l 1
 -115 603 l 1
 -115 644 l 1
 -153 644 l 1
EndSplineSet
EndChar
StartChar: uni0E4C.low
Encoding: 330 63246 329
Width: 0
VWidth: 1333
Flags: HW
HStem: 652 40<-157.1 -67>
VStem: -195 40<603 643.444>
AnchorPoint: "AboveBase" -75 568 mark 0
Fore
-195 603 m 1
 -195 632 l 2
 -195 652 -187 692 -135 692 c 2
 -53 692 l 1
 -67 652 l 1
 -135 652 l 2
 -152 652 -155 639 -155 632 c 2
 -155 603 l 1
 -195 603 l 1
EndSplineSet
EndChar
StartChar: uni0E0D.descless
Encoding: 331 63247 330
Width: 846
VWidth: 1333
Flags: HW
HStem: -7 40<493.2 690.8> 0 40<115 155> 500 40<171.8 359>
VStem: 75 40<40 296.4> 413 40<101 470> 732 40<74 533>
Fore
75 0 m 1x7c
 75 247 l 2
 75 285 100 320 125 339 c 1
 57 376 l 1
 87 500 188 540 255 540 c 0
 364 540 453 451 453 341 c 2
 453 191 l 2
 453 101 516 33 592 33 c 0
 668 33 732 101 732 191 c 2
 732 533 l 1
 772 533 l 1
 772 191 l 2
 772 83 693 -7 592 -7 c 0xbc
 491 -7 413 83 413 191 c 2
 413 340 l 2
 413 440 335 500 255 500 c 0
 191 500 121 464 97 384 c 1
 172 341 l 1
 135 323 115 301 115 248 c 2
 115 40 l 1
 168 40 l 1
 155 0 l 1
 75 0 l 1x7c
EndSplineSet
EndChar
StartChar: uni0E31.left
Encoding: 332 63248 331
Width: 0
VWidth: 1333
Flags: HW
HStem: 603 40<-324 8>
VStem: -364 40<643 695>
Fore
-324 643 m 1
 35 643 l 1
 8 603 l 1
 -364 603 l 1
 -364 695 l 1
 -324 695 l 1
 -324 643 l 1
EndSplineSet
EndChar
StartChar: uni0E4D.left
Encoding: 333 63249 332
Width: 0
VWidth: 1333
Flags: HW
HStem: 588 31<-238.1 -193.9> 680 31<-238.1 -193.9>
VStem: -277 30<626.9 672.4> -185 30<626.9 672.4>
Fore
-216 711 m 0
 -183 711 -155 683 -155 649 c 0
 -155 616 -183 588 -216 588 c 0
 -249 588 -277 616 -277 649 c 0
 -277 683 -249 711 -216 711 c 0
-247 649 m 0
 -247 632 -233 619 -216 619 c 0
 -199 619 -185 632 -185 649 c 0
 -185 667 -199 680 -216 680 c 0
 -233 680 -247 667 -247 649 c 0
EndSplineSet
EndChar
StartChar: uni0E47.left
Encoding: 334 63250 333
Width: 0
VWidth: 1333
Flags: HW
HStem: 593 41<-257.272 -188.352> 603 40<-469.2 -419> 725 40<-459 -147>
VStem: -519 39<659.6 706.4>
Fore
-147 725 m 1x70
 -420 725 l 2
 -459 725 -480 701 -480 683 c 0
 -480 665 -459 644 -425 643 c 1x70
 -352 689 l 1
 -263 641 l 2
 -250 636 -237 634 -224 634 c 0xb0
 -211 634 -198 636 -185 640 c 1
 -171 603 l 1x70
 -188 597 -206 593 -224 593 c 0xb0
 -243 593 -262 597 -279 605 c 2
 -349 644 l 1
 -413 603 l 1
 -419 603 l 2
 -468 603 -519 635 -519 684 c 0
 -519 733 -468 765 -419 765 c 2
 -133 765 l 1
 -147 725 l 1x70
EndSplineSet
EndChar
StartChar: uni0E48.left
Encoding: 335 63251 334
Width: 0
VWidth: 1333
Flags: HW
VStem: -201 40<752 861>
Fore
-161 752 m 5
 -201 752 l 5
 -201 861 l 5
 -161 861 l 5
 -161 752 l 5
EndSplineSet
EndChar
StartChar: uni0E49.left
Encoding: 336 63252 335
Width: 0
VWidth: 1333
Flags: HW
HStem: 752 40<-247 -91> 820 40<-328 -282.3>
VStem: -287 40<792 816.412>
Fore
-287 752 m 1
 -287 800 l 2
 -287 807 -288 820 -307 820 c 2
 -341 820 l 1
 -328 860 l 1
 -307 860 l 2
 -253 860 -247 819 -247 800 c 2
 -247 792 l 1
 -77 792 l 1
 -91 752 l 1
 -287 752 l 1
EndSplineSet
EndChar
StartChar: uni0E4A.left
Encoding: 337 63253 336
Width: 0
VWidth: 1333
Flags: HW
HStem: 753 40<-290.1 -259 -40 77> 851 40<-296.1 -190.5>
VStem: -79 39<792 837>
Fore
-79 752 m 1
 -79 837 l 1
 -183 760 l 1
 -188 792 l 2
 -191 805 -200 851 -248 851 c 0
 -285 851 -295 832 -295 820 c 0
 -295 807 -285 793 -268 793 c 2
 -259 793 l 1
 -259 753 l 1
 -268 753 l 2
 -309 753 -336 787 -336 820 c 0
 -336 856 -307 891 -249 891 c 0
 -204 891 -173 864 -159 828 c 1
 -89 879 l 1
 -40 879 l 1
 -40 792 l 1
 91 792 l 1
 77 752 l 1
 -79 752 l 1
EndSplineSet
EndChar
StartChar: uni0E4B.left
Encoding: 338 63254 337
Width: 0
VWidth: 1333
Flags: HW
HStem: 793 38<-240 -201 -161 -123>
VStem: -201 40<752 792 832 872>
Fore
-240 793 m 5
 -240 831 l 5
 -201 831 l 5
 -201 872 l 5
 -161 872 l 5
 -161 832 l 5
 -123 832 l 5
 -123 792 l 5
 -161 792 l 5
 -161 752 l 5
 -201 752 l 5
 -201 793 l 5
 -240 793 l 5
EndSplineSet
EndChar
StartChar: uni0E4C.left
Encoding: 339 63255 338
Width: 0
VWidth: 1333
Flags: HW
HStem: 801 40<-164.4 -73>
VStem: -201 40<752 793.236>
Fore
-201 752 m 1
 -201 781 l 2
 -201 797 -191 841 -141 841 c 2
 -60 841 l 1
 -73 801 l 1
 -141 801 l 2
 -159 801 -161 788 -161 781 c 2
 -161 752 l 1
 -201 752 l 1
EndSplineSet
EndChar
StartChar: uni0E38.low
Encoding: 340 63256 339
Width: 0
VWidth: 1333
Flags: HW
HStem: -256 40<-163 -115>
VStem: -115 40<-379 -256>
Fore
-163 -216 m 5
 -75 -216 l 5
 -75 -379 l 5
 -115 -379 l 5
 -115 -256 l 5
 -176 -256 l 5
 -163 -216 l 5
EndSplineSet
EndChar
StartChar: uni0E39.low
Encoding: 341 63257 340
Width: 0
VWidth: 1333
Flags: HW
HStem: -379 40<-226.8 -133.2> -256 40<-308 -285>
VStem: -285 40<-319.8 -256> -115 40<-319.8 -216>
Fore
-308 -216 m 5
 -245 -216 l 5
 -245 -273 l 6
 -245 -309 -216 -339 -180 -339 c 4
 -144 -339 -115 -309 -115 -273 c 6
 -115 -216 l 5
 -75 -216 l 5
 -75 -273 l 6
 -75 -332 -121 -379 -180 -379 c 4
 -239 -379 -285 -332 -285 -273 c 6
 -285 -256 l 5
 -321 -256 l 5
 -308 -216 l 5
EndSplineSet
EndChar
StartChar: uni0E3A.low
Encoding: 342 63258 341
Width: 0
VWidth: 1333
Flags: HW
HStem: -285 66<-118.4 -70.3>
VStem: -128 67<-276.7 -227.3>
Fore
-128 -252 m 0
 -128 -233 -113 -219 -95 -219 c 0
 -76 -219 -61 -233 -61 -252 c 0
 -61 -271 -76 -285 -95 -285 c 0
 -113 -285 -128 -271 -128 -252 c 0
EndSplineSet
EndChar
StartChar: uniF780
Encoding: 343 63360 342
Width: 394
VWidth: 1333
Flags: HW
HStem: 0 21G<280 320> 500 40<118.1 284.5> 588 31<-225.1 -179.6> 680 31<-225.1 -179.6>
VStem: -264 31<626.9 672.4> -172 31<626.9 672.4> 280 40<0 415>
Fore
280 0 m 1
 280 341 l 2
 280 415 256 500 161 500 c 0
 128 500 89 480 55 451 c 1
 55 496 l 1
 88 523 125 540 161 540 c 0
 273 540 320 449 320 341 c 2
 320 0 l 1
 280 0 l 1
-203 711 m 0
 -169 711 -141 683 -141 649 c 0
 -141 616 -169 588 -203 588 c 0
 -236 588 -264 616 -264 649 c 0
 -264 683 -236 711 -203 711 c 0
-233 649 m 0
 -233 632 -220 619 -203 619 c 0
 -185 619 -172 632 -172 649 c 0
 -172 667 -185 680 -203 680 c 0
 -220 680 -233 667 -233 649 c 0
EndSplineSet
EndChar
StartChar: uniF781
Encoding: 344 63361 343
Width: 0
VWidth: 1333
Flags: HW
HStem: 652 32<-365.3 -287.3> 952 33<-170.705 -108.25> 956 33<-253.2 -103.253>
VStem: -420 33<692.4 801> -332 33<849.1 938.8>
Fore
-277 703 m 1xb8
 -249 687 l 1
 -264 663 -295 652 -325 652 c 0
 -377 652 -420 680 -420 723 c 0
 -420 783 -373 816 -309 828 c 1
 -323 840 -332 856 -332 879 c 0
 -332 945 -251 989 -156 989 c 0xb8
 -140 989 -123 988 -104 985 c 1
 -109 952 l 1xd8
 -127 955 -143 956 -157 956 c 0
 -231 956 -299 925 -299 879 c 0
 -299 851 -264 837 -233 833 c 2
 -204 833 l 1
 -236 800 l 1
 -248 800 l 0
 -309 800 -387 784 -387 721 c 0
 -387 699 -356 684 -325 684 c 0
 -296 684 -281 696 -277 703 c 1xb8
EndSplineSet
EndChar
StartChar: uniF782
Encoding: 345 63362 344
Width: 590
VWidth: 1333
Flags: HW
HStem: -7 43<100.6 246.2 342.8 488.4> 400 40<356 474.4>
VStem: 64 40<79.2 533> 276 39<96.1 440> 485 40<82.2 356 467.2 533>
Fore
276 152 m 2
 276 440 l 1
 315 440 l 1
 315 155 l 2
 315 99 332 36 400 36 c 0
 468 36 485 99 485 155 c 2
 485 313 l 2
 485 361 460 400 412 400 c 2
 356 400 l 1
 356 440 l 1
 412 440 l 2
 460 440 485 479 485 527 c 2
 485 533 l 1
 525 533 l 1
 525 527 l 2
 525 481 503 441 468 419 c 1
 503 396 525 356 525 311 c 2
 525 152 l 2
 525 41 469 -7 400 -7 c 0
 356 -7 317 27 295 71 c 1
 272 27 233 -7 189 -7 c 0
 120 -7 64 41 64 152 c 2
 64 533 l 1
 104 533 l 1
 104 152 l 2
 104 96 121 33 189 33 c 0
 263 33 276 109 276 152 c 2
EndSplineSet
EndChar
StartChar: uniF783
Encoding: 346 63363 345
Width: 809
VWidth: 1333
Flags: HW
HStem: 0 40<115 155> 500 40<171.8 359 533.1 699.5>
VStem: 75 40<40 296.4> 413 40<-203 471> 695 40<-203 415>
Fore
97 384 m 1
 172 341 l 1
 135 323 115 300 115 247 c 2
 115 40 l 1
 168 40 l 1
 155 0 l 1
 75 0 l 1
 75 247 l 2
 75 285 101 320 127 339 c 1
 57 376 l 1
 87 500 188 540 255 540 c 0
 364 540 453 451 453 341 c 2
 453 -203 l 1
 413 -203 l 1
 413 341 l 2
 413 441 335 500 255 500 c 0
 191 500 121 464 97 384 c 1
695 -203 m 1
 695 341 l 2
 695 415 671 500 576 500 c 0
 543 500 504 480 469 451 c 1
 469 496 l 1
 503 523 540 540 576 540 c 0
 688 540 735 449 735 341 c 2
 735 -203 l 1
 695 -203 l 1
EndSplineSet
LCarets2: 1 0 
EndChar
StartChar: uniF784
Encoding: 347 63364 346
Width: 809
VWidth: 1333
Flags: HW
HStem: 0 40<41 75> 500 40<171.8 359 533.1 699.5>
VStem: 75 40<40 296.4> 413 40<-203 471> 695 40<-203 415>
Fore
97 384 m 1
 172 341 l 1
 135 323 115 300 115 247 c 2
 115 0 l 1
 28 0 l 1
 41 40 l 1
 75 40 l 1
 75 247 l 2
 75 285 101 320 127 339 c 1
 57 376 l 1
 87 500 188 540 255 540 c 0
 364 540 453 451 453 341 c 2
 453 -203 l 1
 413 -203 l 1
 413 341 l 2
 413 441 335 500 255 500 c 0
 191 500 121 464 97 384 c 1
695 -203 m 1
 695 341 l 2
 695 415 671 500 576 500 c 0
 543 500 504 480 469 451 c 1
 469 496 l 1
 503 523 540 540 576 540 c 0
 688 540 735 449 735 341 c 2
 735 -203 l 1
 695 -203 l 1
EndSplineSet
LCarets2: 1 0 
EndChar
StartChar: uniFB00
Encoding: 348 64256 347
Width: 491
VWidth: 1333
Flags: HW
HStem: 0 21G<64 104 313 353> 413 40<24 64 104 312 353 465> 613 27<141 290.5> 640 27<403.2 476>
VStem: 64 40<0 413> 312 39<0 413 453 530.782>
Fore
228 640 m 0
 284 640 320 617 341 591 c 1
 371 636 420 667 476 667 c 1
 476 640 l 1
 408 640 351 565 351 487 c 2
 351 453 l 1
 476 453 l 1
 465 413 l 1
 353 413 l 1
 353 0 l 1
 313 0 l 1
 313 413 l 1
 104 413 l 1
 104 0 l 1
 64 0 l 1
 64 413 l 1
 24 413 l 1
 24 453 l 1
 64 453 l 1
 64 460 l 2
 64 560 135 640 228 640 c 0
104 453 m 1
 312 453 l 1
 312 487 l 2
 312 519 320 549 333 576 c 1
 312 601 280 613 245 613 c 0
 165 613 104 547 104 460 c 2
 104 453 l 1
EndSplineSet
LCarets2: 1 0 
Ligature2: "'liga' Standard Ligatures in Latin lookup 0" f f
EndChar
StartChar: uniFB01
Encoding: 349 64257 348
Width: 413
VWidth: 1333
Flags: HW
HStem: 0 21G<64 104 313 352> 413 40<24 64 104 313> 528 64<310.9 345.816> 640 27<141 297>
VStem: 64 40<0 413 453 573> 301 64<543 582.1> 313 39<0 413>
Fore
104 453 m 1xfc
 352 453 l 1
 352 0 l 1
 313 0 l 1
 313 413 l 1xfa
 104 413 l 1
 104 0 l 1
 64 0 l 1
 64 413 l 1
 24 413 l 1
 24 453 l 1
 64 453 l 1
 64 487 l 2
 64 587 135 667 228 667 c 0
 323 667 363 607 365 564 c 2
 365 560 l 2
 365 543 351 528 333 528 c 0
 316 528 301 543 301 560 c 0
 301 577 316 592 333 592 c 0
 336 592 340 592 343 591 c 1
 323 624 285 640 245 640 c 0
 165 640 104 573 104 487 c 2
 104 453 l 1xfc
EndSplineSet
LCarets2: 1 0 
Ligature2: "'liga' Standard Ligatures in Latin lookup 0" f i
EndChar
StartChar: uniFB02
Encoding: 350 64258 349
Width: 415
VWidth: 1333
Flags: HW
HStem: 0 21G<64 104 313 352> 413 40<24 64 104 216> 640 27<228 313>
VStem: 64 40<0 413 453 588.4> 313 39<0 640>
Fore
352 0 m 1
 313 0 l 1
 313 640 l 1
 229 640 l 2
 161 640 104 565 104 487 c 2
 104 453 l 1
 229 453 l 1
 216 413 l 1
 104 413 l 1
 104 0 l 1
 64 0 l 1
 64 413 l 1
 24 413 l 1
 24 453 l 1
 64 453 l 1
 64 487 l 2
 64 585 136 667 228 667 c 2
 352 667 l 1
 352 0 l 1
EndSplineSet
LCarets2: 1 0 
Ligature2: "'liga' Standard Ligatures in Latin lookup 0" f l
EndChar
StartChar: uniFB03
Encoding: 351 64259 350
Width: 662
VWidth: 1333
Flags: HW
HStem: 0 21G<64 104 313 353 563 601> 413 40<24 64 104 313 353 563> 528 64<559.6 594.516> 613 27<141 290.5> 640 27<402.9 547>
VStem: 64 40<0 413> 313 40<0 413 453 522.631> 551 64<543 582.1> 563 38<0 413>
Fore
353 453 m 1xff
 601 453 l 1
 601 0 l 1
 563 0 l 1
 563 413 l 1xfe80
 353 413 l 1
 353 0 l 1
 313 0 l 1
 313 413 l 1
 104 413 l 1
 104 0 l 1
 64 0 l 1
 64 413 l 1
 24 413 l 1
 24 453 l 1
 64 453 l 1
 64 460 l 2
 64 560 135 640 228 640 c 0
 284 640 321 617 343 591 c 1
 372 636 420 667 477 667 c 0
 572 667 612 607 615 564 c 2
 615 560 l 2
 615 543 600 528 583 528 c 0
 565 528 551 543 551 560 c 0
 551 577 565 592 583 592 c 0
 585 592 589 592 592 591 c 1
 572 624 535 640 495 640 c 0
 415 640 353 573 353 487 c 2
 353 453 l 1xff
104 460 m 2
 104 453 l 1
 313 453 l 1
 313 487 l 2
 313 519 320 551 333 576 c 1
 312 601 280 613 245 613 c 0
 165 613 104 547 104 460 c 2
EndSplineSet
LCarets2: 2 0 0 
Ligature2: "'liga' Standard Ligatures in Latin lookup 0" f f i
EndChar
StartChar: uniFB04
Encoding: 352 64260 351
Width: 665
VWidth: 1333
Flags: HW
HStem: 0 21G<64 104 313 353 563 601> 413 40<24 64 104 313 353 465> 613 27<141 290.5> 640 27<402.9 563>
VStem: 64 40<0 413> 313 40<0 413 453 533.32> 563 38<0 640>
Fore
479 453 m 1
 465 413 l 1
 353 413 l 1
 353 0 l 1
 313 0 l 1
 313 413 l 1
 104 413 l 1
 104 0 l 1
 64 0 l 1
 64 413 l 1
 24 413 l 1
 24 453 l 1
 64 453 l 1
 64 460 l 2
 64 560 135 640 228 640 c 0
 284 640 321 617 343 591 c 1
 372 636 420 667 477 667 c 2
 601 667 l 1
 601 0 l 1
 563 0 l 1
 563 640 l 1
 495 640 l 2
 415 640 353 573 353 487 c 2
 353 453 l 1
 479 453 l 1
104 460 m 2
 104 453 l 1
 313 453 l 1
 313 487 l 2
 313 519 320 551 333 576 c 1
 312 601 280 613 245 613 c 0
 165 613 104 547 104 460 c 2
EndSplineSet
LCarets2: 2 0 0 
Ligature2: "'liga' Standard Ligatures in Latin lookup 0" f f l
EndChar
